<?xml version="1.0" encoding="utf-8"?>
<!-- Generator: Adobe Illustrator 16.0.0, SVG Export Plug-In . SVG Version: 6.00 Build 0)  -->
<!DOCTYPE svg PUBLIC "-//W3C//DTD SVG 1.1//EN" "http://www.w3.org/Graphics/SVG/1.1/DTD/svg11.dtd">
<svg version="1.1" id="Layer_1" xmlns="http://www.w3.org/2000/svg" xmlns:xlink="http://www.w3.org/1999/xlink" x="0px" y="0px"
     width="136.913px" height="136.914px" viewBox="0 0 136.913 136.914" enable-background="new 0 0 136.913 136.914"
     xml:space="preserve">
<g>
	<g>
		<circle fill="#9F77AA" cx="68.456" cy="68.457" r="63.333"/>
		<g>
			<g>
				<g>
					<path fill="#9F77AA" d="M116.336,56.499c-7.402,1.371-16.617,3.08-31.706,0.396c-3.732-0.663-7.642,0.734-11.421,2.087
						c-1.697,0.607-3.453,1.236-5.188,1.679l-1.627,0.414c-14.781,3.753-30.064,7.634-39.318,24.291
						c-3.174,5.713-6.573,8.605-10.105,8.605c-0.072,0-0.143,0-0.214-0.002c-4.905-0.161-8.195-5.858-8.981-7.368
						c7.803,26.133,32.011,45.19,60.682,45.19c34.977,0,63.332-28.355,63.332-63.333c0-4.415-0.454-8.723-1.313-12.883
						C125.644,54.775,121.459,55.549,116.336,56.499z"/>
				</g>
				<g>
					<path fill="#9F77AA" d="M131.396,61.458c0.109,0.98,0.188,1.97,0.252,2.963C131.586,63.427,131.504,62.438,131.396,61.458z"/>
					<path fill="#9F77AA" d="M131.69,64.979c0.063,1.151,0.099,2.31,0.099,3.477C131.789,67.29,131.753,66.131,131.69,64.979z"/>
					<path fill="#9F77AA" d="M130.904,57.943c0.179,1.055,0.325,2.121,0.451,3.193C131.232,60.063,131.082,58.999,130.904,57.943z"
						/>
					<path fill="#9F77AA" d="M62.426,131.497c-0.283-0.027-0.565-0.055-0.848-0.085C61.86,131.442,62.143,131.47,62.426,131.497z"/>
					<path fill="#9F77AA" d="M59.041,131.089c-0.104-0.015-0.207-0.028-0.311-0.043C58.834,131.062,58.938,131.074,59.041,131.089z"
						/>
					<path fill="#9F77AA" d="M130.893,57.876c-0.129-0.771-0.26-1.541-0.417-2.302c-0.013-0.002-0.024-0.002-0.036-0.005
						C130.598,56.335,130.762,57.1,130.893,57.876z"/>
					<path fill="#9F77AA" d="M65.471,131.714c-0.293-0.013-0.584-0.035-0.875-0.053C64.887,131.679,65.178,131.701,65.471,131.714z"
						/>
					<path fill="#DFBFDB" d="M130.476,55.574L130.476,55.574c-0.073-0.352-0.16-0.698-0.241-1.047c0,0.001,0,0.002,0,0.004
						C130.313,54.879,130.402,55.223,130.476,55.574z"/>
					<path fill="#DFBFDB" d="M130.234,54.526c-0.082-0.347-0.157-0.696-0.241-1.043l0,0
						C130.077,53.83,130.156,54.178,130.234,54.526L130.234,54.526z"/>
					<path fill="#DFBFDB" d="M130.439,55.569c0.012,0.002,0.023,0.003,0.036,0.005c-0.073-0.351-0.163-0.695-0.241-1.043
						C130.312,54.874,130.367,55.224,130.439,55.569z"/>
					<path fill="#DFBFDB" d="M115.971,54.532c-7.243,1.343-16.26,3.014-30.99,0.394c-4.26-0.761-8.42,0.731-12.445,2.173
						c-1.73,0.619-3.364,1.204-5.008,1.624l-1.625,0.413c-15.191,3.857-30.9,7.847-40.574,25.258
						c-2.844,5.115-5.693,7.65-8.502,7.574c-3.281-0.104-6.973-3.37-8.568-4.958c2.286,3.463,9.781,12.557,17.943-2.131
						c9.805-17.644,25.943-21.199,41.572-25.187c5.594-1.428,11.307-4.801,17.031-3.781c24.877,4.425,33.326-3.178,45.43-1.383
						c-0.078-0.349-0.157-0.697-0.241-1.043C125.132,52.837,120.824,53.631,115.971,54.532z"/>
					<polygon fill="#C698C5" points="130.234,54.526 130.234,54.526 130.234,54.527 					"/>
					<path fill="#C698C5" d="M130.893,57.876c0.004,0.022,0.008,0.045,0.012,0.067C130.9,57.921,130.896,57.898,130.893,57.876z"/>
					<path fill="#C698C5" d="M61.578,131.412c-0.85-0.092-1.697-0.197-2.537-0.323C59.883,131.213,60.729,131.321,61.578,131.412z"
						/>
					<path fill="#C698C5" d="M64.596,131.662c-0.727-0.043-1.451-0.097-2.17-0.165C63.146,131.564,63.869,131.618,64.596,131.662z"
						/>
					<path fill="#C698C5" d="M68.457,131.79c-1.002,0-1.996-0.029-2.986-0.076C66.462,131.76,67.457,131.79,68.457,131.79z"/>
					<path fill="#C698C5" d="M131.355,61.136c0.012,0.107,0.029,0.214,0.041,0.322C131.385,61.35,131.367,61.244,131.355,61.136z"/>
					<path fill="#C698C5" d="M131.648,64.421c0.012,0.187,0.031,0.371,0.042,0.559C131.68,64.792,131.66,64.607,131.648,64.421z"/>
					<path fill="#C698C5" d="M131.69,64.979c-0.011-0.188-0.03-0.372-0.042-0.559c-0.064-0.993-0.143-1.983-0.252-2.963
						c-0.012-0.108-0.029-0.214-0.041-0.322c-0.126-1.072-0.272-2.138-0.451-3.193c-0.004-0.022-0.008-0.045-0.012-0.067
						c-0.131-0.776-0.295-1.541-0.453-2.307c-4.816-0.788-8.994-0.018-14.104,0.93c-7.402,1.371-16.617,3.08-31.706,0.396
						c-3.732-0.663-7.642,0.734-11.421,2.087c-1.697,0.607-3.453,1.236-5.188,1.679l-1.627,0.414
						c-14.781,3.753-30.064,7.634-39.318,24.291c-3.174,5.713-6.573,8.605-10.105,8.605c-0.072,0-0.143,0-0.214-0.002
						c-2.694-0.088-5.484-1.614-7.587-3.22c7.92,21.054,26.723,36.778,49.561,40.298c0.104,0.016,0.207,0.028,0.311,0.043
						c0.84,0.125,1.688,0.23,2.537,0.323c0.282,0.03,0.564,0.058,0.848,0.085c0.719,0.068,1.443,0.121,2.17,0.165
						c0.291,0.018,0.582,0.04,0.875,0.053c0.99,0.046,1.984,0.076,2.986,0.076c34.977,0,63.332-28.355,63.332-63.333
						C131.789,67.289,131.754,66.13,131.69,64.979z"/>
					<path fill="#C698C5" d="M8.258,87.009c-0.369-0.562-0.607-0.979-0.684-1.119c0.055,0.196,0.108,0.392,0.166,0.587
						C7.872,86.618,8.046,86.797,8.258,87.009z"/>
					<rect x="130.232" y="54.528" fill="#C698C5" width="0.004" height="0"/>
					<path fill="#C698C5" d="M130.234,54.526c-12.104-1.795-20.553,5.809-45.43,1.383c-5.725-1.02-11.438,2.354-17.031,3.781
						c-15.629,3.988-31.768,7.543-41.572,25.187c-8.162,14.688-15.657,5.595-17.943,2.131c-0.212-0.212-0.386-0.391-0.518-0.532
						c0.428,1.445,0.902,2.87,1.43,4.27c2.103,1.606,4.893,3.132,7.587,3.22c0.071,0.002,0.142,0.002,0.214,0.002
						c3.532,0,6.932-2.893,10.105-8.605c9.254-16.657,24.537-20.538,39.318-24.291l1.627-0.414c1.734-0.442,3.49-1.071,5.188-1.679
						c3.779-1.353,7.688-2.75,11.421-2.087c15.089,2.685,24.304,0.976,31.706-0.396c5.109-0.947,9.287-1.718,14.104-0.93
						c-0.072-0.345-0.128-0.695-0.205-1.038C130.234,54.529,130.234,54.528,130.234,54.526z"/>
				</g>
				<g>
					<g>
						<path fill="#DAC425" d="M105.695,98.909c0,8.324-14.369,15.074-32.096,15.074c-17.725,0-32.094-6.75-32.094-15.074
							c0-8.326-3.209-15.076,32.094-15.076C109.342,83.833,105.695,90.583,105.695,98.909z"/>
						<ellipse fill="#F4E028" cx="73.601" cy="92.878" rx="32.095" ry="15.076"/>
						<path fill="#F9F29A" d="M58.818,106.3c0,0,6.223,1.557,12.643,1.654l0.098,6.029c0,0-7.586,0.193-12.693-1.703L58.818,106.3z"
							/>
					</g>
					<g>
						<path fill="#DAC425" d="M104.527,88.778c0,8.324-14.369,15.074-32.094,15.074c-17.727,0-32.094-6.75-32.094-15.074
							c0-8.326-3.209-15.076,32.094-15.076C108.174,73.703,104.527,80.452,104.527,88.778z"/>
						<ellipse fill="#F4E028" cx="72.434" cy="82.747" rx="32.094" ry="15.076"/>
						<path fill="#F9F29A" d="M57.65,96.169c0,0,6.225,1.555,12.645,1.654l0.096,6.029c0,0-7.586,0.195-12.691-1.701L57.65,96.169z"
							/>
					</g>
					<g>
						<path fill="#DAC425" d="M105.695,79.688c0,8.326-14.369,15.074-32.096,15.074c-17.725,0-32.094-6.748-32.094-15.074
							c0-8.324-3.209-15.074,32.094-15.074C109.342,64.615,105.695,71.365,105.695,79.688z"/>
						<ellipse fill="#F4E028" cx="73.601" cy="73.66" rx="32.095" ry="15.074"/>
						<path fill="#F9F29A" d="M58.818,87.081c0,0,6.223,1.557,12.643,1.652l0.098,6.029c0,0-7.586,0.195-12.693-1.701L58.818,87.081
							z"/>
					</g>
					<g>
						<path fill="#DAC425" d="M104.527,70.601c0,8.326-14.369,15.076-32.094,15.076c-17.727,0-32.094-6.75-32.094-15.076
							c0-8.324-3.209-15.074,32.094-15.074C108.174,55.527,104.527,62.277,104.527,70.601z"/>
						<ellipse fill="#F4E028" cx="72.434" cy="64.572" rx="32.094" ry="15.076"/>
						<path fill="#F9F29A" d="M57.65,77.993c0,0,6.225,1.555,12.645,1.654l0.096,6.029c0,0-7.586,0.193-12.691-1.703L57.65,77.993z"
							/>
					</g>
					<g>
						<path fill="#DAC425" d="M103.359,61.515c0,8.324-14.367,15.072-32.092,15.072c-17.727,0-32.096-6.748-32.096-15.072
							c0-8.326-3.209-15.076,32.096-15.076C107.008,46.439,103.359,53.189,103.359,61.515z"/>
						<ellipse fill="#F4E028" cx="71.266" cy="55.484" rx="32.094" ry="15.074"/>
						<path fill="#F9F29A" d="M56.482,68.905c0,0,6.225,1.556,12.645,1.653l0.096,6.029c0,0-7.584,0.195-12.689-1.701L56.482,68.905
							z"/>
					</g>
					<g>
						<path fill="#DAC425" d="M104.527,52.425c0,8.325-14.369,15.075-32.094,15.075c-17.727,0-32.094-6.75-32.094-15.075
							c0-8.324-3.209-15.074,32.094-15.074C108.174,37.351,104.527,44.101,104.527,52.425z"/>
						<ellipse fill="#F4E028" cx="72.434" cy="46.396" rx="32.094" ry="15.074"/>
						<ellipse fill="#F9F29A" stroke="#E1C821" stroke-miterlimit="10" cx="72.434" cy="45.714" rx="26.881" ry="12.629"/>
						<path fill="#F9F29A" d="M57.65,59.817c0,0,6.225,1.558,12.645,1.653l0.096,6.03c0,0-7.586,0.194-12.691-1.702L57.65,59.817z"
							/>
					</g>
				</g>
				<circle fill="#DFBFDB" cx="26.202" cy="84.878" r="3.028"/>
				<circle fill="#DFBFDB" cx="15.02" cy="91.866" r="3.029"/>
				<circle fill="#DFBFDB" cx="35.054" cy="73.697" r="3.028"/>
				<circle fill="#DFBFDB" cx="108.2" cy="56.458" r="3.028"/>
				<circle fill="#DFBFDB" cx="124.042" cy="54.594" r="3.028"/>
			</g>
		</g>
	</g>
</g>
</svg>
