<?xml version="1.0" encoding="utf-8"?>
<!-- Generator: Adobe Illustrator 16.0.0, SVG Export Plug-In . SVG Version: 6.00 Build 0)  -->
<!DOCTYPE svg PUBLIC "-//W3C//DTD SVG 1.1//EN" "http://www.w3.org/Graphics/SVG/1.1/DTD/svg11.dtd">
<svg version="1.1" id="Layer_1" xmlns="http://www.w3.org/2000/svg" xmlns:xlink="http://www.w3.org/1999/xlink" x="0px" y="0px"
     width="136.913px" height="136.914px" viewBox="0 0 136.913 136.914" enable-background="new 0 0 136.913 136.914"
     xml:space="preserve">
<g>
	<g>
		<circle fill="#EFEFEF" cx="68.456" cy="68.457" r="63.333"/>
	</g>
	<g>
		<circle fill="#B6E2EA" cx="58.775" cy="33.877" r="9.582"/>
		<g>
			<path fill="#FDD7B3" d="M48.977,68.559l2.176-6.686c0,0,1.551,0.975,1.676,2.115C52.965,65.246,50.836,68.539,48.977,68.559z"/>
			<g>
				<g>
					<g>
						<path fill="#FBC096" d="M95.551,76.607h-0.037l-2.057-15.738c-0.615-3.74-1.762-5.443-4.789-5.391
							c-1.484,0.025-2.568,0.621-3.289,1.574l-0.004-0.293c-0.053-3.029-2.551-5.443-5.58-5.389
							c-2.152,0.037-3.988,1.313-4.855,3.133l-0.035-2.07c0.404-2.977-2.098-5.391-5.127-5.338
							c-2.414,0.041-4.432,1.639-5.127,3.816l-0.234-17.729c-0.053-3.029-2.549-5.441-5.578-5.391
							c-3.031,0.053-5.445,2.553-5.375,6.906l0.371,27.934c-1.172-0.682-2.25-0.9-2.25-0.9l-0.715,1.594l-3.623,10.117
							c0,0-1.041,1.436-0.25,5.76c1.248,6.816,1.719,9.691,3.529,12.682c4.568,7.545,9.768,13.139,9.768,13.139l-0.006-0.104
							c3.771,4.17,8.943,6.516,14.689,6.416c11.416-0.195,20.855-11.225,20.855-26.469L95.551,76.607z"/>
						<path fill="#EDAC80" d="M85.557,76.309l0.73-20.17c-1.469,1.035-2.01,2.584-1.98,4.313l-0.143,18.932
							C84.414,78.779,85.535,77.004,85.557,76.309z"/>
						<path fill="#EDAC80" d="M74.684,73.926l2.102-21.592c-1.236,1.027-2.412,2.543-2.381,4.273l-0.143,19.273
							C74.514,75.275,74.666,74.619,74.684,73.926z"/>
						<path fill="#EDAC80" d="M64.666,69.652l2.268-21.701c-1.344,0.828-2.566,2.65-2.535,4.383l-0.156,19.273
							C64.496,71.004,64.648,70.346,64.666,69.652z"/>
						<path fill="#FDD7B3" d="M62.605,34.992l-0.051-2.703c-0.035-1.918-1.734-3.445-3.793-3.412
							c-2.061,0.033-3.701,1.615-3.666,3.535l0.051,2.701c0,0,1.066,0.633,3.545,0.57C61.768,35.604,61.846,35.336,62.605,34.992z"
							/>
						<g>
							<path fill="#FDD7B3" d="M63.441,58.107c0.004,0.221-0.17,0.398-0.389,0.404l-6.902,0.119
								c-0.221,0.002-0.402-0.17-0.404-0.391l0,0c-0.002-0.219,0.17-0.398,0.389-0.402l6.904-0.119
								C63.258,57.715,63.439,57.889,63.441,58.107L63.441,58.107z"/>
							<path fill="#FDD7B3" d="M61.684,60.098c0.004,0.193-0.148,0.352-0.344,0.355l-3.412,0.059
								c-0.193,0.004-0.354-0.15-0.355-0.342l0,0c-0.004-0.195,0.15-0.352,0.342-0.359l3.412-0.059
								C61.523,59.75,61.682,59.904,61.684,60.098L61.684,60.098z"/>
						</g>
					</g>
				</g>
			</g>
			<path fill="#EDAC80" d="M54.002,62.73l0.402,24.932l-1.736-9.92c0,0-0.705-3.355-0.137-5.75
				C52.971,70.141,54.002,62.73,54.002,62.73z"/>
			<path fill="#FDD7B3" d="M49.359,74.881c0.004,0.193-0.15,0.352-0.346,0.355l-1.768,0.061c-0.195,0.002-0.354-0.152-0.357-0.344
				l0,0c-0.004-0.195,0.15-0.352,0.344-0.359l1.77-0.059C49.197,74.533,49.357,74.688,49.359,74.881L49.359,74.881z"/>
			<path fill="#FDD7B3" d="M48.537,76.229c0.004,0.193-0.148,0.352-0.344,0.355l-0.947,0.059c-0.195,0.004-0.354-0.152-0.357-0.342
				l0,0c-0.004-0.195,0.15-0.352,0.344-0.357l0.947-0.063C48.375,75.881,48.535,76.035,48.537,76.229L48.537,76.229z"/>
			<g>
				<path fill="#F5B88E" d="M62.705,75.625c0.35,1.229-0.227,2.473-1.449,2.916c-0.742,0.268-0.422,1.459,0.328,1.188
					c1.846-0.668,2.852-2.523,2.309-4.432C63.678,74.535,62.488,74.859,62.705,75.625L62.705,75.625z"/>
			</g>
			<g>
				<path fill="#F5B88E" d="M73.484,73.969c0.738,2.07-0.168,4.105-2.174,4.982c-0.727,0.318-0.1,1.379,0.621,1.064
					c2.477-1.084,3.645-3.836,2.74-6.375C74.408,72.896,73.219,73.217,73.484,73.969L73.484,73.969z"/>
			</g>
			<g>
				<path fill="#F5B88E" d="M83.086,75.326c0.414,1.496-0.318,2.992-1.803,3.514c-0.744,0.262-0.424,1.451,0.328,1.188
					c2.109-0.74,3.264-2.855,2.662-5.029C84.063,74.232,82.873,74.559,83.086,75.326L83.086,75.326z"/>
			</g>
			<g>
				<path fill="#F5B88E" d="M92.748,75.715c0.367,1.086-0.047,2.275-1.146,2.734c-0.723,0.301-0.408,1.494,0.326,1.189
					c1.693-0.709,2.611-2.467,2.008-4.25C93.684,74.641,92.494,74.961,92.748,75.715L92.748,75.715z"/>
			</g>
		</g>
	</g>
</g>
</svg>
