<?xml version="1.0" encoding="utf-8"?>
<!-- Generator: Adobe Illustrator 16.0.0, SVG Export Plug-In . SVG Version: 6.00 Build 0)  -->
<!DOCTYPE svg PUBLIC "-//W3C//DTD SVG 1.1//EN" "http://www.w3.org/Graphics/SVG/1.1/DTD/svg11.dtd">
<svg version="1.1" id="Layer_1" xmlns="http://www.w3.org/2000/svg" xmlns:xlink="http://www.w3.org/1999/xlink" x="0px" y="0px"
     width="136.914px" height="136.914px" viewBox="0 0 136.914 136.914" enable-background="new 0 0 136.914 136.914"
     xml:space="preserve">
<g>
	<g>
		<circle fill="#EDC92C" cx="68.457" cy="68.456" r="63.333"/>
	</g>
	<g>
		<path fill="#4E4E4E" d="M112.91,82.027c0.861,5.609-0.839,7.927-6.446,8.787l-69.406,10.653c-5.607,0.861-7.925-0.839-8.785-6.447
			l-6.821-41.555c-0.861-5.609,0.837-7.926,6.446-8.787l69.406-10.653c5.607-0.86,7.925,0.839,8.785,6.448L112.91,82.027z"/>
		<path fill="#A3D4AA" d="M108.644,81.961c0.414,2.662-1.408,5.157-4.07,5.572l0,0L101.7,69.114l0,0
			c2.664-0.415,5.158,1.408,5.573,4.069L108.644,81.961z"/>
		<path fill="#6CC077" d="M106.089,65.455c0.413,2.665-1.408,5.159-4.069,5.574l0,0L99.146,52.61l0,0
			c2.663-0.415,5.158,1.407,5.572,4.069L106.089,65.455z"/>
		<path fill="#F6A2A3" d="M32.301,93.586c0.438,2.659,2.949,4.461,5.607,4.023l0,0l-3.027-18.395l0,0
			c-2.659,0.439-4.459,2.948-4.022,5.607L32.301,93.586z"/>
		<path fill="#F06668" d="M29.57,77.111c0.438,2.659,2.948,4.459,5.607,4.022l0,0L32.151,62.74l0,0
			c-2.659,0.438-4.461,2.948-4.021,5.605L29.57,77.111z"/>
		<path fill="#E84849" d="M27.208,61.755c0.438,2.659,2.949,4.46,5.607,4.023l0,0L29.79,47.384l0,0
			c-2.661,0.438-4.461,2.949-4.022,5.607L27.208,61.755z"/>
		<g>
			
				<rect x="67.497" y="39.677" transform="matrix(0.9875 -0.1577 0.1577 0.9875 -9.2245 14.1059)" fill="#EBF6F9" width="33.603" height="51.037"/>
			<polygon fill="#EBF6F9" points="70.644,92.542 37.656,97.84 29.609,47.441 62.597,42.144 			"/>
			<g>
				<g>
					<g>
						
							<rect x="34.609" y="52.487" transform="matrix(0.9875 -0.1578 0.1578 0.9875 -7.8465 7.7784)" fill="#818282" width="20.921" height="1.649"/>
						
							<rect x="35.335" y="56.556" transform="matrix(0.9875 -0.1578 0.1578 0.9875 -8.48 7.9445)" fill="#818282" width="20.919" height="1.647"/>
						
							<rect x="36.017" y="60.878" transform="matrix(0.9875 -0.1578 0.1578 0.9875 -9.1552 8.1083)" fill="#818282" width="20.921" height="1.649"/>
					</g>
					<g>
						
							<rect x="36.508" y="65.062" transform="matrix(0.9875 -0.1578 0.1578 0.9875 -9.8067 8.2355)" fill="#818282" width="20.921" height="1.649"/>
						
							<rect x="37.234" y="69.131" transform="matrix(0.9875 -0.1578 0.1578 0.9875 -10.4404 8.4018)" fill="#818282" width="20.919" height="1.647"/>
						
							<rect x="37.917" y="73.453" transform="matrix(0.9875 -0.1578 0.1578 0.9875 -11.116 8.5656)" fill="#818282" width="20.921" height="1.649"/>
					</g>
					<g>
						
							<rect x="38.51" y="77.791" transform="matrix(0.9875 -0.1578 0.1578 0.9875 -11.7895 8.7104)" fill="#818282" width="20.922" height="1.649"/>
						
							<rect x="39.236" y="81.861" transform="matrix(0.9875 -0.1578 0.1578 0.9875 -12.4234 8.8766)" fill="#818282" width="20.92" height="1.647"/>
						
							<rect x="39.918" y="86.183" transform="matrix(0.9875 -0.1578 0.1578 0.9875 -13.0957 9.0376)" fill="#818282" width="20.922" height="1.648"/>
					</g>
				</g>
				<g>
					
						<rect x="72.332" y="47.51" transform="matrix(0.9875 -0.1577 0.1577 0.9875 -6.5872 13.6636)" fill="#818282" width="20.921" height="1.648"/>
					
						<rect x="73.058" y="51.578" transform="matrix(0.9875 -0.1577 0.1577 0.9875 -7.2197 13.8289)" fill="#818282" width="20.921" height="1.647"/>
					
						<rect x="73.741" y="55.902" transform="matrix(0.9875 -0.1578 0.1578 0.9875 -7.8954 13.9957)" fill="#818282" width="20.92" height="1.647"/>
					
						<rect x="74.472" y="60.832" transform="matrix(0.9875 -0.1577 0.1577 0.9875 -8.7168 13.421)" fill="#818282" width="11.534" height="1.647"/>
				</g>
			</g>
		</g>
		<path fill="#2F8442" d="M103.535,50.131l-1.37-8.777c-0.415-2.66-2.909-4.482-5.574-4.068l-1.202,0.248l3.006,18.295l1.066-0.152
			l0.003,0.028C102.127,55.289,103.949,52.794,103.535,50.131z"/>
		<g>
			<circle fill="#4E4E4E" cx="58.66" cy="47.752" r="1.048"/>
			<circle fill="#4E4E4E" cx="68.861" cy="46.026" r="1.048"/>
			<g>
				<path fill="none" stroke="#888887" stroke-miterlimit="10" d="M68.836,46.044c-0.223-1.276-2.804-2.693-5.6-2.207
					c-2.799,0.486-4.754,2.691-4.532,3.968"/>
			</g>
		</g>
		<g>
			<circle fill="#4E4E4E" cx="65.208" cy="89.929" r="1.048"/>
			<circle fill="#4E4E4E" cx="75.41" cy="88.203" r="1.048"/>
			<g>
				<path fill="none" stroke="#888887" stroke-miterlimit="10" d="M75.384,88.221c-0.224-1.276-2.803-2.693-5.599-2.207
					c-2.799,0.486-4.754,2.691-4.532,3.967"/>
			</g>
		</g>
		<g>
			<circle fill="#4E4E4E" cx="61.279" cy="65.042" r="1.048"/>
			<circle fill="#4E4E4E" cx="71.481" cy="63.315" r="1.047"/>
			<g>
				<path fill="none" stroke="#888887" stroke-miterlimit="10" d="M71.454,63.335c-0.224-1.276-2.801-2.693-5.599-2.209
					c-2.799,0.486-4.754,2.691-4.532,3.969"/>
			</g>
		</g>
		<g>
			<circle fill="#4E4E4E" cx="62.589" cy="73.426" r="1.048"/>
			<circle fill="#4E4E4E" cx="72.792" cy="71.7" r="1.047"/>
			<g>
				<path fill="none" stroke="#888887" stroke-miterlimit="10" d="M72.765,71.718c-0.222-1.277-2.803-2.693-5.6-2.207
					c-2.798,0.485-4.755,2.69-4.531,3.966"/>
			</g>
		</g>
		<g>
			<circle fill="#4E4E4E" cx="63.899" cy="81.416" r="1.047"/>
			<circle fill="#4E4E4E" cx="74.101" cy="79.689" r="1.048"/>
			<g>
				<path fill="none" stroke="#888887" stroke-miterlimit="10" d="M74.074,79.708c-0.223-1.277-2.802-2.692-5.598-2.208
					c-2.799,0.485-4.756,2.691-4.534,3.968"/>
			</g>
		</g>
		<g>
			<circle fill="#4E4E4E" cx="59.838" cy="56.135" r="1.048"/>
			<circle fill="#4E4E4E" cx="70.041" cy="54.409" r="1.047"/>
			<g>
				<path fill="none" stroke="#888887" stroke-miterlimit="10" d="M70.014,54.428c-0.222-1.277-2.803-2.692-5.599-2.208
					c-2.799,0.486-4.756,2.691-4.532,3.968"/>
			</g>
		</g>
	</g>
</g>
</svg>
