<?xml version="1.0" encoding="utf-8"?>
<!-- Generator: Adobe Illustrator 16.0.0, SVG Export Plug-In . SVG Version: 6.00 Build 0)  -->
<!DOCTYPE svg PUBLIC "-//W3C//DTD SVG 1.1//EN" "http://www.w3.org/Graphics/SVG/1.1/DTD/svg11.dtd">
<svg version="1.1" id="Layer_1" xmlns="http://www.w3.org/2000/svg" xmlns:xlink="http://www.w3.org/1999/xlink" x="0px" y="0px"
     width="136.913px" height="136.914px" viewBox="0 0 136.913 136.914" enable-background="new 0 0 136.913 136.914"
     xml:space="preserve">
<g>
	<g>
		<circle fill="#E5AA17" cx="68.456" cy="68.457" r="63.333"/>
	</g>
	<g>
		<g>
			<g>
				<path fill="#9B7542" d="M76.924,87.758c-0.088,3.915-3.629,6.839-7.908,6.531l0,0c-4.281-0.309-7.68-3.732-7.592-7.648
					l0.365-16.395c0.086-3.914,3.627-6.838,7.906-6.53l0,0c4.281,0.306,7.68,3.729,7.594,7.645L76.924,87.758z"/>
				<path fill="#A47E46" d="M80.881,62.63c0.967,6.533-3.988,12.239-11.066,12.745l0,0c-7.08,0.507-13.6-4.378-14.564-10.912
					L51.207,37.1c-0.967-6.531,3.99-12.238,11.068-12.745l0,0c7.078-0.506,13.598,4.378,14.563,10.911L80.881,62.63z"/>
			</g>
		</g>
		<path fill="#9E7640" d="M85.625,66.088c0,0-3.586-11.43,3.414-21.43l1.064,17.514L85.625,66.088z"/>
		<g>
			<g>
				<ellipse fill="#4D4C4C" cx="67.947" cy="52.845" rx="8.246" ry="8.542"/>
				<ellipse fill="#4D4C4C" cx="84.939" cy="49.346" rx="8.246" ry="8.541"/>
				<polygon fill="#4D4C4C" points="66.111,44.92 69.631,41.223 78.813,39.326 83.836,41.033 87.25,57.422 78.441,54.049 
					68.883,61.171 				"/>
				<g>
					<ellipse fill="#3F3E40" cx="87.279" cy="50.345" rx="7.658" ry="7.933"/>
					<ellipse fill="#4D4C4C" cx="89.341" cy="50.658" rx="5.591" ry="5.789"/>
					<ellipse fill="#3F3E40" cx="90.591" cy="50.908" rx="4.687" ry="4.853"/>
					<ellipse fill="#DCEFED" cx="91.126" cy="50.908" rx="3.089" ry="3.364"/>
					<path fill="#A9D5D0" d="M91.125,54.272c-1.705,0-3.088-1.507-3.088-3.364c0-1.858,1.383-3.365,3.088-3.365
						C92.832,47.543,92.832,54.272,91.125,54.272z"/>
				</g>
				<g>
					<ellipse fill="#3F3E40" cx="71.945" cy="53.345" rx="7.658" ry="7.933"/>
					<ellipse fill="#4D4C4C" cx="74.007" cy="53.658" rx="5.591" ry="5.789"/>
					<ellipse fill="#3F3E40" cx="75.258" cy="53.908" rx="4.686" ry="4.853"/>
					<ellipse fill="#DCEFED" cx="75.792" cy="53.908" rx="3.089" ry="3.364"/>
					<path fill="#A9D5D0" d="M75.793,57.272c-1.707,0-3.09-1.507-3.09-3.364c0-1.858,1.383-3.365,3.09-3.365
						C77.498,50.543,77.498,57.272,75.793,57.272z"/>
				</g>
			</g>
		</g>
		<path fill="#36160D" d="M49.803,37.955c0,0-0.139,10.265,3.293,7.517c1.516-1.215,2.539-7.074,5.061-8.076
			c2.912-1.158,11.207,7.948,14.414,7.011c6.756-1.975,9.143-8.911,9.475-10.379l-5.289-0.43c0,0,5.307-1.785,5.449-4.405
			C82.205,29.192,50.824,14.145,49.803,37.955z"/>
		<g>
			<path fill="#9E7640" d="M66.367,72.838c0,0,3.586-11.43-3.414-21.43l-1.064,17.514L66.367,72.838z"/>
			<g>
				<path fill="#A47E46" d="M47.943,87.664l-2.58,0.441l-6.16,1.053l-3.912,33.254c0.09,0.056,0.176,0.115,0.266,0.17l10.436-17.033
					l0.545-0.891l1.613-3.755L47.943,87.664z"/>
				<path fill="#A47E46" d="M96.943,97.461l-4.191,1.773l0.041,0.615l10.436,21.533c0.635-0.418,1.26-0.852,1.879-1.292
					L96.943,97.461z"/>
				<polygon fill="#A47E46" points="92.793,99.85 92.752,99.234 92.537,99.324 				"/>
			</g>
		</g>
		<g>
			<path fill="#6EBD44" d="M92.705,99.668l8.83-2.121l-5.486-17.133l-9.75-1l-9.859,1.064l-13.676,2.346L46.51,127.88
				c6.838,2.526,14.23,3.91,21.945,3.91c9.307,0,18.137-2.024,26.096-5.63L92.793,99.85L92.705,99.668z"/>
			<polygon fill="#6EBD44" points="49.369,101.658 49.387,98.025 55.291,84.281 48.801,86.23 39.693,87.164 34.207,104.297 
				48.203,107.658 			"/>
		</g>
	</g>
	<path fill="#9E7640" d="M61.889,68.922l-6.598,15.359l-7.141,16.622l-1.613,3.755l-0.545,0.891l-10.436,17.033
		c2.873,1.75,5.9,3.266,9.051,4.547c0.377,0.154,0.758,0.303,1.141,0.45c0.254,0.099,0.506,0.206,0.762,0.301l16.254-45.056
		l3.604-9.986L61.889,68.922z"/>
	<path fill="#9E7640" d="M105.455,97.908L90.104,62.172l-4.479,3.916l11.318,31.373l8.164,22.63
		c3.156-2.244,6.096-4.767,8.787-7.537c0.109-0.112,0.215-0.228,0.324-0.341L105.455,97.908z"/>
</g>
</svg>
