<?xml version="1.0" encoding="utf-8"?>
<!-- Generator: Adobe Illustrator 16.0.0, SVG Export Plug-In . SVG Version: 6.00 Build 0)  -->
<!DOCTYPE svg PUBLIC "-//W3C//DTD SVG 1.1//EN" "http://www.w3.org/Graphics/SVG/1.1/DTD/svg11.dtd">
<svg version="1.1" id="Layer_1" xmlns="http://www.w3.org/2000/svg" xmlns:xlink="http://www.w3.org/1999/xlink" x="0px" y="0px"
     width="136.914px" height="136.914px" viewBox="0 0 136.914 136.914" enable-background="new 0 0 136.914 136.914"
     xml:space="preserve">
<g>
	<g>
		<g>
			<circle fill="#344E5D" cx="68.457" cy="68.437" r="63.333"/>
		</g>
	</g>
	<g>
		<path fill="#4D8353" d="M68.454,131.811c26.934,0,49.926-16.822,59.082-40.525c-16.535-9.968-38.035-14.699-61.543-14.699
			c-21.617,0-41.535,4.004-57.459,12.398C17.06,113.894,40.657,131.811,68.454,131.811z"/>
	</g>
	<g>
		<g>
			<path fill="#91722F" d="M69.181,96.875l-0.082-68.669c0.018-0.318-0.229-0.591-0.547-0.606c-0.32-0.019-0.592,0.228-0.607,0.548
				l0.082,68.668c-0.018,0.317,0.229,0.591,0.547,0.608C68.894,97.439,69.165,97.194,69.181,96.875z"/>
		</g>
		<g>
			<path fill="#DCD478" d="M102.101,86.436c0,18.498-66.992,18.498-66.992,0c0-4.242,33.496-51.183,33.496-51.183
				S102.101,83.953,102.101,86.436z"/>
		</g>
		<g>
			<g>
				<path fill="#91722F" d="M69.411,72.035c-4.984,0-9.021,9.684-9.021,21.628c0,2.192,0.137,4.31,0.389,6.306
					c5.678,0.504,11.672,0.449,17.285-0.163c0.238-1.946,0.369-4.009,0.369-6.143C78.433,81.718,74.394,72.035,69.411,72.035z"/>
			</g>
		</g>
		<g>
			<g>
				<path fill="#795B25" d="M69.411,75.505c-4.373,0-7.916,8.494-7.916,18.973c0,1.924,0.121,3.78,0.344,5.531
					c4.98,0.443,10.24,0.396,15.162-0.143c0.211-1.709,0.324-3.516,0.324-5.389C77.325,84,73.782,75.505,69.411,75.505z"/>
			</g>
		</g>
		<g>
			<path fill="#91722F" d="M104.081,87.896L66.116,30.679c-0.164-0.276-0.516-0.367-0.793-0.205
				c-0.275,0.162-0.367,0.516-0.205,0.791l37.967,57.219c0.162,0.275,0.516,0.368,0.793,0.206
				C104.151,88.527,104.243,88.171,104.081,87.896z"/>
		</g>
		<g>
			<path fill="#91722F" d="M32.806,87.896l38.307-57.394c0.162-0.274,0.518-0.366,0.793-0.204s0.365,0.518,0.203,0.793
				L33.802,88.484c-0.16,0.275-0.516,0.368-0.791,0.206C32.735,88.527,32.644,88.171,32.806,87.896z"/>
		</g>
	</g>
	<g>
		<polygon fill="#D7DABA" points="102.134,35.141 103.149,38.263 106.431,38.263 103.774,40.192 104.79,43.313 102.134,41.383 
			99.479,43.313 100.493,40.192 97.839,38.263 101.12,38.263 		"/>
	</g>
	<g>
		<polygon fill="#D7DABA" points="86.364,24.077 87.067,26.24 89.341,26.24 87.501,27.576 88.204,29.738 86.364,28.402 
			84.524,29.738 85.228,27.576 83.388,26.24 85.661,26.24 		"/>
	</g>
	<g>
		<polygon fill="#D7DABA" points="102.507,56.498 103.21,58.662 105.483,58.662 103.644,59.998 104.347,62.16 102.507,60.824 
			100.667,62.16 101.37,59.998 99.53,58.662 101.804,58.662 		"/>
	</g>
</g>
</svg>
