<?xml version="1.0" encoding="utf-8"?>
<!-- Generator: Adobe Illustrator 16.0.0, SVG Export Plug-In . SVG Version: 6.00 Build 0)  -->
<!DOCTYPE svg PUBLIC "-//W3C//DTD SVG 1.1//EN" "http://www.w3.org/Graphics/SVG/1.1/DTD/svg11.dtd">
<svg version="1.1" id="Layer_1" xmlns="http://www.w3.org/2000/svg" xmlns:xlink="http://www.w3.org/1999/xlink" x="0px" y="0px"
     width="136.913px" height="136.914px" viewBox="0 0 136.913 136.914" enable-background="new 0 0 136.913 136.914"
     xml:space="preserve">
<g>
	<g>
		<g>
			<g>
				<g>
					<g>
						<circle fill="#F9C900" cx="68.456" cy="68.458" r="63.333"/>
					</g>
				</g>
			</g>
		</g>
	</g>
	<g>
		<g>
			<g>
				<g>
					<path fill="#EFCFA7" d="M69.813,24.554c-27.021,0-48.496,20.983-48.496,46.686c0,25.705,19.684,44.75,46.705,44.75
						s51.313-19.045,51.313-44.75C119.334,45.537,96.832,24.554,69.813,24.554z M68.021,89.75c-11.785,0-19.119-7.298-19.119-18.511
						c0-11.21,9.125-20.443,20.91-20.443s21.936,9.233,21.936,20.443C91.748,82.452,79.809,89.75,68.021,89.75z"/>
				</g>
			</g>
		</g>
		<g>
			<g>
				<g>
					<path fill="#AF5E27" d="M69.813,27.394c-25.373,0-45.514,19.712-45.514,43.846c0,24.138,18.35,41.914,43.723,41.914
						c25.375,0,48.33-17.776,48.33-41.914C116.352,47.105,95.186,27.394,69.813,27.394z M68.021,89.156
						c-11.441,0-18.494-7.032-18.494-17.917c0-10.883,8.844-19.852,20.285-19.852s21.313,8.969,21.313,19.852
						C91.125,82.124,79.463,89.156,68.021,89.156z"/>
				</g>
			</g>
		</g>
		<g>
			<g>
				<g>
					<path fill="#A46A28" d="M39.867,40.534c-17.811,17.811-18.111,45.784-1.17,62.724c16.943,16.941,42.299,16.539,60.109-1.269
						c17.813-17.812,21.447-46.403,4.506-63.345C86.369,21.703,57.678,22.725,39.867,40.534z M81.963,85.144
						c-8.029,8.029-17.918,8.047-25.557,0.407c-7.641-7.641-7.729-20.142,0.303-28.174c8.031-8.033,21.256-8.666,28.896-1.026
						C93.244,63.989,89.994,77.113,81.963,85.144z"/>
				</g>
			</g>
		</g>
		<g>
			<g>
				<g>
					<path fill="#BB6828" d="M33.697,86.217c9.756,23.217,34.551,34.487,55.428,25.714c20.877-8.772,29.195-32.026,19.439-55.246
						c-9.756-23.222-33.959-37.77-54.838-28.996C32.85,36.46,23.939,62.995,33.697,86.217z M87.807,65.406
						c4.4,10.47,1.031,19.482-8.383,23.438c-9.412,3.957-20.572-0.879-24.973-11.348c-4.402-10.472-0.439-22.766,8.975-26.724
						C72.842,46.816,83.408,54.935,87.807,65.406z"/>
				</g>
			</g>
		</g>
		<g>
			<g>
				<g>
					<g>
						<path fill="#AF5E27" d="M68.021,104.296c-18.492-1.842-32.951-14.251-34.139-34.574C32.641,48.46,48.604,33.127,68.416,33.127
							c20.377,0,39.773,17.817,39.773,37.998C108.189,90.188,89.387,104.296,68.021,104.296z M67.971,44.46
							c-13.93,0-23.725,11.239-23.422,25.262C44.861,84.234,54.375,94.9,68.416,94.9c12.887,0,30.443-10.221,28.441-24.221
							C94.908,57.028,82.223,44.46,67.971,44.46z"/>
					</g>
				</g>
			</g>
		</g>
		<g>
			<g>
				<g>
					<path fill="#85983A" d="M102.928,84.067c0,0.33-0.268,0.598-0.598,0.598l0,0c-0.33,0-0.598-0.268-0.598-0.598v-4.773
						c0-0.329,0.268-0.596,0.598-0.596l0,0c0.33,0,0.598,0.267,0.598,0.596V84.067z"/>
				</g>
			</g>
			<g>
				<g>
					<path fill="#E9683B" d="M92.088,45.584c0,0.329-0.266,0.595-0.598,0.595l0,0c-0.328,0-0.596-0.266-0.596-0.595v-4.773
						c0-0.33,0.268-0.599,0.596-0.599l0,0c0.332,0,0.598,0.269,0.598,0.599V45.584z"/>
				</g>
			</g>
			<g>
				<g>
					<path fill="#E54526" d="M46.543,50.756c0,0.327-0.268,0.596-0.598,0.596l0,0c-0.33,0-0.596-0.269-0.596-0.596V45.98
						c0-0.329,0.266-0.597,0.596-0.597l0,0c0.33,0,0.598,0.268,0.598,0.597V50.756z"/>
				</g>
			</g>
			<g>
				<g>
					<path fill="#E9683B" d="M46.145,98.09c0,0.33-0.268,0.597-0.598,0.597l0,0c-0.33,0-0.596-0.267-0.596-0.597v-4.774
						c0-0.327,0.266-0.596,0.596-0.596l0,0c0.33,0,0.598,0.269,0.598,0.596V98.09z"/>
				</g>
			</g>
			<g>
				<g>
					<path fill="#85983A" d="M75.58,106.046c0,0.328-0.268,0.596-0.596,0.596l0,0c-0.33,0-0.598-0.268-0.598-0.596v-4.773
						c0-0.33,0.268-0.599,0.598-0.599l0,0c0.328,0,0.596,0.269,0.596,0.599V106.046z"/>
				</g>
			</g>
		</g>
		<g>
			<g>
				<g>
					<path fill="#E0A925" d="M100.457,54.509c0.244,0.246,0.246,0.647,0,0.893l0,0c-0.248,0.247-0.648,0.247-0.895,0l-3.576-3.576
						c-0.246-0.245-0.246-0.645,0-0.893l0,0c0.246-0.247,0.648-0.247,0.895,0L100.457,54.509z"/>
				</g>
			</g>
			<g>
				<g>
					<path fill="#E0A925" d="M65.447,37.078c0.246,0.247,0.246,0.648,0,0.896l0,0c-0.246,0.248-0.646,0.246-0.893,0l-3.576-3.578
						c-0.246-0.244-0.246-0.646,0-0.892l0,0c0.246-0.246,0.646-0.246,0.893,0L65.447,37.078z"/>
				</g>
			</g>
			<g>
				<g>
					<path fill="#E0A925" d="M35.207,75.067c0.246,0.247,0.248,0.645,0,0.893l0,0c-0.248,0.246-0.648,0.246-0.895,0l-3.574-3.574
						c-0.246-0.248-0.246-0.648,0-0.895l0,0c0.246-0.248,0.646-0.248,0.893,0L35.207,75.067z"/>
				</g>
			</g>
			<g>
				<g>
					<path fill="#E0A925" d="M70.363,110.819c0.246,0.247,0.248,0.647,0,0.895l0,0c-0.248,0.246-0.646,0.246-0.895,0l-3.574-3.577
						c-0.246-0.245-0.246-0.645,0-0.893l0,0c0.248-0.247,0.648-0.247,0.893,0L70.363,110.819z"/>
				</g>
			</g>
			<g>
				<g>
					<path fill="#E0A925" d="M91.139,99.43c0.246,0.247,0.248,0.647,0,0.896l0,0c-0.246,0.245-0.646,0.244-0.893,0l-3.576-3.577
						c-0.246-0.247-0.246-0.648,0-0.893l0,0c0.248-0.248,0.648-0.248,0.895,0L91.139,99.43z"/>
				</g>
			</g>
		</g>
		<g>
			<g>
				<g>
					<path fill="#2CAEA1" d="M75.322,43.148c0.32-0.067,0.637,0.137,0.705,0.46l0,0c0.068,0.323-0.137,0.641-0.459,0.708
						l-4.672,0.984c-0.32,0.068-0.639-0.14-0.705-0.461l0,0c-0.068-0.323,0.137-0.641,0.459-0.706L75.322,43.148z"/>
				</g>
			</g>
			<g>
				<g>
					<path fill="#85983A" d="M43.49,61.85c0.322-0.067,0.639,0.139,0.707,0.462l0,0c0.07,0.322-0.139,0.639-0.459,0.707
						l-4.674,0.983c-0.32,0.07-0.639-0.138-0.705-0.459l0,0c-0.068-0.322,0.137-0.64,0.459-0.707L43.49,61.85z"/>
				</g>
			</g>
			<g>
				<g>
					<path fill="#2CAEA1" d="M57.943,105.349c0.322-0.067,0.641,0.138,0.709,0.461l0,0c0.066,0.322-0.141,0.641-0.463,0.709
						l-4.668,0.982c-0.324,0.07-0.639-0.137-0.709-0.46l0,0c-0.068-0.323,0.139-0.64,0.461-0.707L57.943,105.349z"/>
				</g>
			</g>
			<g>
				<g>
					<path fill="#E54526" d="M104.344,95.975c0.32-0.065,0.639,0.139,0.705,0.462l0,0c0.07,0.322-0.137,0.639-0.459,0.707
						l-4.672,0.983c-0.32,0.068-0.637-0.137-0.707-0.459l0,0c-0.066-0.323,0.141-0.64,0.461-0.709L104.344,95.975z"/>
				</g>
			</g>
			<g>
				<g>
					<path fill="#2CAEA1" d="M106.057,65.532c0.322-0.068,0.639,0.137,0.707,0.462l0,0c0.068,0.321-0.139,0.638-0.461,0.705
						l-4.67,0.985c-0.324,0.066-0.641-0.137-0.707-0.463l0,0c-0.068-0.322,0.137-0.638,0.461-0.705L106.057,65.532z"/>
				</g>
			</g>
		</g>
	</g>
</g>
</svg>
