<?xml version="1.0" encoding="utf-8"?>
<!-- Generator: Adobe Illustrator 16.0.0, SVG Export Plug-In . SVG Version: 6.00 Build 0)  -->
<!DOCTYPE svg PUBLIC "-//W3C//DTD SVG 1.1//EN" "http://www.w3.org/Graphics/SVG/1.1/DTD/svg11.dtd">
<svg version="1.1" id="Layer_1" xmlns="http://www.w3.org/2000/svg" xmlns:xlink="http://www.w3.org/1999/xlink" x="0px" y="0px"
     width="136.914px" height="136.913px" viewBox="0 0 136.914 136.913" enable-background="new 0 0 136.914 136.913"
     xml:space="preserve">
<g>
	<g>
		<g>
			<circle fill="#EDC92C" cx="68.457" cy="68.455" r="63.333"/>
		</g>
	</g>
	<g>
		<g>
			<g>
				<polygon fill="#5B4F3F" points="93.334,41.182 93.334,38.424 38.744,38.424 38.744,41.182 38.744,103.791 93.334,103.791 				
					"/>
				<path fill="#82725A" d="M38.744,82.127h54.59V63.018h-54.59V82.127z M55.274,71.449h21.527v5.045h-2.729l-0.001-2.314H58.005
					v2.479h-2.73V71.449z M38.744,103.791h54.59V84.686h-54.59V103.791z M55.274,93.111h21.527v5.051h-2.729l-0.001-2.316H58.005
					v2.48h-2.73V93.111z M93.344,35.771H38.747v2.682h54.597V35.771z"/>
			</g>
			<g>
				<polygon fill="#5B4F3F" points="93.312,41.232 93.312,38.475 99.644,32.686 99.644,35.443 99.644,98.053 93.312,103.844 				"/>
				<path fill="#7B6854" d="M99.679,35.391v19.107l-6.333,5.791V41.182L99.679,35.391z M99.679,76.336l-6.333,5.791V63.018
					l6.333-5.791V76.336z M99.679,98l-6.333,5.791V84.686l6.333-5.791V98z M93.344,35.771l6.333-5.789v2.68l-6.333,5.791V35.771z"/>
			</g>
			<polygon fill="#9A866F" points="99.677,29.982 45.111,29.982 38.747,35.771 93.344,35.771 			"/>
		</g>
		<g>
			<polygon fill="#7B6854" points="38.813,41.045 38.813,60.15 31.928,66.492 31.928,47.385 			"/>
		</g>
		<rect x="38.813" y="41.045" fill="#473D2E" width="54.386" height="19.105"/>
		<g>
			<rect x="31.713" y="47.248" fill="#82725A" width="54.591" height="19.107"/>
			<polygon fill="#5B4F3F" points="69.771,60.725 67.043,60.725 67.041,58.41 50.974,58.41 50.974,60.887 48.244,60.887 
				48.244,55.678 69.771,55.678 			"/>
		</g>
		<g>
			<polygon fill="#7B6854" points="93.198,41.045 93.198,60.15 86.314,66.492 86.314,47.385 			"/>
		</g>
	</g>
</g>
</svg>
