<?xml version="1.0" encoding="utf-8"?>
<!-- Generator: Adobe Illustrator 16.0.0, SVG Export Plug-In . SVG Version: 6.00 Build 0)  -->
<!DOCTYPE svg PUBLIC "-//W3C//DTD SVG 1.1//EN" "http://www.w3.org/Graphics/SVG/1.1/DTD/svg11.dtd">
<svg version="1.1" id="Layer_1" xmlns="http://www.w3.org/2000/svg" xmlns:xlink="http://www.w3.org/1999/xlink" x="0px" y="0px"
     width="136.914px" height="136.914px" viewBox="0 0 136.914 136.914" enable-background="new 0 0 136.914 136.914"
     xml:space="preserve">
<g>
	<g>
		<circle fill="#357180" cx="68.457" cy="68.457" r="63.333"/>
	</g>
	<g>
		<g>
			<path fill="#C0C0C0" d="M68.624,43.78c8.77,0,16.683,3.647,22.321,9.5H76.624h-3.411c-1.482-0.316-3.013-0.5-4.589-0.5
				c-12.15,0-22,9.85-22,22s9.85,22,22,22c9.888,0,18.251-6.523,21.022-15.5h9.289c-2.987,14-15.42,24.5-30.312,24.5
				c-17.121,0-31-13.879-31-31S51.502,43.78,68.624,43.78z"/>
		</g>
		<g>
			<path fill="#A5A9B6" d="M81.845,68.003c1.21,1.384,3.061,1.74,4.135,0.8l9.558-8.372c1.073-0.939,0.964-2.822-0.247-4.203
				L63.068,19.255c-1.209-1.381-3.061-1.739-4.133-0.799l-9.559,8.371c-1.074,0.941-0.963,2.821,0.247,4.203L81.845,68.003z"/>
			<path fill="#A5A9B6" d="M86.626,69.102c0.836,0.955,2.117,1.203,2.859,0.553l6.609-5.789c0.742-0.65,0.666-1.951-0.171-2.907
				L69.111,30.346c-0.838-0.955-2.117-1.203-2.859-0.553l-6.609,5.788c-0.742,0.651-0.666,1.951,0.171,2.907L86.626,69.102z"/>
			<path fill="#A5A9B6" d="M93.191,71.354c0.244,0.277,0.713,0.266,1.047-0.025l2.971-2.604c0.334-0.292,0.407-0.755,0.162-1.033
				l-7.824-8.934c-0.244-0.279-0.713-0.269-1.047,0.023l-2.971,2.604c-0.335,0.293-0.408,0.754-0.163,1.033L93.191,71.354z"/>
			<path fill="#A5A9B6" d="M64.888,40.702c0.498,0.568,1.26,0.717,1.702,0.329l3.935-3.446c0.441-0.387,0.396-1.162-0.102-1.73
				L54.46,17.631c-0.498-0.569-1.26-0.716-1.701-0.328l-3.936,3.444c-0.441,0.39-0.396,1.162,0.102,1.73L64.888,40.702z"/>
			<circle fill="#DBDDE1" cx="64.291" cy="48.78" r="7.334"/>
			<circle fill="#A5A9B6" cx="64.291" cy="48.78" r="4.074"/>
		</g>
		<path fill="#A5A9B6" d="M78.624,80.03c0,1.242,1.007,2.25,2.25,2.25h27.5c1.243,0,2.25-1.008,2.25-2.25l0,0
			c0-1.242-1.007-2.25-2.25-2.25h-27.5C79.63,77.78,78.624,78.788,78.624,80.03L78.624,80.03z"/>
		<path fill="#C0C0C0" d="M41.291,108.03c0,2.096,1.699,3.797,3.797,3.797h46.406c2.097,0,3.797-1.701,3.797-3.797l0,0
			c0-2.096-1.7-3.797-3.797-3.797H45.087C42.99,104.233,41.291,105.935,41.291,108.03L41.291,108.03z"/>
		<path fill="#C0C0C0" d="M61.374,97.78h14.5c4.004,0,7.25,2.426,7.25,5.416c0,2.992-3.246,5.417-7.25,5.417h-14.5
			c-4.004,0-7.25-2.425-7.25-5.417C54.124,100.206,57.37,97.78,61.374,97.78z"/>
	</g>
</g>
</svg>
