<?xml version="1.0" encoding="utf-8"?>
<!-- Generator: Adobe Illustrator 16.0.0, SVG Export Plug-In . SVG Version: 6.00 Build 0)  -->
<!DOCTYPE svg PUBLIC "-//W3C//DTD SVG 1.1//EN" "http://www.w3.org/Graphics/SVG/1.1/DTD/svg11.dtd">
<svg version="1.1" id="Layer_1" xmlns="http://www.w3.org/2000/svg" xmlns:xlink="http://www.w3.org/1999/xlink" x="0px" y="0px"
     width="136.913px" height="136.914px" viewBox="0 0 136.913 136.914" enable-background="new 0 0 136.913 136.914"
     xml:space="preserve">
<g>
	<g>
		<g>
			<g>
				<circle fill="#3CB881" cx="68.457" cy="68.457" r="63.333"/>
			</g>
		</g>
	</g>
	<g>
		<g>
			<g>
				<path fill="#767676" d="M108.581,60.245c-5.926-21.241-13.766-26.68-21.002-24.661c-1.744,0.486-3.293,1.368-4.559,2.715
					c-3.516,1.058-8.213,2.153-12.6,2.153c-4.676,0-9.705-1.244-13.277-2.36c-1.324-1.563-2.99-2.561-4.893-3.093
					c-7.236-2.019-15.076,3.421-21.002,24.662c-5.926,21.24-4.863,40.095,2.371,42.115c5.996,1.672,15.221-6.987,21.279-22.683
					c3.232-0.99,9.465-3.833,14.938-3.833c4.932,0,11.162,0.461,15.064,1.5c7.129,16.345,15.5,26.387,21.609,24.682
					C113.747,99.422,114.507,81.487,108.581,60.245z"/>
				<path fill="#ECECEC" d="M108.581,58.49c-5.926-21.241-13.766-26.681-21.002-24.661c-1.744,0.487-3.293,1.367-4.559,2.715
					c-3.516,1.059-8.213,2.153-12.6,2.153c-4.676,0-9.705-1.244-13.277-2.361c-1.324-1.562-2.99-2.561-4.893-3.092
					c-7.236-2.019-15.076,3.421-21.002,24.662s-4.863,40.096,2.371,42.115c5.996,1.672,14.344-8.742,20.402-24.438
					c3.232-0.99,10.342-2.955,15.814-2.955c4.932,0,11.721,1.596,15.623,2.635c6.082,16.202,14.641,27.046,20.748,25.343
					C113.444,98.586,114.507,79.731,108.581,58.49z"/>
				<g>
					<g>
						<ellipse fill="#E1E1E1" cx="47.386" cy="46.65" rx="5.777" ry="6.308"/>
						<circle fill="#818282" cx="47.386" cy="46.376" r="5.191"/>
						<circle fill="#4D4D4D" cx="47.385" cy="46.376" r="3.876"/>
					</g>
					<g>
						<ellipse fill="#E1E1E1" cx="59.744" cy="62.316" rx="8.483" ry="8.85"/>
						<g>
							<defs>
								<circle id="SVGID_13_" cx="59.671" cy="61.733" r="7.605"/>
							</defs>
							<clipPath id="SVGID_1_">
								<use xlink:href="#SVGID_13_"  overflow="visible"/>
							</clipPath>
							<g clip-path="url(#SVGID_1_)">
								<g>
									<path fill="#636463" d="M52.538,64.351c0.793,2.163,2.537,3.864,4.73,4.595v-4.595H52.538z"/>
									<path fill="#636463" d="M62.187,68.904c2.141-0.75,3.838-2.428,4.619-4.554h-4.619V68.904z"/>
									<path fill="#636463" d="M57.269,54.521c-2.318,0.772-4.143,2.626-4.865,4.967h4.865V54.521z"/>
									<path fill="#636463" d="M66.938,59.488c-0.711-2.303-2.488-4.132-4.752-4.926v4.926H66.938z"/>
									<path fill="#4D4D4D" d="M66.938,59.488h-4.752v-4.926c-0.789-0.276-1.633-0.435-2.516-0.435
										c-0.84,0-1.646,0.142-2.402,0.394v4.967h-4.865c-0.219,0.71-0.338,1.464-0.338,2.245c0,0.921,0.172,1.8,0.473,2.617h4.73
										v4.595c0.756,0.252,1.563,0.394,2.402,0.394c0.883,0,1.727-0.158,2.516-0.435v-4.554h4.619
										c0.299-0.817,0.471-1.696,0.471-2.617C67.276,60.952,67.157,60.198,66.938,59.488z"/>
								</g>
								
									<rect x="55.379" y="57.661" transform="matrix(-0.7072 -0.707 0.707 -0.7072 58.064 147.9544)" fill="#4D4D4D" width="8.584" height="8.584"/>
							</g>
						</g>
					</g>
					<g>
						<g>
							<ellipse fill="#E1E1E1" cx="82.194" cy="64.438" rx="5.777" ry="6.582"/>
							<circle fill="#818282" cx="82.268" cy="64.146" r="5.192"/>
						</g>
						<circle fill="#4D4D4D" cx="82.269" cy="64.146" r="3.875"/>
					</g>
					<g>
						<circle fill="#B2B2B2" cx="77.771" cy="47.144" r="1.486"/>
						<circle fill="#B2B2B2" cx="62.742" cy="47.144" r="1.485"/>
						<circle fill="#767676" cx="70.421" cy="47.254" r="4.314"/>
						<g>
							<defs>
								<circle id="SVGID_15_" cx="70.422" cy="47.254" r="3.876"/>
							</defs>
							<clipPath id="SVGID_2_">
								<use xlink:href="#SVGID_15_"  overflow="visible"/>
							</clipPath>
							<g clip-path="url(#SVGID_2_)">
								<path fill="#B2B2B2" d="M67.901,44.332c-0.824,0.71-1.355,1.748-1.355,2.922c0,0.739,0.219,1.423,0.578,2.011l2.447-2.926
									L67.901,44.332z"/>
								<path fill="#B2B2B2" d="M70.513,45.251c0.277-0.338,0.523-0.631,0.742-0.88l0.6-0.711c-0.445-0.178-0.926-0.281-1.434-0.281
									c-0.412,0-0.803,0.082-1.174,0.201l0.59,0.764C70.11,44.693,70.335,44.997,70.513,45.251z"/>
								<path fill="#B2B2B2" d="M73.833,49.057c0.287-0.541,0.465-1.148,0.465-1.803c0-1.112-0.475-2.108-1.227-2.814l-1.58,1.808
									L73.833,49.057z"/>
								<path fill="#B2B2B2" d="M70.573,47.341l-2.418,3.045c0.639,0.463,1.418,0.743,2.266,0.743c0.924,0,1.76-0.336,2.424-0.874
									l-1.758-2.235L70.573,47.341z"/>
								<path fill="#81C681" d="M73.833,49.057l-2.342-2.81l1.58-1.808c-0.352-0.331-0.762-0.598-1.217-0.779l-0.6,0.711
									c-0.219,0.249-0.465,0.542-0.742,0.88c-0.178-0.254-0.402-0.558-0.676-0.907l-0.59-0.764
									c-0.502,0.16-0.957,0.416-1.346,0.752l1.67,2.007l-2.447,2.926c0.268,0.439,0.617,0.82,1.031,1.121l2.418-3.045l0.514,0.679
									l1.758,2.235C73.251,49.927,73.587,49.521,73.833,49.057z"/>
							</g>
						</g>
					</g>
					<g>
						<g>
							<circle fill="#357180" cx="86.218" cy="47.254" r="2.56"/>
							<g>
								<path fill="#265E67" d="M84.581,45.679h1.064l0.555,0.963l0.539-0.963h1.055l-0.975,1.516l1.066,1.613h-1.088l-0.617-1.006
									l-0.617,1.006h-1.082l1.08-1.63L84.581,45.679z"/>
							</g>
						</g>
						<g>
							<circle fill="#E79E2D" cx="91.482" cy="41.988" r="2.56"/>
							<path fill="#AC782B" d="M89.896,40.692h3.406l-1.219,1.819v1.311h-0.969v-1.311L89.896,40.692z"/>
						</g>
						<g>
							<circle fill="#E84849" cx="96.749" cy="47.254" r="2.56"/>
							<path fill="#B03738" d="M95.548,45.666h1.811c0.303,0,0.533,0.073,0.695,0.223s0.242,0.335,0.242,0.556
								c0,0.185-0.057,0.343-0.174,0.476c-0.076,0.088-0.188,0.157-0.336,0.209c0.225,0.055,0.391,0.147,0.496,0.279
								c0.105,0.131,0.158,0.296,0.158,0.496c0,0.161-0.037,0.308-0.113,0.438c-0.074,0.13-0.178,0.231-0.309,0.308
								c-0.082,0.046-0.203,0.081-0.367,0.103c-0.217,0.028-0.363,0.042-0.434,0.042h-1.67V45.666z"/>
						</g>
						<g>
							<circle fill="#2F8442" cx="91.482" cy="52.519" r="2.56"/>
							<path fill="#256533" d="M92.067,53.323H90.97l-0.152,0.517h-0.988l1.178-3.129h1.055l1.176,3.129h-1.014L92.067,53.323z"/>
						</g>
					</g>
				</g>
			</g>
		</g>
	</g>
</g>
</svg>
