<?xml version="1.0" encoding="utf-8"?>
<!-- Generator: Adobe Illustrator 16.0.0, SVG Export Plug-In . SVG Version: 6.00 Build 0)  -->
<!DOCTYPE svg PUBLIC "-//W3C//DTD SVG 1.1//EN" "http://www.w3.org/Graphics/SVG/1.1/DTD/svg11.dtd">
<svg version="1.1" id="Layer_1" xmlns="http://www.w3.org/2000/svg" xmlns:xlink="http://www.w3.org/1999/xlink" x="0px" y="0px"
     width="136.912px" height="136.913px" viewBox="0 0 136.912 136.913" enable-background="new 0 0 136.912 136.913"
     xml:space="preserve">
<g>
	<g>
		<g>
			<g>
				<g>
					<g>
						<path fill="#D7DABA" d="M5.12,68.458c0-34.982,28.355-63.336,63.336-63.336c34.979,0,63.334,28.354,63.334,63.336
							c0,34.979-28.355,63.334-63.334,63.334C33.476,131.792,5.12,103.437,5.12,68.458z"/>
					</g>
				</g>
			</g>
		</g>
	</g>
	<g>
		<g>
			<path fill="#E84849" d="M88.015,53.192c0,0,12.758-6.15,19.32-5.729l-5.514,5.758l5.137,1.303l-4.672,3.928l11.061,3.033
				c-1.41,3.891-19.705,7.021-19.705,7.021L88.015,53.192z"/>
		</g>
		<g>
			<path fill="#E84849" d="M49.347,53.192c0,0-12.756-6.15-19.32-5.729l5.514,5.758l-5.135,1.303l4.67,3.928l-11.061,3.033
				c1.412,3.891,19.707,7.021,19.707,7.021L49.347,53.192z"/>
		</g>
		<g>
			<path fill="#E84849" d="M41.173,64.827c0,0-13.891,2.758-18.883,7.041l7.871,1.285l-3.32,4.129l6.094,0.328l-7.012,9.076
				c3.467,2.262,19.965-6.244,19.965-6.244L41.173,64.827z"/>
		</g>
		<g>
			<path fill="#E84849" d="M95.005,64.827c0,0,13.891,2.758,18.883,7.041l-7.869,1.285l3.32,4.129l-6.096,0.328l7.014,9.076
				c-3.469,2.262-19.967-6.244-19.967-6.244L95.005,64.827z"/>
		</g>
		<g>
			<g>
				<g>
					<path fill="#E9C29C" d="M98.542,75.974c0,16.615-13.465,30.08-30.078,30.08c-16.615,0-30.08-13.465-30.08-30.08
						c0-16.611,13.465-30.078,30.08-30.078C85.077,45.896,98.542,59.362,98.542,75.974z"/>
				</g>
			</g>
		</g>
		<g>
			<g>
				<path fill="#F8D648" d="M88.337,45.987c-1.627-6.389-39.25-6.389-40.877,0c-0.037-0.141-0.063-0.285-0.063-0.432v0.863v7.283
					v0.865c0-0.146,0.025-0.291,0.063-0.432c1.627,6.389,39.25,6.389,40.877,0c0.037,0.141,0.061,0.285,0.061,0.432v-0.865v-7.283
					v-0.863C88.397,45.702,88.374,45.847,88.337,45.987z"/>
			</g>
			<g>
				<path fill="#F8D648" d="M84.909,47.565c0,5.781-34.021,5.781-34.021,0v-9.158c0-5.781,4.688-10.469,10.467-10.469H74.44
					c5.781,0,10.469,4.688,10.469,10.469V47.565z"/>
			</g>
			<g>
				<g>
					<path fill="#9F77AA" d="M50.888,40.806v6.76c0,5.781,34.021,5.781,34.021,0v-6.76C84.909,46.587,50.888,46.587,50.888,40.806z"
						/>
				</g>
			</g>
		</g>
		<g>
			<g>
				<path fill="#FFFFFF" d="M54.772,72.126c0-0.076,0.033-2.186,0.047-2.258c0.236-2.537,2.242-4.529,4.707-4.529
					c2.463,0,4.465,1.992,4.701,4.531c0.014,0.07,0.047,2.18,0.047,2.256c0,0.047-0.012,0.092-0.014,0.139
					c0.002,0.047,0.014,0.09,0.014,0.139c0,0.076-0.033,2.777-0.047,2.852c-0.236,2.537-2.242,4.529-4.707,4.529
					c-2.463,0-4.465-1.992-4.701-4.529c-0.014-0.074-0.047-2.777-0.047-2.852c0-0.049,0.012-0.092,0.014-0.139
					C54.784,72.218,54.772,72.173,54.772,72.126z"/>
			</g>
			<g>
				<ellipse fill="#343433" cx="59.448" cy="74.819" rx="4.121" ry="4.354"/>
			</g>
			<g>
				<path fill="#FFFFFF" d="M62.339,73.171c0,0.959-0.736,1.74-1.65,1.74c-0.908,0-1.645-0.781-1.645-1.74
					c0-0.963,0.736-1.742,1.645-1.742C61.603,71.429,62.339,72.208,62.339,73.171z"/>
			</g>
			<g>
				<path fill="#E84849" d="M63.933,66.712c-0.34-1.287-1.076-2.471-2.271-3.359c-0.307-0.211-0.645-0.41-1.031-0.545
					c-0.191-0.064-0.395-0.113-0.604-0.15c-0.203-0.027-0.324-0.051-0.523-0.07c-0.744-0.09-1.492-0.064-2.26,0.127
					c-0.768,0.18-1.496,0.609-2.02,1.164c-0.541,0.545-0.865,1.191-1.115,1.82c-0.471,1.275-0.635,2.553-0.676,3.848
					c0.592-1.164,1.064-2.363,1.699-3.398c0.621-1.057,1.436-1.799,2.488-2.016c0.525-0.119,1.129-0.113,1.705-0.078
					c0.135,0.008,0.342,0.037,0.467,0.049c0.121,0.018,0.242,0.037,0.365,0.074c0.246,0.064,0.506,0.154,0.758,0.285
					C61.948,64.978,62.909,65.835,63.933,66.712z"/>
			</g>
		</g>
		<g>
			<path fill="#E84849" d="M79.774,82.569c-1.199,0-3.168,0.969-4.672,1.9c-1.678-1.621-3.881-2.672-6.324-2.861
				c-0.117-0.008-1.016-0.008-1.133,0c-2.443,0.189-4.646,1.24-6.324,2.861c-1.504-0.932-3.475-1.9-4.672-1.9
				c-3.998,0-7.236,3.313-7.236,7.398c0,4.09,4.154,6.199,7.432,6.799c3.105,0.568,0.828,6.002,11.146,6.002
				c0.074,0,0.365,0,0.439,0c8.215,0,8.088-5.219,11.148-6.002c3.129-0.801,7.432-2.709,7.432-6.799
				C87.011,85.882,83.771,82.569,79.774,82.569z"/>
		</g>
		<g>
			<path fill="#FFFFFF" d="M79.142,83.296c-1.133,0-2.994,0.896-4.416,1.758c-1.586-1.498-3.67-2.471-5.979-2.645
				c-0.111-0.008-0.959-0.008-1.07,0c-2.311,0.174-4.393,1.146-5.979,2.645c-1.422-0.861-3.283-1.758-4.416-1.758
				c-3.779,0-6.842,3.063-6.842,6.84c0,3.779,3.928,5.73,7.025,6.285c2.936,0.525,0.783,5.547,10.537,5.547c0.07,0,0.346,0,0.416,0
				c7.764,0,7.645-4.824,10.537-5.547c2.959-0.74,7.025-2.506,7.025-6.285C85.981,86.358,82.919,83.296,79.142,83.296z"/>
		</g>
		<g>
			<g>
				<g>
					<circle fill="#E84849" cx="60.211" cy="91.171" r="1.979"/>
				</g>
				<g>
					<circle fill="#E84849" cx="75.648" cy="91.171" r="1.979"/>
				</g>
			</g>
			<g>
				<g>
					<path fill="#E84849" d="M68.454,95.905c-3.721,0-7.082-1.873-8.918-3.48c-0.625-0.545-0.688-1.494-0.143-2.117
						c0.545-0.621,1.492-0.686,2.115-0.143c0.307,0.264,7.047,5.959,12.818,0.08c0.582-0.592,1.531-0.602,2.121-0.02
						c0.592,0.58,0.6,1.531,0.02,2.121C73.892,94.97,71.083,95.905,68.454,95.905z"/>
				</g>
			</g>
		</g>
		<g>
			<circle fill="#E84849" cx="68.398" cy="82.671" r="6.167"/>
		</g>
		<g>
			<circle fill="#FFFFFF" cx="65.898" cy="79.796" r="1.167"/>
		</g>
		<g>
			<g>
				<path fill="#E84849" d="M72.899,66.712c0.338-1.287,1.074-2.471,2.27-3.359c0.307-0.211,0.646-0.41,1.031-0.545
					c0.191-0.064,0.396-0.113,0.604-0.15c0.205-0.027,0.326-0.051,0.523-0.07c0.744-0.09,1.492-0.064,2.26,0.127
					c0.768,0.18,1.498,0.609,2.02,1.164c0.541,0.545,0.867,1.191,1.115,1.82c0.471,1.275,0.637,2.553,0.678,3.848
					c-0.592-1.164-1.064-2.363-1.699-3.398c-0.621-1.057-1.436-1.799-2.49-2.016c-0.525-0.119-1.127-0.113-1.705-0.078
					c-0.133,0.008-0.34,0.037-0.467,0.049c-0.119,0.018-0.24,0.037-0.363,0.074c-0.246,0.064-0.506,0.154-0.76,0.285
					C74.884,64.978,73.921,65.835,72.899,66.712z"/>
			</g>
			<g>
				<g>
					<path fill="#FFFFFF" d="M82.058,72.126c0-0.076-0.033-2.186-0.047-2.258c-0.236-2.537-2.24-4.529-4.705-4.529
						s-4.467,1.992-4.701,4.531c-0.016,0.07-0.047,2.18-0.047,2.256c0,0.047,0.012,0.092,0.012,0.139s-0.012,0.09-0.012,0.139
						c0,0.076,0.033,2.777,0.047,2.852c0.236,2.537,2.24,4.529,4.705,4.529c2.463,0,4.465-1.992,4.701-4.529
						c0.014-0.074,0.047-2.777,0.047-2.852c0-0.049-0.012-0.092-0.014-0.139C82.046,72.218,82.058,72.173,82.058,72.126z"/>
				</g>
				<g>
					<ellipse fill="#343433" cx="77.308" cy="74.819" rx="4.121" ry="4.354"/>
				</g>
				<g>
					<path fill="#FFFFFF" d="M80.241,73.171c0,0.959-0.736,1.74-1.648,1.74c-0.906,0-1.645-0.781-1.645-1.74
						c0-0.963,0.738-1.742,1.645-1.742C79.505,71.429,80.241,72.208,80.241,73.171z"/>
				</g>
			</g>
		</g>
	</g>
</g>
</svg>
