<?xml version="1.0" encoding="utf-8"?>
<!-- Generator: Adobe Illustrator 16.0.0, SVG Export Plug-In . SVG Version: 6.00 Build 0)  -->
<!DOCTYPE svg PUBLIC "-//W3C//DTD SVG 1.1//EN" "http://www.w3.org/Graphics/SVG/1.1/DTD/svg11.dtd">
<svg version="1.1" id="Layer_1" xmlns="http://www.w3.org/2000/svg" xmlns:xlink="http://www.w3.org/1999/xlink" x="0px" y="0px"
     width="136.914px" height="136.913px" viewBox="0 0 136.914 136.913" enable-background="new 0 0 136.914 136.913"
     xml:space="preserve">
<g>
	<g>
		<g>
			<path fill="#A2D4DE" d="M5.125,68.457c0-34.981,28.355-63.335,63.334-63.335c34.977,0,63.332,28.354,63.332,63.335
				c0,34.976-28.355,63.333-63.332,63.333C33.48,131.79,5.125,103.433,5.125,68.457z"/>
		</g>
	</g>
	<g>
		<path fill="#A2D4DE" d="M128.229,89.401c2.299-6.559,3.563-13.604,3.563-20.944c0-34.981-28.355-63.335-63.332-63.335
			c-34.979,0-63.334,28.354-63.334,63.335c0,7.897,1.459,15.452,4.1,22.425c16.436-9.67,37.648-14.266,60.811-14.266
			C91.986,76.616,112.188,80.741,128.229,89.401z"/>
		<path fill="#D3E9D0" d="M68.459,131.79c27.633,0,51.121-17.707,59.77-42.389c-16.041-8.66-36.242-12.785-58.193-12.785
			c-23.162,0-44.375,4.596-60.811,14.266C18.281,114.788,41.379,131.79,68.459,131.79z"/>
	</g>
	<g>
		<circle fill="#E8F5F4" cx="70.203" cy="67.283" r="21"/>
		<circle fill="#E8F5F4" cx="70.202" cy="45.95" r="16.667"/>
		<circle fill="#E8F5F4" cx="70.202" cy="91.284" r="29.001"/>
		<g>
			<path fill="#F6A2A3" d="M85.385,52.8c-2.615,5.785-8.422,9.816-15.182,9.816c-6.762,0-12.568-4.031-15.184-9.816
				c0,0-1.402,0.502-2.338,1.504c-0.875,0.938-0.383,2.025-0.383,2.025c-0.58,1.754,8.232,10.399,17.566,10.45
				c9.576,0.053,19.295-8.708,18.328-10.306c0,0-0.137-1.295-0.949-2.107C86.494,53.616,85.385,52.8,85.385,52.8z"/>
		</g>
		<path fill="#F6A2A3" d="M87.119,81.179c0,0-0.875,0.875-2.375,0.875s-2.375-0.875-2.375-0.875s1-8.561,1-14.06
			c0-5.503-1.104-9.669-1.104-9.669s1.02-1.041,1.645-2.021c0.73-1.229,1.475-2.629,1.475-2.629s1.338,2.463,1.734,4.129
			c0.396,1.668,1,5.188,1,10.688C88.119,73.116,87.119,81.179,87.119,81.179z"/>
		<circle fill="#717171" cx="78.119" cy="43.866" r="2.75"/>
		<circle fill="#664219" cx="70.203" cy="72.937" r="3.281"/>
		<circle fill="#664219" cx="70.203" cy="84.218" r="3.281"/>
		<circle fill="#664219" cx="70.203" cy="94.63" r="3.281"/>
		<circle fill="#E59C31" cx="70.201" cy="51.284" r="2.75"/>
		<polygon fill="#E59C31" points="67.869,50.2 65.619,55.7 65.953,56.45 71.285,53.784 72.703,50.116 		"/>
		<circle fill="#EDB04E" cx="65.953" cy="55.95" r="0.5"/>
		<g>
			<path fill="#717171" d="M85.203,30.616c0,1.842-1.492,3.334-3.334,3.334h-24c-1.842,0-3.334-1.492-3.334-3.334l0,0
				c0-1.84,1.492-3.332,3.334-3.332h24C83.711,27.284,85.203,28.776,85.203,30.616L85.203,30.616z"/>
			<path fill="#717171" d="M70.535,30.616c-4.486,0-8.125-0.957-8.125-2.137V13.087c0-1.18,3.639-2.137,8.125-2.137l0,0
				c4.486,0,8.125,0.957,8.125,2.137v15.393C78.66,29.659,75.021,30.616,70.535,30.616L70.535,30.616z"/>
		</g>
		<circle fill="#717171" cx="63.119" cy="43.866" r="2.75"/>
	</g>
	<path fill-rule="evenodd" clip-rule="evenodd" fill="#FFFFFF" d="M37.389,81.976l-0.658-1.141h-2.912l1.271-2.201l-0.662-1.143
		h-1.318l-1.928,3.344h-4.313l2.156-3.738h3.857l0.658-1.141l-0.658-1.139h-2.541l1.455-2.527l-0.656-1.141h-1.318l-1.455,2.521
		l-1.273-2.197h-1.314l-0.662,1.141l1.93,3.342l-2.156,3.736l-2.158-3.736l1.928-3.342l-0.656-1.141h-1.318l-1.271,2.197
		l-1.457-2.521h-1.316l-0.66,1.141l1.457,2.527h-2.541l-0.658,1.139l0.658,1.141h3.859l2.158,3.738h-4.318l-1.928-3.344h-1.316
		l-0.66,1.143l1.27,2.201h-2.912l-0.66,1.141l0.66,1.141h2.912l-1.27,2.199l0.66,1.143h1.316l1.928-3.342h4.318l-2.158,3.736h-3.859
		l-0.658,1.141l0.658,1.143h2.541l-1.457,2.521l0.66,1.143h1.316l1.457-2.523l1.271,2.201h1.318l0.656-1.143l-1.928-3.342
		l2.158-3.734l2.156,3.734l-1.928,3.342l0.66,1.143h1.314l1.273-2.199l1.455,2.521h1.318l0.656-1.143l-1.455-2.521h2.541
		l0.658-1.143l-0.658-1.141h-3.857l-2.156-3.736h4.313l1.928,3.342h1.318l0.662-1.143l-1.271-2.199h2.912L37.389,81.976z"/>
</g>
</svg>
