<?xml version="1.0" encoding="utf-8"?>
<!-- Generator: Adobe Illustrator 16.0.0, SVG Export Plug-In . SVG Version: 6.00 Build 0)  -->
<!DOCTYPE svg PUBLIC "-//W3C//DTD SVG 1.1//EN" "http://www.w3.org/Graphics/SVG/1.1/DTD/svg11.dtd">
<svg version="1.1" id="Layer_1" xmlns="http://www.w3.org/2000/svg" xmlns:xlink="http://www.w3.org/1999/xlink" x="0px" y="0px"
     width="136.914px" height="136.913px" viewBox="0 0 136.914 136.913" enable-background="new 0 0 136.914 136.913"
     xml:space="preserve">
<g>
	<g>
		<g>
			<circle fill="#A0D2DC" cx="68.458" cy="68.438" r="63.333"/>
		</g>
	</g>
	<g>
		<path fill="#F5F3E2" d="M68.416,131.808c26.934,0,49.926-16.822,59.082-40.525c-16.535-9.967-38.035-14.697-61.543-14.697
			c-21.617,0-41.535,4.002-57.459,12.396C17.021,113.892,40.619,131.808,68.416,131.808z"/>
	</g>
	<g>
		<g>
			<path fill="#F5F6F7" d="M67.426,55.099c0,0,26.217-6.02,36.725,3.832l-4.596,26.49c0,0-11.57,5.088-29.756-2.492
				C51.611,75.349,67.426,55.099,67.426,55.099z"/>
		</g>
		<g>
			<path fill="#EFEFEF" d="M67.426,55.099c0,0,26.217-6.02,36.725,3.832l-1.895,10.922c0,0-42.1-0.133-39.438-6.65
				C64.705,58.585,67.426,55.099,67.426,55.099z"/>
		</g>
		<g>
			<path fill="#DCDCDB" d="M50.352,65.606c2.707,0.814,0.164,19.539-1.148,25.615c-1.314,6.074-3.447,6.73-3.447,6.73l-8.539-0.984
				c-2.135-0.986,1.971-3.119,1.971-3.119c3.611-1.805,3.283-20.689,2.463-24.629C41.65,69.22,47.068,64.622,50.352,65.606z"/>
		</g>
		<g>
			<path fill="#E7E6E6" d="M67.426,55.099c-9.85-0.984-23.148-5.91-23.148-5.91s-4.77,6.982-10.18,7.551
				c-6.24,0.658-12.051-2.354-15.434-2.873c-1.086-0.166-1.123,1.463-0.762,2.387c0.568,1.455,8.148,2.951,15.539,5.578
				c3.162,2.752,7.639,8.635,8.811,9.107c4.783,2.492,17.775,9.518,18.443,12.73c0.82,3.939,0.82,11.492-2.789,13.299
				c0,0-4.107,2.133-1.973,3.119l8.539,0.984c0,0,2.135-0.656,3.447-6.73c0.752-3.484,1.666-7.936,1.879-11.412
				C81.66,86.337,67.426,55.099,67.426,55.099z"/>
		</g>
		<g>
			<path fill="#717272" d="M18.5,48.86c0,0-2.494,0.729-0.906,3.135C17.594,51.995,20.023,50.915,18.5,48.86z"/>
		</g>
		<g>
			<path fill="#F5F6F7" d="M52.158,51.774c0,0-16.693-7.822-22.986-6.689C22.879,46.214,18.5,48.86,18.5,48.86
				s0.574,1.396-0.906,3.135c0,0-1.119,5.842,10.594,4.967C28.188,56.962,40.227,60.79,52.158,51.774z"/>
		</g>
		<g>
			<path fill="#666866" d="M29.381,47.856c-0.008,0.398-0.654,0.789-1.154,0.779c-0.502-0.008-1.234-0.281-1.227-0.682
				s0.752-0.775,1.254-0.766C28.756,47.196,29.389,47.456,29.381,47.856z"/>
		</g>
		<g>
			<path fill="#ECEBE9" d="M98.814,58.399c6.078-1.123,10.852,3.578,11.795,8.193c0,0,0.656,13.463-1.313,18.061
				c0,0-0.986,15.434-0.328,17.732c0,0-7.717,2.463-11.002,2.463c0,0-0.82-4.105,3.777-6.402c0,0-4.721-3.268-8.135-8.48
				c-2.211-3.375-3.875-7.563-3.359-12.209C90.25,77.757,91.617,59.729,98.814,58.399z"/>
		</g>
	</g>
</g>
</svg>
