<?xml version="1.0" encoding="utf-8"?>
<!-- Generator: Adobe Illustrator 16.0.0, SVG Export Plug-In . SVG Version: 6.00 Build 0)  -->
<!DOCTYPE svg PUBLIC "-//W3C//DTD SVG 1.1//EN" "http://www.w3.org/Graphics/SVG/1.1/DTD/svg11.dtd">
<svg version="1.1" id="Layer_1" xmlns="http://www.w3.org/2000/svg" xmlns:xlink="http://www.w3.org/1999/xlink" x="0px" y="0px"
     width="136.914px" height="136.913px" viewBox="0 0 136.914 136.913" enable-background="new 0 0 136.914 136.913"
     xml:space="preserve">
<g>
	<g>
		<g>
			<g>
				<g>
					<path fill="#D7DABA" d="M5.125,68.458c0-34.982,28.355-63.336,63.334-63.336c34.977,0,63.332,28.354,63.332,63.336
						c0,34.979-28.355,63.334-63.332,63.334C33.48,131.792,5.125,103.437,5.125,68.458z"/>
				</g>
			</g>
		</g>
		<g>
			<g>
				<path fill="#D62127" d="M99.281,101.474c0,0-12.498,3.037-29.52,3.037c-17.023,0-32.125-3.037-32.125-3.037
					c0-24.936,13.799-60.559,30.822-60.559C85.48,40.915,99.281,76.538,99.281,101.474z"/>
			</g>
			<g>
				<g>
					<path fill="#E84344" d="M69.762,83.46c-13.834,0-25.965-2.008-30.113-2.758c-0.959,5.25-2.012,15.898-2.012,20.771
						c0,0,15.102,3.037,32.125,3.037c17.021,0,29.52-3.037,29.52-3.037c0-4.859-1.049-15.49-2.002-20.725
						C93.553,81.532,83.316,83.46,69.762,83.46z"/>
				</g>
			</g>
			<g>
				<circle fill="#E84344" cx="68.459" cy="37.876" r="10.635"/>
			</g>
			<g>
				<g>
					<path fill="#E84344" d="M50.66,88.231c-0.055,0-0.111-0.006-0.166-0.02c-0.35-0.094-0.557-0.451-0.463-0.797l8.248-31.041
						c0.092-0.348,0.449-0.555,0.797-0.463c0.348,0.094,0.555,0.447,0.463,0.797l-8.248,31.039
						C51.213,88.04,50.949,88.231,50.66,88.231z"/>
				</g>
			</g>
			<g>
				<g>
					<path fill="#E84344" d="M86.691,88.231c-0.289,0-0.553-0.191-0.631-0.484l-8.246-31.039c-0.092-0.35,0.115-0.703,0.461-0.797
						c0.348-0.092,0.705,0.115,0.797,0.463l8.25,31.041c0.092,0.346-0.115,0.703-0.465,0.797
						C86.803,88.226,86.746,88.231,86.691,88.231z"/>
				</g>
			</g>
			<g>
				<g>
					<path fill="#E84344" d="M69.328,88.231c-0.357,0-0.648-0.287-0.65-0.646l-0.219-31.039c-0.002-0.359,0.287-0.654,0.648-0.656
						c0,0,0.002,0,0.004,0c0.355,0,0.648,0.287,0.65,0.646l0.217,31.041c0.004,0.359-0.285,0.652-0.646,0.654H69.328z"/>
				</g>
			</g>
		</g>
	</g>
	<g>
		<g>
			<path fill="#F4F5F5" d="M28.912,93.222c-1.207,0-2.184,0.979-2.184,2.186c0,1.203,0.977,2.184,2.184,2.184
				s2.186-0.98,2.186-2.184C31.098,94.2,30.119,93.222,28.912,93.222z"/>
		</g>
		<g>
			<path fill="#F4F5F5" d="M17.375,82.188c-1.209,0-2.186,0.979-2.186,2.184c0,1.207,0.975,2.188,2.186,2.186
				c1.205,0.002,2.182-0.979,2.182-2.186C19.557,83.167,18.58,82.188,17.375,82.188z"/>
		</g>
		<g>
			<circle fill="#F4F5F5" cx="43.305" cy="81.015" r="2.184"/>
		</g>
		<g>
			<circle fill="#F4F5F5" cx="31.768" cy="69.981" r="2.186"/>
		</g>
		<g>
			<path fill="#F4F5F5" d="M56.08,66.056c-1.207,0-2.184,0.979-2.184,2.184c0,1.203,0.977,2.184,2.184,2.184s2.186-0.98,2.186-2.184
				C58.266,67.034,57.287,66.056,56.08,66.056z"/>
		</g>
		<g>
			<circle fill="#F4F5F5" cx="44.543" cy="57.203" r="2.185"/>
		</g>
		<g>
			<path fill="#F4F5F5" d="M7.639,71.95c0-1.205-0.975-2.184-2.184-2.184c-0.102,0-0.197,0.018-0.295,0.029
				c0.029,1.457,0.104,2.902,0.23,4.332c0.023,0,0.043,0.006,0.064,0.006C6.664,74.134,7.639,73.155,7.639,71.95z"/>
		</g>
		<g>
			<path fill="#F4F5F5" d="M19.848,55.372c-1.207,0-2.184,0.979-2.184,2.186c0,1.203,0.977,2.184,2.184,2.184
				s2.184-0.98,2.184-2.184C22.031,56.351,21.055,55.372,19.848,55.372z"/>
		</g>
		<g>
			<path fill="#F4F5F5" d="M10.494,46.522c0-0.678-0.316-1.277-0.803-1.678c-0.51,1.268-0.98,2.555-1.408,3.861
				c0.01,0,0.018,0.002,0.027,0.002C9.518,48.71,10.494,47.728,10.494,46.522z"/>
		</g>
		<g>
			<path fill="#F4F5F5" d="M32.623,42.597c-1.207,0-2.182,0.979-2.182,2.184s0.975,2.186,2.182,2.184
				c1.209,0,2.186-0.979,2.186-2.184S33.832,42.597,32.623,42.597z"/>
		</g>
		<g>
			<circle fill="#F4F5F5" cx="21.086" cy="33.747" r="2.186"/>
		</g>
		<g>
			<path fill="#F4F5F5" d="M63.264,128.077c-1.209-0.002-2.186,0.979-2.186,2.184c0,0.414,0.121,0.799,0.322,1.129
				c1.16,0.129,2.326,0.232,3.506,0.297c0.33-0.385,0.539-0.879,0.539-1.426C65.445,129.056,64.471,128.075,63.264,128.077z"/>
		</g>
		<g>
			<path fill="#F4F5F5" d="M89.193,124.72c-1.209,0-2.186,0.979-2.186,2.184c0,0.752,0.383,1.418,0.963,1.811
				c1.115-0.361,2.213-0.754,3.301-1.174c0.063-0.203,0.105-0.414,0.105-0.637C91.377,125.698,90.398,124.72,89.193,124.72z"/>
		</g>
		<g>
			<path fill="#F4F5F5" d="M77.654,113.685c-1.207-0.002-2.186,0.979-2.186,2.186c0,1.203,0.979,2.184,2.186,2.184
				s2.184-0.98,2.184-2.184C79.838,114.663,78.861,113.683,77.654,113.685z"/>
		</g>
		<g>
			<path fill="#F4F5F5" d="M101.969,111.942c-1.209,0-2.184,0.979-2.184,2.186c0,1.203,0.975,2.184,2.184,2.184
				c1.207,0,2.184-0.98,2.184-2.184C104.152,112.921,103.176,111.942,101.969,111.942z"/>
		</g>
		<g>
			<circle fill="#F4F5F5" cx="90.432" cy="103.093" r="2.186"/>
		</g>
		<g>
			<path fill="#F4F5F5" d="M51.84,116.151c-1.207,0-2.182,0.979-2.182,2.186c0,1.203,0.975,2.184,2.182,2.184
				c1.209,0,2.186-0.98,2.186-2.184C54.025,117.13,53.049,116.151,51.84,116.151z"/>
		</g>
		<g>
			<circle fill="#F4F5F5" cx="40.303" cy="107.302" r="2.186"/>
		</g>
		<g>
			<path fill="#F4F5F5" d="M66.234,101.759c-1.209,0-2.186,0.98-2.186,2.186c0,1.203,0.977,2.184,2.186,2.184
				c1.207,0,2.184-0.98,2.184-2.184C68.418,102.739,67.441,101.759,66.234,101.759z"/>
		</g>
		<g>
			<circle fill="#F4F5F5" cx="54.695" cy="92.91" r="2.185"/>
		</g>
		<g>
			<path fill="#F4F5F5" d="M79.008,88.983c-1.205,0-2.182,0.979-2.182,2.184s0.977,2.186,2.182,2.186
				c1.209,0,2.186-0.98,2.186-2.186S80.217,88.983,79.008,88.983z"/>
		</g>
		<g>
			<circle fill="#F4F5F5" cx="67.471" cy="80.134" r="2.186"/>
		</g>
		<g>
			<path fill="#F4F5F5" d="M68.156,53.978c-1.207,0-2.184,0.979-2.184,2.184c0,1.203,0.977,2.184,2.184,2.184
				s2.186-0.98,2.186-2.184C70.342,54.956,69.363,53.978,68.156,53.978z"/>
		</g>
		<g>
			<circle fill="#F4F5F5" cx="56.619" cy="45.128" r="2.186"/>
		</g>
		<g>
			<path fill="#F4F5F5" d="M80.934,41.2c-1.209,0-2.186,0.979-2.186,2.186c0,1.203,0.977,2.184,2.186,2.184
				c1.205,0,2.184-0.98,2.184-2.184C83.117,42.179,82.139,41.2,80.934,41.2z"/>
		</g>
		<g>
			<path fill="#F4F5F5" d="M69.395,30.167c-1.209-0.002-2.184,0.979-2.184,2.184s0.975,2.186,2.184,2.186
				c1.207,0,2.184-0.98,2.184-2.186S70.602,30.165,69.395,30.167z"/>
		</g>
		<g>
			<path fill="#F4F5F5" d="M95.324,26.808c-1.207,0-2.184,0.98-2.184,2.186c0,1.203,0.979,2.184,2.184,2.184
				c1.207,0,2.186-0.98,2.186-2.184C97.51,27.788,96.531,26.808,95.324,26.808z"/>
		</g>
		<g>
			<path fill="#F4F5F5" d="M83.787,15.774c-1.209,0-2.186,0.979-2.186,2.186c0,1.205,0.977,2.186,2.188,2.184
				c1.205,0.002,2.18-0.979,2.18-2.184C85.969,16.753,84.994,15.774,83.787,15.774z"/>
		</g>
		<g>
			<path fill="#F4F5F5" d="M44.699,30.521c-1.207,0-2.182,0.979-2.182,2.184s0.975,2.186,2.182,2.184
				c1.209,0,2.186-0.979,2.186-2.184S45.908,30.521,44.699,30.521z"/>
		</g>
		<g>
			<circle fill="#F4F5F5" cx="33.162" cy="21.671" r="2.186"/>
		</g>
		<g>
			<path fill="#F4F5F5" d="M57.477,17.745c-1.207,0-2.184,0.979-2.184,2.184c0,1.203,0.977,2.184,2.184,2.184
				s2.184-0.98,2.184-2.184C59.66,18.724,58.684,17.745,57.477,17.745z"/>
		</g>
		<g>
			<path fill="#F4F5F5" d="M45.939,11.081c1.205,0,2.182-0.98,2.182-2.186c0-0.139-0.016-0.271-0.039-0.402
				c-1.359,0.461-2.703,0.955-4.02,1.506C44.441,10.644,45.135,11.081,45.939,11.081z"/>
		</g>
		<g>
			<path fill="#F4F5F5" d="M71.869,7.72c1.205,0,2.184-0.979,2.184-2.184c0-0.053-0.012-0.102-0.016-0.154
				c-1.426-0.125-2.863-0.199-4.314-0.227c-0.021,0.123-0.037,0.25-0.037,0.381C69.686,6.741,70.66,7.72,71.869,7.72z"/>
		</g>
		<g>
			<path fill="#F4F5F5" d="M114.045,99.866c-1.209,0-2.184,0.979-2.184,2.184s0.977,2.186,2.184,2.186s2.184-0.98,2.184-2.186
				S115.252,99.866,114.045,99.866z"/>
		</g>
		<g>
			<circle fill="#F4F5F5" cx="102.506" cy="91.017" r="2.186"/>
		</g>
		<g>
			<path fill="#F4F5F5" d="M126.82,87.091c-1.207,0-2.184,0.979-2.184,2.186c0,1.201,0.977,2.184,2.184,2.182
				c0.244,0,0.475-0.049,0.693-0.123c0.412-1.061,0.797-2.133,1.152-3.219C128.279,87.503,127.6,87.091,126.82,87.091z"/>
		</g>
		<g>
			<circle fill="#F4F5F5" cx="115.283" cy="78.241" r="2.186"/>
		</g>
		<g>
			<path fill="#F4F5F5" d="M129.674,61.663c-1.207-0.002-2.184,0.979-2.184,2.184c-0.002,1.205,0.977,2.188,2.186,2.188
				c0.895,0,1.66-0.539,1.998-1.311c-0.041-0.684-0.094-1.361-0.156-2.039C131.131,62.073,130.453,61.663,129.674,61.663z"/>
		</g>
		<g>
			<circle fill="#F4F5F5" cx="91.086" cy="79.091" r="2.184"/>
		</g>
		<g>
			<circle fill="#F4F5F5" cx="79.547" cy="68.058" r="2.186"/>
		</g>
		<g>
			<path fill="#F4F5F5" d="M103.861,64.13c-1.207,0-2.184,0.979-2.184,2.186c0,1.203,0.977,2.184,2.184,2.184
				s2.184-0.98,2.184-2.184C106.045,65.108,105.068,64.13,103.861,64.13z"/>
		</g>
		<g>
			<circle fill="#F4F5F5" cx="92.324" cy="55.28" r="2.186"/>
		</g>
		<g>
			<path fill="#F4F5F5" d="M118.254,49.737c-1.207,0-2.184,0.979-2.184,2.186c0,1.203,0.977,2.184,2.184,2.182
				c1.205,0,2.184-0.979,2.184-2.182C120.438,50.716,119.459,49.737,118.254,49.737z"/>
		</g>
		<g>
			<circle fill="#F4F5F5" cx="106.717" cy="40.888" r="2.186"/>
		</g>
		<g>
			<path fill="#F4F5F5" d="M118.939,30.218c-0.531-0.699-1.07-1.395-1.629-2.07C117.326,29.144,118.012,29.976,118.939,30.218z"/>
		</g>
	</g>
</g>
</svg>
