<?xml version="1.0" encoding="utf-8"?>
<!-- Generator: Adobe Illustrator 16.0.0, SVG Export Plug-In . SVG Version: 6.00 Build 0)  -->
<!DOCTYPE svg PUBLIC "-//W3C//DTD SVG 1.1//EN" "http://www.w3.org/Graphics/SVG/1.1/DTD/svg11.dtd">
<svg version="1.1" id="Layer_1" xmlns="http://www.w3.org/2000/svg" xmlns:xlink="http://www.w3.org/1999/xlink" x="0px" y="0px"
     width="136.914px" height="136.913px" viewBox="0 0 136.914 136.913" enable-background="new 0 0 136.914 136.913"
     xml:space="preserve">
<g>
	<g>
		<g>
			<circle fill="#DBF0F4" cx="68.457" cy="68.454" r="63.333"/>
		</g>
	</g>
	<g>
		<g>
			<path fill="#67B8CB" d="M106.821,55.884c-11.219,0-20.314,6.922-20.314,15.453c0,2.839,1.023,5.488,2.775,7.772l-2.711,9.106
				l11.311-3.015c2.701,1.009,5.727,1.591,8.939,1.591c11.219,0,20.313-6.918,20.313-15.455
				C127.134,62.806,118.04,55.884,106.821,55.884z"/>
		</g>
		<g>
			<g>
				<circle fill="#B7CAC4" cx="114.06" cy="70.61" r="2.471"/>
			</g>
			<g>
				<circle fill="#B7CAC4" cx="106.317" cy="70.61" r="2.471"/>
			</g>
			<g>
				<circle fill="#B7CAC4" cx="98.74" cy="70.61" r="2.472"/>
			</g>
		</g>
	</g>
	<g>
		<g>
			<path fill="#67B8CB" d="M80.571,21.884c-11.219,0-20.314,6.922-20.314,15.453c0,2.839,1.268,6.097,2.775,7.772
				c3.121,3.472,7.621,5.222,7.621,5.222l1.748,11.75l8.17-9.289c11.219,0,20.313-6.918,20.313-15.455
				C100.884,28.806,91.79,21.884,80.571,21.884z"/>
		</g>
		<g>
			<g>
				<circle fill="#B7CAC4" cx="87.81" cy="36.61" r="2.471"/>
			</g>
			<g>
				<circle fill="#B7CAC4" cx="80.067" cy="36.61" r="2.471"/>
			</g>
			<g>
				<circle fill="#B7CAC4" cx="72.49" cy="36.61" r="2.472"/>
			</g>
		</g>
	</g>
	<g>
		<g>
			<path fill="#67B8CB" d="M33.819,43.384c11.219,0,20.314,6.922,20.314,15.453c0,2.839-1.023,5.488-2.773,7.772l2.709,9.106
				l-11.311-3.015c-2.701,1.009-5.725,1.591-8.939,1.591c-11.219,0-20.313-6.918-20.313-15.455
				C13.507,50.306,22.601,43.384,33.819,43.384z"/>
		</g>
		<g>
			<g>
				<circle fill="#B7CAC4" cx="26.581" cy="58.11" r="2.471"/>
			</g>
			<g>
				<circle fill="#B7CAC4" cx="34.324" cy="58.11" r="2.472"/>
			</g>
			<g>
				<circle fill="#B7CAC4" cx="41.901" cy="58.11" r="2.471"/>
			</g>
		</g>
	</g>
	<g>
		<g>
			<path fill="#36858D" d="M76.61,109.318c0-3.816-0.383-6.103-0.383-6.103s4.959-6.867,5.34-16.404
				c0-1.516,0.744-12.272-12.205-12.759c0-0.004,0-0.013,0-0.018c-0.031,0.002-0.061,0.009-0.096,0.009
				c-0.031,0-0.061-0.007-0.096-0.009c0,0.005,0,0.014,0,0.018c-12.945,0.486-12.205,11.243-12.205,12.759
				c0.381,9.537,5.34,16.404,5.34,16.404s-0.383,2.286-0.383,6.103c-20.594,4.957-23.457,11.824-23.457,11.824v3.009
				c8.975,4.875,19.256,7.643,30.186,7.643c11.436,0,22.154-3.047,31.416-8.35v-2.302C100.067,121.143,97.208,114.275,76.61,109.318
				z"/>
		</g>
	</g>
</g>
</svg>
