<?xml version="1.0" encoding="utf-8"?>
<!-- Generator: Adobe Illustrator 16.0.0, SVG Export Plug-In . SVG Version: 6.00 Build 0)  -->
<!DOCTYPE svg PUBLIC "-//W3C//DTD SVG 1.1//EN" "http://www.w3.org/Graphics/SVG/1.1/DTD/svg11.dtd">
<svg version="1.1" id="Layer_1" xmlns="http://www.w3.org/2000/svg" xmlns:xlink="http://www.w3.org/1999/xlink" x="0px" y="0px"
     width="136.914px" height="136.914px" viewBox="0 0 136.914 136.914" enable-background="new 0 0 136.914 136.914"
     xml:space="preserve">
<g>
	<g>
		<g>
			<circle fill="#357180" cx="68.457" cy="68.457" r="63.333"/>
		</g>
	</g>
	<g>
		<g>
			<g>
				<path fill="#F48C92" d="M49.278,111.988c12.239-4.08,16.318-13.26,18.359-27.537c0,0-11.22,2.549-20.398,10.199
					C38.06,102.298,37.04,116.068,49.278,111.988z"/>
			</g>
		</g>
		<g>
			<g>
				<path fill="#E97E88" d="M50.567,108.275c8.848-2.949,11.797-9.586,13.271-19.906c0,0-8.11,1.842-14.746,7.373
					C42.457,101.271,41.72,111.224,50.567,108.275z"/>
			</g>
		</g>
		<g>
			<g>
				<path fill="#F4C6C8" d="M70.662,84.451c0,0,32.343,11.271,44.877-16.83c1.439-3.228,5.1-17.339,0.51-27.028
					c0,0-2.55-13.259-20.398,5.101C95.65,45.693,75.252,65.07,70.662,84.451z"/>
			</g>
		</g>
		<g>
			<g>
				<path fill="#F4C6C8" d="M67.787,84.451c0,0-32.343,11.271-44.877-16.83c-1.439-3.228-5.1-17.339-0.51-27.028
					c0,0,2.55-13.259,20.398,5.101C42.799,45.693,63.197,65.07,67.787,84.451z"/>
			</g>
		</g>
		<g>
			<g>
				<path fill="#F3CED1" d="M75.589,81.972c0,0,25.895,6.754,36.777-15.79c0,0,3.887-13.215,0.389-20.6
					c0,0-1.944-10.105-15.547,3.887C97.208,49.47,79.087,67.201,75.589,81.972z"/>
			</g>
		</g>
		<g>
			<g>
				<path fill="#F48C92" d="M89.021,111.988c-12.238-4.08-16.318-13.26-18.358-27.537c0,0,11.22,2.549,20.398,10.199
					C100.239,102.298,101.26,116.068,89.021,111.988z"/>
			</g>
		</g>
		<g>
			<g>
				<path fill="#57564E" d="M71.972,95.923c0,1.268-1.569,7.395-2.836,7.395l0,0c-1.268,0-2.837-6.127-2.837-7.395l1.722-17.178
					l-1.18-4.24c0-1.268,1.027-5.992,2.295-5.992l0,0c1.267,0,2.295,4.724,2.295,5.992l-1.18,4.145L71.972,95.923z"/>
			</g>
		</g>
		<g>
			<g>
				<path fill="#E97E88" d="M87.292,108.275c-8.848-2.949-11.797-9.586-13.271-19.906c0,0,8.11,1.842,14.746,7.373
					C95.402,101.271,96.14,111.224,87.292,108.275z"/>
			</g>
		</g>
		<g>
			<g>
				<path fill="#F3CED1" d="M62.964,82.222c0,0-26.32,6.504-37.203-16.04c0,0-3.887-13.215-0.389-20.6
					c0,0,1.944-10.105,15.547,3.887C40.919,49.47,59.466,67.451,62.964,82.222z"/>
			</g>
		</g>
	</g>
</g>
</svg>
