<?xml version="1.0" encoding="utf-8"?>
<!-- Generator: Adobe Illustrator 16.0.0, SVG Export Plug-In . SVG Version: 6.00 Build 0)  -->
<!DOCTYPE svg PUBLIC "-//W3C//DTD SVG 1.1//EN" "http://www.w3.org/Graphics/SVG/1.1/DTD/svg11.dtd">
<svg version="1.1" id="Layer_1" xmlns="http://www.w3.org/2000/svg" xmlns:xlink="http://www.w3.org/1999/xlink" x="0px" y="0px"
     width="136.914px" height="136.914px" viewBox="0 0 136.914 136.914" enable-background="new 0 0 136.914 136.914"
     xml:space="preserve">
<g>
	<g>
		<path fill="#E84849" d="M4.65,68.457c0-35.239,28.566-63.806,63.807-63.806s63.807,28.566,63.807,63.806
			c0,35.242-28.566,63.807-63.807,63.807S4.65,103.699,4.65,68.457z"/>
	</g>
	<g>
		<path fill="none" d="M4.65,68.457c0-35.239,28.566-63.806,63.807-63.806s63.807,28.566,63.807,63.806
			c0,35.242-28.566,63.807-63.807,63.807S4.65,103.699,4.65,68.457z"/>
	</g>
	<g>
		<g>
			<g>
				<g>
					<path fill="#E79E2D" d="M81.059,76.603l20.697-20.699c5.342-5.341-0.021-8.64-5.363-13.98l-72.338,72.336
						c2.914,2.824,6.094,5.373,9.502,7.605l35.35-42.441C73.076,80.837,77.551,80.113,81.059,76.603z"/>
				</g>
			</g>
			<g>
				<g>
					<path fill="#D68A28" d="M24.055,114.259l72.338-72.336c-5.34-5.341-8.639-10.704-13.98-5.362L61.715,57.26
						c-3.508,3.507-4.234,7.979-2.82,12.153l-42.846,35.424C18.41,108.234,21.094,111.388,24.055,114.259z"/>
				</g>
			</g>
		</g>
		<g>
			<path fill="#CDCCCB" d="M97.109,41.209c-5.342-5.343-9.355-9.99-14.697-4.648L61.715,57.26
				c-2.521,2.521,16.82,21.866,19.344,19.343l20.697-20.699C107.098,50.563,102.449,46.549,97.109,41.209z"/>
		</g>
		<g>
			<path fill="#AAAAAA" d="M97.109,41.209c-5.342-5.343-9.355-9.99-14.697-4.648L61.715,57.26c-1.262,1.26,2.945,6.726,7.779,11.562
				L97.109,41.209z"/>
		</g>
		<g>
			<path fill="#B2B2B2" d="M63.012,75.623c-3.541-3.541-4.799-8.027-4.799-8.027L47.137,78.898
				c-1.363,1.361,10.975,13.594,12.338,12.23l11.18-11.18C70.654,79.949,66.555,79.166,63.012,75.623z"/>
		</g>
		<g>
			<path fill="#8D9091" d="M62.82,75.433c-3.389-3.506-4.607-7.838-4.607-7.838L47.137,78.898c-0.682,0.682,1.887,4.008,5.094,7.215
				L62.82,75.433z"/>
		</g>
		<g>
			<path fill="#3D4040" d="M87.615,24.602l-17.32,24.076C67.773,51.2,87.117,70.544,89.639,68.023L113.717,50.7
				C119.055,45.361,92.957,19.262,87.615,24.602z"/>
		</g>
		<g>
			<path fill="#343433" d="M87.615,24.602l-17.32,24.076c-1.24,1.24,2.807,6.549,7.543,11.325l26.836-26.353
				C98.148,27.125,90.287,21.933,87.615,24.602z"/>
		</g>
		<g>
			<path fill="#1D1E1E" d="M75.42,52.221c-0.213,0-0.428-0.067-0.609-0.207c-0.438-0.336-0.52-0.964-0.184-1.401l17.279-22.527
				c0.334-0.439,0.963-0.521,1.4-0.186c0.439,0.336,0.521,0.964,0.186,1.402L76.213,51.83C76.016,52.086,75.719,52.221,75.42,52.221
				z"/>
		</g>
		<g>
			<path fill="#2E2F2F" d="M87.455,64.254c-0.301,0-0.598-0.135-0.793-0.392c-0.336-0.438-0.254-1.066,0.184-1.402l22.525-17.279
				c0.439-0.336,1.066-0.253,1.402,0.185c0.336,0.438,0.254,1.066-0.184,1.402L88.064,64.047
				C87.883,64.187,87.668,64.254,87.455,64.254z"/>
		</g>
		<g>
			<path fill="#2E2F2F" d="M83.402,60.204c-0.271,0-0.541-0.11-0.738-0.326c-0.373-0.408-0.344-1.04,0.064-1.413l21.811-19.901
				c0.408-0.372,1.041-0.343,1.412,0.065c0.373,0.407,0.344,1.04-0.064,1.412L84.076,59.942
				C83.885,60.117,83.643,60.204,83.402,60.204z"/>
		</g>
		<g>
			<path fill="#1D1E1E" d="M79.234,56.034c-0.24,0-0.482-0.087-0.674-0.262c-0.408-0.372-0.438-1.005-0.064-1.412l19.9-21.811
				c0.371-0.407,1.006-0.437,1.412-0.065c0.408,0.372,0.438,1.005,0.064,1.413l-19.9,21.811
				C79.775,55.923,79.506,56.034,79.234,56.034z"/>
		</g>
	</g>
	<g>
		<path fill="none" d="M4.65,68.457c0-35.239,28.566-63.806,63.807-63.806s63.807,28.566,63.807,63.806
			c0,35.242-28.566,63.807-63.807,63.807S4.65,103.699,4.65,68.457z"/>
	</g>
</g>
</svg>
