<?xml version="1.0" encoding="utf-8"?>
<!-- Generator: Adobe Illustrator 16.0.0, SVG Export Plug-In . SVG Version: 6.00 Build 0)  -->
<!DOCTYPE svg PUBLIC "-//W3C//DTD SVG 1.1//EN" "http://www.w3.org/Graphics/SVG/1.1/DTD/svg11.dtd">
<svg version="1.1" id="Layer_1" xmlns="http://www.w3.org/2000/svg" xmlns:xlink="http://www.w3.org/1999/xlink" x="0px" y="0px"
     width="136.913px" height="136.914px" viewBox="0 0 136.913 136.914" enable-background="new 0 0 136.913 136.914"
     xml:space="preserve">
<g>
	<g>
		<circle fill="#E84849" cx="68.457" cy="68.456" r="63.333"/>
		<g>
			<rect x="40.424" y="51.044" fill="#E8E4AA" width="57.461" height="44.004"/>
			<path fill="#BDB36D" d="M88.277,93.229h-15.73V70.843c0-2.098,1.725-3.801,3.854-3.801h8.025c2.129,0,3.852,1.703,3.852,3.801
				V93.229z"/>
			<path fill="#CCC375" d="M87.006,93.048H73.82V71.438c0-1.756,1.447-3.186,3.23-3.186h6.725c1.783,0,3.23,1.43,3.23,3.186V93.048z
				"/>
			<path fill="#CCC375" d="M59.117,67.042h-8.289c-2.197,0-3.979,1.746-3.979,3.896v1.328v1.68v1.322
				c0,2.152,1.781,3.896,3.979,3.896h8.287c2.197,0,3.979-1.744,3.979-3.896v-1.322v-1.68v-1.328
				C63.094,68.788,61.313,67.042,59.117,67.042z"/>
			<g>
				<path fill="#A09592" d="M69.215,32.778c-0.162,0-0.322,0-0.484,0c0.152,0.553,0.242,1.127,0.242,1.719
					C68.973,33.905,69.063,33.331,69.215,32.778z"/>
				<path fill="#A09592" d="M51.848,32.778c-0.162,0-0.322,0-0.482,0c0.152,0.553,0.242,1.127,0.242,1.719
					C51.607,33.905,51.697,33.331,51.848,32.778z"/>
				<path fill="#A09592" d="M86.58,32.778c-0.162,0-0.318,0-0.484,0c0.152,0.553,0.242,1.127,0.242,1.719
					C86.338,33.905,86.428,33.331,86.58,32.778z"/>
				<path fill="#C74A39" d="M51.365,32.778c-2.371,0-4.383,0-5.836,0c-8.713,0-11.287,19.889-11.287,19.889v2.559
					c0,4.117,3.887,7.457,8.682,7.457c2.563,0,4.859-0.961,6.451-2.477c1.383-1.32,2.232-3.063,2.232-4.98V34.497
					C51.607,33.905,51.518,33.331,51.365,32.778z"/>
				<path fill="#D5C7C3" d="M68.73,32.778c-6.068,0-12.15,0-16.883,0c-0.15,0.553-0.24,1.127-0.24,1.719v20.729
					c0,1.918,0.85,3.66,2.232,4.98c1.592,1.516,3.887,2.477,6.449,2.477c2.564,0,4.859-0.961,6.451-2.477
					c1.383-1.32,2.232-3.063,2.232-4.98V34.497C68.973,33.905,68.883,33.331,68.73,32.778z"/>
				<path fill="#C74A39" d="M86.096,32.778c-4.602,0-10.713,0-16.881,0c-0.152,0.553-0.242,1.127-0.242,1.719v20.729
					c0,1.918,0.85,3.66,2.232,4.98c1.592,1.516,3.887,2.477,6.449,2.477c2.564,0,4.859-0.961,6.449-2.477
					c1.385-1.32,2.234-3.063,2.234-4.98V34.497C86.338,33.905,86.248,33.331,86.096,32.778z"/>
				<path fill="#D5C7C3" d="M103.703,49.872c-1.566-5.475-5.666-17.094-12.258-17.094c-1.242,0-2.912,0-4.865,0
					c-0.152,0.553-0.242,1.127-0.242,1.719v20.729c0,1.918,0.85,3.66,2.232,4.98c1.592,1.516,3.887,2.477,6.449,2.477
					c4.52,0,8.232-2.967,8.643-6.758C104.139,54.937,104.186,51.56,103.703,49.872z"/>
			</g>
			<path fill="#DCD99D" d="M107.184,96.813c0,2.162-1.754,3.914-3.916,3.914H35.818c-2.162,0-3.914-1.752-3.914-3.914l0,0
				c0-2.162,1.752-3.914,3.914-3.914h67.449C105.43,92.899,107.184,94.651,107.184,96.813L107.184,96.813z"/>
		</g>
	</g>
</g>
</svg>
