<?xml version="1.0" encoding="utf-8"?>
<!-- Generator: Adobe Illustrator 16.0.0, SVG Export Plug-In . SVG Version: 6.00 Build 0)  -->
<!DOCTYPE svg PUBLIC "-//W3C//DTD SVG 1.1//EN" "http://www.w3.org/Graphics/SVG/1.1/DTD/svg11.dtd">
<svg version="1.1" id="Layer_1" xmlns="http://www.w3.org/2000/svg" xmlns:xlink="http://www.w3.org/1999/xlink" x="0px" y="0px"
     width="136.914px" height="136.914px" viewBox="0 0 136.914 136.914" enable-background="new 0 0 136.914 136.914"
     xml:space="preserve">
<g>
	<g>
		<g>
			<circle fill="#40BCA3" cx="68.457" cy="68.456" r="63.333"/>
		</g>
	</g>
	<g>
		<path fill="#E84849" d="M20.089,68.417c0-26.926,21.826-48.756,48.756-48.756c26.928,0,48.754,21.83,48.754,48.756
			c0,26.928-21.826,48.758-48.754,48.758C41.915,117.175,20.089,95.345,20.089,68.417z"/>
		<path fill="#F6A2A3" d="M26.722,68.417c0-23.264,18.859-42.121,42.123-42.121c23.262,0,42.122,18.857,42.122,42.121
			c0,23.266-18.859,42.123-42.122,42.123C45.581,110.54,26.722,91.683,26.722,68.417z"/>
		<ellipse fill="#E9E9EA" cx="68.844" cy="68.417" rx="38.741" ry="37.846"/>
		<ellipse fill="#E9E9EA" cx="68.845" cy="70.985" rx="38.742" ry="37.848"/>
		<g>
			<circle fill="#626463" cx="69.141" cy="68.076" r="6.47"/>
			<path fill="#626463" d="M69.767,69.595c-0.459,0.459-1.41,0.254-2.121-0.459l0,0c-0.713-0.713-0.918-1.662-0.457-2.121
				l15.024-15.027c0.459-0.459,1.41-0.254,2.123,0.461l0,0c0.713,0.711,0.918,1.662,0.457,2.121L69.767,69.595z"/>
			<path fill="#626463" d="M67.646,68.919c-0.527-0.525-0.527-1.379,0-1.906l0,0c0.525-0.525,1.379-0.527,1.906,0L91.337,88.8
				c0.527,0.525,0.527,1.379,0,1.906l0,0c-0.523,0.525-1.379,0.525-1.906,0L67.646,68.919z"/>
		</g>
		<g>
			<path fill="none" d="M68.845,33.138c-19.133,0-35.014,13.553-38.164,31.361h76.329C103.857,46.69,87.976,33.138,68.845,33.138z"
				/>
			<path fill="#DDDFDF" d="M68.872,34.626c30.913,0.258,38.483,28.994,38.483,28.994c-2.883-18.66-19.041-33.049-38.51-33.049
				c-19.469,0-35.57,14.389-38.451,33.049C30.394,63.62,37.96,34.368,68.872,34.626z"/>
		</g>
	</g>
</g>
</svg>
