<?xml version="1.0" encoding="utf-8"?>
<!-- Generator: Adobe Illustrator 16.0.0, SVG Export Plug-In . SVG Version: 6.00 Build 0)  -->
<!DOCTYPE svg PUBLIC "-//W3C//DTD SVG 1.1//EN" "http://www.w3.org/Graphics/SVG/1.1/DTD/svg11.dtd">
<svg version="1.1" id="Layer_1" xmlns="http://www.w3.org/2000/svg" xmlns:xlink="http://www.w3.org/1999/xlink" x="0px" y="0px"
     width="136.913px" height="136.914px" viewBox="0 0 136.913 136.914" enable-background="new 0 0 136.913 136.914"
     xml:space="preserve">
<g>
	<g>
		<circle fill="#337180" cx="68.456" cy="68.457" r="63.333"/>
	</g>
	<g>
		<g>
			<g>
				<g>
					<path fill="#D69D61" d="M83.326,81.035l0.004,0.008l4.893-0.217l7.471,11.687l1.328,11.308l-2.074,4.529l6.127,14.398
						c2.154-1.297,4.219-2.728,6.197-4.265L97.148,80.393L83.326,81.035z"/>
					<path fill="#D69D61" d="M45.889,104.154l4.18-18.021l1.371-0.383l-9.686,1.691l-11.436,31.573
						c2.473,1.869,5.086,3.563,7.824,5.06l7.787-19.842L45.889,104.154z"/>
					<path fill="#D5C427" d="M95.693,92.513l-7.471-11.687l-4.893,0.217l-5.5,0.243L57.92,83.94l-6.48,1.81l-1.371,0.383
						l-4.18,18.021l0.041,0.078l3.736,7.012l3.359,7.188l1.191,11.729c4.578,1.053,9.34,1.628,14.238,1.628
						c7.094,0,13.908-1.184,20.275-3.335l2.023-10.944l4.193-9.161l2.074-4.529L95.693,92.513z"/>
				</g>
				<g>
					<g>
						<path fill="#B2723A" d="M72.484,29.388c0,0-3.15,39.283,20.045,47.159c0,0-1.361-2.136-3.389-11.471
							c0,0,1.977,5.093,7.146,4.685c0,0-7.275-10.494-7.656-18.337c0,0-0.131,3.779,7.326,5.146c0,0-7.631-11.42-8.377-20.188
							C87.58,36.382,81.461,26.435,72.484,29.388z"/>
						<path fill="#CE945F" d="M70.119,60.871c4.291-0.08,7.984,3.022,8.252,6.931l1.113,16.363
							c0.266,3.905-5.568,24.079-5.568,24.079s-9.703-19.888-9.969-23.796l-1.113-16.36C62.566,64.182,65.828,60.949,70.119,60.871z
							"/>
						<path fill="#9F6029" d="M69.676,54.124c0,0-7.309,36.87-23.074,40.654c0,0,1.553-2,4.436-11.107c0,0-2.439,4.889-7.549,4.003
							c0,0,8.211-9.776,9.318-17.55c0,0-0.221,3.775-7.771,4.445c0,0,8.654-10.664,10.205-19.325
							C55.24,55.244,61.012,50.354,69.676,54.124z"/>
						<path fill="#9F6029" d="M70.678,59.673c0,0,4.527,37.313,19.965,42.268c0,0-1.398-2.11-3.59-11.407
							c0,0,2.066,5.056,7.227,4.557c0,0-7.457-10.365-7.979-18.2c0,0-0.063,3.782,7.416,5.016c0,0-7.83-11.282-8.729-20.036
							C84.988,61.869,79.6,56.562,70.678,59.673z"/>
						<path fill="#D69D61" d="M84.652,63.841c0.324,6.596-5.164,11.791-12.258,11.605l0,0c-7.094-0.188-13.107-5.685-13.432-12.281
							l-1.354-27.627c-0.322-6.595,5.166-11.791,12.26-11.605l0,0c7.092,0.188,13.105,5.685,13.43,12.28L84.652,63.841z"/>
					</g>
				</g>
			</g>
			<path fill="#BE7C3F" d="M74.811,23.963c0,0-7.309,36.869-23.076,40.654c0,0,1.555-2,4.438-11.107c0,0-2.441,4.887-7.549,4.003
				c0,0,8.211-9.777,9.318-17.551c0,0-0.221,3.775-7.771,4.446c0,0,8.654-10.664,10.205-19.327
				C60.375,25.081,66.146,20.191,74.811,23.963z"/>
			<path fill="#BE7C3F" d="M72.416,29.019c0,0,6.957,10.92,13.91,13.15c0,0-3.477-0.494-2.738-9.431c0,0-0.002-7.449-7.449-9.927
				C76.139,22.812,71.172,22.813,72.416,29.019z"/>
		</g>
	</g>
</g>
</svg>
