<?xml version="1.0" encoding="utf-8"?>
<!-- Generator: Adobe Illustrator 16.0.0, SVG Export Plug-In . SVG Version: 6.00 Build 0)  -->
<!DOCTYPE svg PUBLIC "-//W3C//DTD SVG 1.1//EN" "http://www.w3.org/Graphics/SVG/1.1/DTD/svg11.dtd">
<svg version="1.1" id="Layer_1" xmlns="http://www.w3.org/2000/svg" xmlns:xlink="http://www.w3.org/1999/xlink" x="0px" y="0px"
     width="136.913px" height="136.913px" viewBox="0 0 136.913 136.913" enable-background="new 0 0 136.913 136.913"
     xml:space="preserve">
<g>
	<g>
		<g>
			<g>
				<g>
					<circle fill="#FFD113" cx="68.456" cy="68.457" r="63.333"/>
				</g>
			</g>
		</g>
	</g>
	<g>
		<g>
			<g>
				<path fill="#626463" d="M39.453,59.209c-11.58,0-20.967,9.387-20.967,20.969c0,11.578,9.387,20.967,20.967,20.967
					s20.969-9.389,20.969-20.967C60.422,68.596,51.033,59.209,39.453,59.209z M39.453,98.938c-10.361,0-18.76-8.4-18.76-18.76
					c0-10.363,8.398-18.762,18.76-18.762s18.762,8.398,18.762,18.762C58.215,90.537,49.814,98.938,39.453,98.938z"/>
			</g>
		</g>
		<g>
			<g>
				<path fill="#626463" d="M39.453,77.848c-1.287,0-2.33,1.043-2.33,2.33c0,1.285,1.043,2.33,2.33,2.33s2.33-1.045,2.33-2.33
					C41.783,78.891,40.74,77.848,39.453,77.848z"/>
			</g>
		</g>
		<g>
			<g>
				<g>
					<rect x="39.086" y="60.682" fill="#626463" width="0.736" height="39.236"/>
				</g>
				<g>
					<rect x="19.834" y="79.934" fill="#626463" width="39.238" height="0.734"/>
				</g>
				<g>
					
						<rect x="19.835" y="79.932" transform="matrix(0.7071 0.7071 -0.7071 0.7071 68.3334 -4.38)" fill="#626463" width="39.238" height="0.736"/>
				</g>
				<g>
					
						<rect x="39.086" y="60.683" transform="matrix(0.7058 0.7084 -0.7084 0.7058 68.4959 -4.3244)" fill="#626463" width="0.736" height="39.236"/>
				</g>
			</g>
			<g>
				<g>
					
						<rect x="39.085" y="60.682" transform="matrix(0.9231 0.3846 -0.3846 0.9231 33.9194 -8.9974)" fill="#626463" width="0.736" height="39.236"/>
				</g>
				<g>
					
						<rect x="19.834" y="79.933" transform="matrix(0.923 0.3848 -0.3848 0.923 33.9352 -8.9982)" fill="#626463" width="39.238" height="0.736"/>
				</g>
				<g>
					
						<rect x="19.834" y="79.932" transform="matrix(0.3806 0.9247 -0.9247 0.3806 98.6944 13.2545)" fill="#626463" width="39.238" height="0.735"/>
				</g>
				<g>
					
						<rect x="39.087" y="60.682" transform="matrix(0.381 0.9246 -0.9246 0.381 98.6643 13.2277)" fill="#626463" width="0.733" height="39.237"/>
				</g>
			</g>
		</g>
		<g>
			<g>
				<path fill="#626463" d="M100.518,59.209c-11.58,0-20.967,9.387-20.967,20.969c0,11.578,9.387,20.967,20.967,20.967
					s20.969-9.389,20.969-20.967C121.486,68.596,112.098,59.209,100.518,59.209z M100.518,98.938c-10.361,0-18.76-8.4-18.76-18.76
					c0-10.363,8.398-18.762,18.76-18.762s18.762,8.398,18.762,18.762C119.279,90.537,110.879,98.938,100.518,98.938z"/>
			</g>
		</g>
		<g>
			<g>
				<path fill="#626463" d="M100.518,77.848c-1.287,0-2.33,1.043-2.33,2.33c0,1.285,1.043,2.33,2.33,2.33s2.33-1.045,2.33-2.33
					C102.848,78.891,101.805,77.848,100.518,77.848z"/>
			</g>
		</g>
		<g>
			<g>
				<g>
					<rect x="100.15" y="60.682" fill="#626463" width="0.736" height="39.236"/>
				</g>
				<g>
					<rect x="80.898" y="79.934" fill="#626463" width="39.238" height="0.734"/>
				</g>
				<g>
					
						<rect x="80.899" y="79.932" transform="matrix(0.7071 0.7071 -0.7071 0.7071 86.2169 -47.5569)" fill="#626463" width="39.238" height="0.735"/>
				</g>
				<g>
					
						<rect x="100.15" y="60.682" transform="matrix(0.7071 0.7071 -0.7071 0.7071 86.2224 -47.5578)" fill="#626463" width="0.737" height="39.238"/>
				</g>
			</g>
			<g>
				<g>
					
						<rect x="100.149" y="60.682" transform="matrix(0.9231 0.3846 -0.3846 0.9231 38.6167 -32.4837)" fill="#626463" width="0.736" height="39.236"/>
				</g>
				<g>
					
						<rect x="80.899" y="79.933" transform="matrix(0.923 0.3848 -0.3848 0.923 38.6365 -32.4943)" fill="#626463" width="39.238" height="0.736"/>
				</g>
				<g>
					
						<rect x="80.899" y="79.932" transform="matrix(0.3806 0.9247 -0.9247 0.3806 136.5184 -43.2145)" fill="#626463" width="39.238" height="0.735"/>
				</g>
				<g>
					
						<rect x="100.151" y="60.682" transform="matrix(0.381 0.9246 -0.9246 0.381 136.4621 -43.2306)" fill="#626463" width="0.733" height="39.237"/>
				</g>
			</g>
		</g>
		<g>
			<path fill="#357180" d="M100.518,80.545c-0.49,0-0.938-0.328-1.066-0.824L88.17,36.559c-0.154-0.59,0.199-1.193,0.789-1.346
				c0.586-0.156,1.191,0.197,1.346,0.789l11.281,43.16c0.154,0.59-0.199,1.193-0.789,1.348
				C100.703,80.533,100.609,80.545,100.518,80.545z"/>
		</g>
		<g>
			<path fill="#357180" d="M63.854,81.158c-0.488,0-0.934-0.326-1.066-0.82L51.998,39.627c-0.156-0.588,0.193-1.193,0.783-1.35
				c0.592-0.154,1.193,0.195,1.35,0.785l10.791,40.709c0.156,0.588-0.195,1.193-0.785,1.35
				C64.043,81.146,63.947,81.158,63.854,81.158z"/>
		</g>
		<g>
			<path fill="#357180" d="M55.025,46.58c-0.592,0-1.08-0.469-1.102-1.064c-0.021-0.609,0.453-1.121,1.063-1.143l36.051-1.287
				c0.604-0.043,1.119,0.453,1.143,1.063c0.021,0.609-0.455,1.121-1.064,1.143l-36.049,1.287
				C55.053,46.58,55.039,46.58,55.025,46.58z"/>
		</g>
		<g>
			<path fill="#357180" d="M36.879,80.422c-0.178,0-0.357-0.043-0.523-0.133c-0.537-0.289-0.738-0.957-0.447-1.494l17.9-33.23
				c0.289-0.535,0.959-0.736,1.496-0.447c0.535,0.289,0.736,0.959,0.447,1.496L37.85,79.842
				C37.65,80.213,37.27,80.422,36.879,80.422z"/>
		</g>
		<g>
			<path fill="#357180" d="M37.514,79.67c-0.275,0-0.539-0.154-0.666-0.42L26.404,57.318c-0.174-0.367-0.02-0.807,0.348-0.98
				c0.369-0.176,0.807-0.02,0.98,0.348l10.445,21.934c0.174,0.365,0.02,0.805-0.348,0.98C37.727,79.646,37.619,79.67,37.514,79.67z"
				/>
		</g>
		<g>
			<g>
				<path fill="#357180" d="M70.229,81.402c-0.371,0-0.748-0.113-1.074-0.348c-0.822-0.594-1.01-1.744-0.414-2.568l22.396-31.109
					c0.596-0.824,2.762,2.52,2.168,3.344L71.723,80.639C71.363,81.137,70.801,81.402,70.229,81.402z"/>
			</g>
		</g>
		<g>
			<path fill="#626463" d="M58.662,73.711c-10.094,0-23.01,2.918-23.01,6.52s12.916,6.52,23.01,6.52
				c10.096,0,13.549-2.918,13.549-6.52S68.758,73.711,58.662,73.711z"/>
		</g>
		<g>
			<path fill="#626463" d="M56.973,35.805c-0.621-0.207-1.348-0.355-2.141-0.438c-0.887-0.117-1.781-0.154-2.627-0.068
				c-0.297,0.031-0.576,0.078-0.846,0.135c-3.713,0.484-6.52,2.17-6.348,3.867c0.174,1.727,3.359,2.82,7.174,2.502
				c0.73,0.002,1.504-0.035,2.307-0.115c4.092-0.416,7.301-1.818,7.168-3.131C61.578,37.736,59.51,36.51,56.973,35.805z"/>
		</g>
		<g>
			<g>
				<circle fill="#818282" cx="65.817" cy="80.055" r="3.556"/>
			</g>
			<g>
				<circle fill="#818282" cx="65.816" cy="80.055" r="1.717"/>
				<path fill="#4B4A4B" d="M65.816,82.139c-1.148,0-2.084-0.934-2.084-2.084s0.936-2.084,2.084-2.084
					c1.15,0,2.084,0.934,2.084,2.084S66.967,82.139,65.816,82.139z M65.816,78.707c-0.744,0-1.348,0.604-1.348,1.348
					s0.604,1.35,1.348,1.35s1.35-0.605,1.35-1.35S66.561,78.707,65.816,78.707z"/>
			</g>
			<g>
				<path fill="#818282" d="M69.678,88.732c0.225,0.639,0.102,1.262-0.271,1.393l0,0c-0.375,0.131-0.859-0.279-1.084-0.918
					l-2.92-8.332c-0.225-0.639-0.102-1.264,0.271-1.393l0,0c0.375-0.131,0.859,0.279,1.084,0.918L69.678,88.732z"/>
			</g>
			<g>
				<ellipse fill="#626463" cx="69.036" cy="89.924" rx="3.157" ry="1.227"/>
			</g>
		</g>
		<g>
			<path fill="#357180" d="M49.447,56.543c0,0.768-0.453,1.391-1.012,1.391H27.1c-0.559,0-1.012-0.623-1.012-1.391l0,0
				c0-0.77,0.453-1.393,1.012-1.393h21.336C48.994,55.15,49.447,55.773,49.447,56.543L49.447,56.543z"/>
		</g>
		<g>
			<path fill="#357180" d="M102.947,37.646c-0.246,0.506-0.943,0.676-1.553,0.377l-17.791-8.701
				c-0.611-0.299-0.906-0.951-0.658-1.457l0,0c0.248-0.508,0.945-0.676,1.555-0.377l17.791,8.701
				C102.902,36.486,103.195,37.141,102.947,37.646L102.947,37.646z"/>
		</g>
		<g>
			<path fill="#626463" d="M85.15,28.545c0.045,0.715-0.076,1.303-0.266,1.314l-5.539,0.33c-0.189,0.01-0.379-0.561-0.42-1.275l0,0
				c-0.043-0.715,0.076-1.303,0.266-1.314l5.539-0.33C84.92,27.258,85.109,27.83,85.15,28.545L85.15,28.545z"/>
		</g>
		<g>
			<path fill="#626463" d="M101.17,36.277c0.662-0.273,1.26-0.35,1.33-0.176l2.113,5.131c0.072,0.176-0.408,0.541-1.068,0.813l0,0
				c-0.664,0.273-1.258,0.35-1.332,0.176l-2.111-5.133C100.029,36.914,100.508,36.549,101.17,36.277L101.17,36.277z"/>
		</g>
		<g>
			<path fill="#357180" d="M93.27,32.457c0.383,0.414,0.572,0.861,0.424,0.998l-4.314,3.982c-0.146,0.139-0.576-0.088-0.959-0.502
				l0,0c-0.385-0.414-0.574-0.861-0.426-0.998l4.314-3.982C92.455,31.818,92.887,32.043,93.27,32.457L93.27,32.457z"/>
		</g>
		<g>
			<path fill="#357180" d="M98.555,50.469h-0.84c-1.975,0-3.574,1.6-3.574,3.572c0,1.975,1.6,3.574,3.574,3.574h0.84
				C100.529,57.615,100.529,50.469,98.555,50.469z"/>
		</g>
	</g>
</g>
</svg>
