<?xml version="1.0" encoding="utf-8"?>
<!-- Generator: Adobe Illustrator 16.0.0, SVG Export Plug-In . SVG Version: 6.00 Build 0)  -->
<!DOCTYPE svg PUBLIC "-//W3C//DTD SVG 1.1//EN" "http://www.w3.org/Graphics/SVG/1.1/DTD/svg11.dtd">
<svg version="1.1" id="Layer_1" xmlns="http://www.w3.org/2000/svg" xmlns:xlink="http://www.w3.org/1999/xlink" x="0px" y="0px"
     width="136.913px" height="136.913px" viewBox="0 0 136.913 136.913" enable-background="new 0 0 136.913 136.913"
     xml:space="preserve">
<g>
	<g>
		<g>
			<g>
				<g>
					<g>
						<path fill="#F9A72F" d="M5.121,68.457c0-34.982,28.356-63.336,63.337-63.336c34.978,0,63.334,28.354,63.334,63.336
							c0,34.979-28.356,63.336-63.334,63.336C33.478,131.793,5.121,103.436,5.121,68.457z"/>
					</g>
				</g>
			</g>
		</g>
	</g>
	<g>
		<g>
			<g>
				<g>
					<path fill="#9F7534" d="M85.312,104.178c0-6.289,2.316-8.129,2.316-13.166c0-11.109-8.501-13.584-18.986-13.584
						c-10.486,0-18.987,2.475-18.987,13.584c0,5.037,2.316,7.074,2.316,13.166c0,6.09-7.185,11.939-7.185,20.189
						c0,1.033,0.079,1.988,0.193,2.91c7.263,2.902,15.18,4.516,23.479,4.516c8.445,0,16.498-1.668,23.865-4.668
						c0.102-0.877,0.172-1.783,0.172-2.758C92.495,116.117,85.312,110.467,85.312,104.178z"/>
				</g>
			</g>
			<g>
				<circle fill="#8C652E" cx="68.499" cy="95.271" r="8.315"/>
			</g>
			<g>
				<circle fill="#644421" cx="68.499" cy="95.271" r="6.165"/>
			</g>
			<g>
				<g>
					<path fill="#644421" d="M68.472,101.436c-0.276,0-0.542-0.035-0.811-0.063C67.927,101.41,68.195,101.436,68.472,101.436z"/>
				</g>
				<g>
					<path fill="#644421" d="M68.497,101.438c0.303,0,0.597-0.029,0.887-0.07c-0.295,0.031-0.586,0.07-0.891,0.07
						C68.493,101.438,68.496,101.438,68.497,101.438z"/>
				</g>
				<g>
					<path fill="#714D22" d="M68.489,101.438h0.004c-0.008,0-0.014-0.002-0.021-0.002C68.478,101.436,68.483,101.438,68.489,101.438
						z"/>
				</g>
				<g>
					<path fill="#714D22" d="M73.249,91.346l-0.01-0.758l-1.341-59.617h-6.704l-1.34,59.531l-0.009,0.734l-0.096,7.967
						c0.963,1.16,2.344,1.957,3.911,2.17c0.269,0.027,0.534,0.063,0.811,0.063c0.008,0,0.014,0.002,0.021,0.002
						c0.305,0,0.596-0.039,0.891-0.07c1.603-0.232,3.002-1.074,3.959-2.291L73.249,91.346z"/>
				</g>
			</g>
		</g>
		<g>
			<g>
				<path fill="#714D22" d="M68.476,17.971c-2.393,0-4.332,0.881-4.332,3.502v8.668c0,2.621,1.939,4.748,4.332,4.748
					s4.333-2.127,4.333-4.748v-8.668C72.809,18.852,70.868,17.971,68.476,17.971z"/>
			</g>
			<g>
				<path fill="#714D22" d="M68.476,17.602c-0.142,0-0.644-0.33-1.194-0.318c-0.513,0.01-1.686,1.701-1.686,1.701
					c0,2.621,1.288,4.748,2.88,4.748s2.881-2.127,2.881-4.748c0,0-1.234-1.711-1.74-1.709
					C69.092,17.279,68.634,17.602,68.476,17.602z"/>
			</g>
		</g>
		<g>
			<path fill="#8C652E" d="M80.015,120.264c0,0.791-0.642,1.434-1.433,1.434H59.039c-0.79,0-1.432-0.643-1.432-1.434l0,0
				c0-0.791,0.642-1.432,1.432-1.432h19.543C79.373,118.832,80.015,119.473,80.015,120.264L80.015,120.264z"/>
		</g>
		<g>
			<path fill="#7A5628" d="M75.77,120.264c0,0.49-0.399,0.889-0.89,0.889H62.741c-0.49,0-0.89-0.398-0.89-0.889l0,0
				c0-0.49,0.399-0.889,0.89-0.889H74.88C75.37,119.375,75.77,119.773,75.77,120.264L75.77,120.264z"/>
		</g>
		<g opacity="0.5">
			<g>
				<g>
					<polygon fill="#D2D2D2" points="65.179,120.467 64.798,120.467 65.745,27.676 66.047,27.676 					"/>
				</g>
			</g>
			<g>
				<g>
					<polygon fill="#D2D2D2" points="70.874,120.385 70.494,120.385 70.011,23.938 70.312,23.938 					"/>
				</g>
			</g>
			<g>
				<g>
					<polygon fill="#D2D2D2" points="72.317,120.389 71.936,120.389 71.03,27.738 71.331,27.738 					"/>
				</g>
			</g>
			<g>
				<g>
					<polygon fill="#D2D2D2" points="66.673,120.406 66.292,120.406 66.823,23.984 67.125,23.984 					"/>
				</g>
			</g>
			<g>
				<g>
					<polygon fill="#D2D2D2" points="69.473,120.467 69.092,120.467 68.947,20.336 69.249,20.336 					"/>
				</g>
			</g>
			<g>
				<g>
					<polygon fill="#D2D2D2" points="67.968,120.467 67.587,120.467 67.875,20.369 68.177,20.369 					"/>
				</g>
			</g>
		</g>
		<g>
			<g>
				<path fill="#60441D" d="M73.43,21.223c-0.268,0-0.483-0.098-0.483-0.223v-1.211c0-0.125,0.216-0.225,0.483-0.225l0,0
					c0.269,0,0.484,0.1,0.484,0.225V21C73.914,21.125,73.698,21.223,73.43,21.223L73.43,21.223z"/>
			</g>
			<g>
				<path fill="#60441D" d="M73.43,25.094c-0.268,0-0.483-0.098-0.483-0.223V23.66c0-0.125,0.216-0.225,0.483-0.225l0,0
					c0.269,0,0.484,0.1,0.484,0.225v1.211C73.914,24.996,73.698,25.094,73.43,25.094L73.43,25.094z"/>
			</g>
			<g>
				<g>
					<path fill="#60441D" d="M73.154,27.467h-1.755c-0.267,0-0.483,0.217-0.483,0.484s0.217,0.484,0.483,0.484h1.755
						c0.268,0,0.483-0.217,0.483-0.484S73.422,27.467,73.154,27.467z"/>
				</g>
				<g>
					<path fill="#60441D" d="M73.43,28.781c-0.268,0-0.483-0.1-0.483-0.223v-1.211c0-0.125,0.216-0.227,0.483-0.227l0,0
						c0.269,0,0.484,0.102,0.484,0.227v1.211C73.914,28.682,73.698,28.781,73.43,28.781L73.43,28.781z"/>
				</g>
			</g>
			<g>
				<path fill="#60441D" d="M63.454,21.223c0.268,0,0.483-0.098,0.483-0.223v-1.211c0-0.125-0.216-0.225-0.483-0.225l0,0
					c-0.268,0-0.484,0.1-0.484,0.225V21C62.97,21.125,63.187,21.223,63.454,21.223L63.454,21.223z"/>
			</g>
			<g>
				<path fill="#60441D" d="M63.454,25.094c0.268,0,0.483-0.098,0.483-0.223V23.66c0-0.125-0.216-0.225-0.483-0.225l0,0
					c-0.268,0-0.484,0.1-0.484,0.225v1.211C62.97,24.996,63.187,25.094,63.454,25.094L63.454,25.094z"/>
			</g>
			<g>
				<g>
					<g>
						<path fill="#60441D" d="M73.638,20.393c0-0.268-0.216-0.482-0.483-0.482h-4.033c-0.268,0-0.483,0.215-0.483,0.482
							c0,0.27,0.216,0.484,0.483,0.484h4.033C73.422,20.877,73.638,20.662,73.638,20.393z"/>
					</g>
					<g>
						<path fill="#60441D" d="M73.154,23.781h-2.797c-0.268,0-0.484,0.215-0.484,0.484c0,0.268,0.217,0.482,0.484,0.482h2.797
							c0.268,0,0.483-0.215,0.483-0.482C73.638,23.996,73.422,23.781,73.154,23.781z"/>
					</g>
					<g>
						<path fill="#60441D" d="M67.993,19.91H63.73c-0.268,0-0.484,0.215-0.484,0.482c0,0.27,0.217,0.484,0.484,0.484h4.263
							c0.268,0,0.483-0.215,0.483-0.484C68.477,20.125,68.261,19.91,67.993,19.91z"/>
					</g>
					<g>
						<path fill="#60441D" d="M66.767,23.781H63.73c-0.268,0-0.484,0.215-0.484,0.484c0,0.268,0.217,0.482,0.484,0.482h3.036
							c0.27,0,0.484-0.215,0.484-0.482C67.251,23.996,67.036,23.781,66.767,23.781z"/>
					</g>
					<g>
						<path fill="#60441D" d="M65.725,27.467H63.73c-0.268,0-0.484,0.217-0.484,0.484s0.217,0.484,0.484,0.484h1.994
							c0.269,0,0.483-0.217,0.483-0.484S65.993,27.467,65.725,27.467z"/>
					</g>
				</g>
				<g>
					<path fill="#60441D" d="M63.454,28.781c0.268,0,0.483-0.1,0.483-0.223v-1.211c0-0.125-0.216-0.227-0.483-0.227l0,0
						c-0.268,0-0.484,0.102-0.484,0.227v1.211C62.97,28.682,63.187,28.781,63.454,28.781L63.454,28.781z"/>
				</g>
			</g>
		</g>
		<g>
			<g>
				<circle fill="#543A1A" cx="67.797" cy="20.416" r="0.632"/>
			</g>
			<g>
				<circle fill="#543A1A" cx="69.25" cy="20.416" r="0.632"/>
			</g>
			<g>
				<circle fill="#543A1A" cx="66.881" cy="24.24" r="0.632"/>
			</g>
			<g>
				<circle fill="#543A1A" cx="70.166" cy="24.24" r="0.632"/>
			</g>
			<g>
				<circle fill="#543A1A" cx="65.838" cy="27.967" r="0.632"/>
			</g>
			<g>
				<circle fill="#543A1A" cx="71.208" cy="27.967" r="0.633"/>
			</g>
		</g>
	</g>
</g>
</svg>
