<?xml version="1.0" encoding="utf-8"?>
<!-- Generator: Adobe Illustrator 16.0.0, SVG Export Plug-In . SVG Version: 6.00 Build 0)  -->
<!DOCTYPE svg PUBLIC "-//W3C//DTD SVG 1.1//EN" "http://www.w3.org/Graphics/SVG/1.1/DTD/svg11.dtd">
<svg version="1.1" id="Layer_1" xmlns="http://www.w3.org/2000/svg" xmlns:xlink="http://www.w3.org/1999/xlink" x="0px" y="0px"
     width="136.913px" height="136.913px" viewBox="0 0 136.913 136.913" enable-background="new 0 0 136.913 136.913"
     xml:space="preserve">
<g>
	<g>
		<g>
			<circle fill="#4ABC96" cx="68.456" cy="68.456" r="63.333"/>
		</g>
	</g>
	<g>
		<g>
			<path fill="#787878" d="M80.039,105.81c-1.105,0-2.186-0.551-2.818-1.553L38.725,43.103l-8.488,4.688
				c-1.607,0.89-3.633,0.306-4.52-1.304c-0.889-1.608-0.305-3.631,1.303-4.52l11.238-6.207c1.543-0.852,3.482-0.354,4.424,1.139
				l38.396,60.996l21.584-13.586c1.561-0.977,3.611-0.51,4.588,1.043c0.98,1.555,0.512,3.609-1.043,4.59L81.809,105.3
				C81.258,105.646,80.645,105.81,80.039,105.81z"/>
		</g>
		<g>
			<g>
				<path fill="#9A8671" d="M106.078,78.304c1.006,1.605,0.521,3.723-1.082,4.729L84.031,96.175
					c-1.605,1.008-3.721,0.521-4.729-1.082L66.16,74.126c-1.006-1.604-0.521-3.721,1.084-4.725l20.961-13.145
					c1.605-1.006,3.723-0.521,4.73,1.083L106.078,78.304z"/>
			</g>
			<polygon fill="#C1AA9A" points="84.375,74.728 84.182,73.526 85.391,73.972 85.391,72.901 86.471,73.167 86.391,72.276 
				87.342,72.519 79.359,61.804 75.678,64.112 83.867,75.106 			"/>
			<g>
				<polygon fill="#C1AA9A" points="85.053,63.808 86.27,63.742 85.697,64.896 86.762,65.012 86.383,66.056 87.277,66.072 
					86.938,66.992 95.727,61.792 93.424,58.12 84.73,63.263 				"/>
			</g>
			<g>
				<path fill="#A78F7E" d="M81.41,57.747c0.688,1.1,0.357,2.547-0.74,3.234l-14.344,8.994c-1.1,0.688-2.547,0.355-3.234-0.742
					L54.096,54.89c-0.686-1.096-0.354-2.545,0.744-3.232l14.342-8.994c1.1-0.689,2.547-0.357,3.236,0.74L81.41,57.747z"/>
			</g>
		</g>
		<g>
			<g>
				<circle fill="#5B5B5B" cx="80.036" cy="100.267" r="9.765"/>
			</g>
			<g>
				<circle fill="#6C6C6B" cx="80.037" cy="100.267" r="3.48"/>
			</g>
		</g>
	</g>
</g>
</svg>
