<?xml version="1.0" encoding="utf-8"?>
<!-- Generator: Adobe Illustrator 16.0.0, SVG Export Plug-In . SVG Version: 6.00 Build 0)  -->
<!DOCTYPE svg PUBLIC "-//W3C//DTD SVG 1.1//EN" "http://www.w3.org/Graphics/SVG/1.1/DTD/svg11.dtd">
<svg version="1.1" id="Layer_1" xmlns="http://www.w3.org/2000/svg" xmlns:xlink="http://www.w3.org/1999/xlink" x="0px" y="0px"
     width="136.913px" height="136.914px" viewBox="0 0 136.913 136.914" enable-background="new 0 0 136.913 136.914"
     xml:space="preserve">
<g>
	<g>
		<circle fill="#A2D4DE" cx="68.457" cy="68.458" r="63.333"/>
	</g>
	<g>
		<path fill="#65A844" d="M5.124,68.458H131.79c0,34.977-28.355,63.332-63.334,63.332C33.479,131.79,5.124,103.435,5.124,68.458z"/>
	</g>
	<g>
		<g>
			<path fill="#FFFFFF" d="M34.081,45.462h66.979c4.439,0,8.037,3.598,8.037,8.036v45.274h4.41V49.695
				c0-4.928-3.996-8.923-8.924-8.923H30.224c-4.928,0-8.924,3.995-8.924,8.923v49.077h4.744V53.498
				C26.044,49.06,29.644,45.462,34.081,45.462z"/>
		</g>
		<g>
			<polygon fill="#FFFFFF" points="47.06,76.738 88.989,76.738 109.29,98.438 112.052,98.438 91.196,73.773 44.646,73.773 
				22.927,98.106 25.897,98.106 			"/>
		</g>
		<g>
			<g>
				<g>
					
						<rect x="19.838" y="59.543" transform="matrix(0.5073 0.8617 -0.8617 0.5073 69.7687 -1.9523)" fill="#FFFFFF" width="33.508" height="1"/>
				</g>
				<g>
					
						<rect x="82.463" y="59.543" transform="matrix(-0.5073 0.8617 -0.8617 -0.5073 201.2956 5.0062)" fill="#FFFFFF" width="33.508" height="1"/>
				</g>
				<g>
					<rect x="66.968" y="43.605" fill="#FFFFFF" width="1" height="31.5"/>
				</g>
				<g>
					
						<rect x="74.342" y="43.605" transform="matrix(0.999 0.0449 -0.0449 0.999 2.7391 -3.2989)" fill="#FFFFFF" width="1.001" height="31.501"/>
				</g>
				<g>
					
						<rect x="80.967" y="43.606" transform="matrix(0.9973 0.0733 -0.0733 0.9973 4.572 -5.8143)" fill="#FFFFFF" width="0.999" height="31.5"/>
				</g>
				<g>
					
						<rect x="89.592" y="43.606" transform="matrix(0.96 0.28 -0.28 0.96 20.2234 -22.8517)" fill="#FFFFFF" width="1.001" height="31.5"/>
				</g>
				<g>
					
						<rect x="60.517" y="43.605" transform="matrix(-0.999 0.045 -0.045 -0.999 124.6404 115.9064)" fill="#FFFFFF" width="0.999" height="31.501"/>
				</g>
				<g>
					
						<rect x="53.89" y="43.605" transform="matrix(-0.9973 0.0732 -0.0732 -0.9973 112.9795 114.571)" fill="#FFFFFF" width="1.001" height="31.5"/>
				</g>
				<g>
					
						<rect x="45.267" y="43.606" transform="matrix(-0.9598 0.2805 -0.2805 -0.9598 106.3464 103.4899)" fill="#FFFFFF" width="0.999" height="31.499"/>
				</g>
				<g>
					<rect x="31.343" y="50.73" fill="#FFFFFF" width="73.375" height="1"/>
				</g>
				<g>
					<rect x="34.968" y="56.855" fill="#FFFFFF" width="66.125" height="1"/>
				</g>
				<g>
					<rect x="38.218" y="62.605" fill="#FFFFFF" width="59.625" height="1"/>
				</g>
				<g>
					<rect x="41.677" y="67.98" fill="#FFFFFF" width="52.707" height="1"/>
				</g>
			</g>
			<g>
				<g>
					<g>
						
							<rect x="89.666" y="77.606" transform="matrix(0.6508 0.7593 -0.7593 0.6508 95.0411 -50.4293)" fill="#FFFFFF" width="25.354" height="0.999"/>
					</g>
					<g>
						
							<rect x="94.488" y="69.855" transform="matrix(0.6809 0.7323 -0.7323 0.6809 84.7748 -53.8743)" fill="#FFFFFF" width="19.458" height="1.001"/>
					</g>
					<g>
						
							<rect x="99.376" y="60.793" transform="matrix(0.7395 0.6731 -0.6731 0.7395 68.8625 -55.3655)" fill="#FFFFFF" width="13.184" height="1"/>
					</g>
					<g>
						
							<rect x="103.568" y="52.543" transform="matrix(0.8459 0.5333 -0.5333 0.8459 44.7687 -48.8729)" fill="#FFFFFF" width="6.797" height="1"/>
					</g>
					<g>
						
							<rect x="102.031" y="49.244" transform="matrix(0.8445 0.5356 -0.5356 0.8445 50.8851 -44.7707)" fill="#FFFFFF" width="0.999" height="31.973"/>
					</g>
					<g>
						
							<rect x="104.217" y="57.282" transform="matrix(0.8465 0.5325 -0.5325 0.8465 54.2047 -44.7628)" fill="#FFFFFF" width="1.001" height="28.647"/>
					</g>
					<g>
						
							<rect x="105.53" y="70.398" transform="matrix(0.8473 0.5311 -0.5311 0.8473 58.6272 -44.1072)" fill="#FFFFFF" width="1" height="19.04"/>
					</g>
					<g>
						
							<rect x="107.779" y="80.57" transform="matrix(0.8335 0.5524 -0.5524 0.8335 65.9716 -45.3716)" fill="#FFFFFF" width="1.001" height="12.446"/>
					</g>
				</g>
				<g>
					<g>
						
							<rect x="20.917" y="77.605" transform="matrix(-0.6508 0.7593 -0.7593 -0.6508 114.7584 103.4296)" fill="#FFFFFF" width="25.354" height="1"/>
					</g>
					<g>
						
							<rect x="21.99" y="69.855" transform="matrix(-0.6809 0.7323 -0.7323 -0.6809 104.8413 95.0348)" fill="#FFFFFF" width="19.458" height="1.001"/>
					</g>
					<g>
						
							<rect x="23.377" y="60.792" transform="matrix(-0.7395 0.6731 -0.6731 -0.7395 93.39 86.4465)" fill="#FFFFFF" width="13.184" height="1.001"/>
					</g>
					<g>
						
							<rect x="25.57" y="52.543" transform="matrix(-0.8459 0.5333 -0.5333 -0.8459 81.762 82.4643)" fill="#FFFFFF" width="6.797" height="1"/>
					</g>
					<g>
						
							<rect x="32.906" y="49.244" transform="matrix(-0.845 0.5347 -0.5347 -0.845 96.5159 102.4886)" fill="#FFFFFF" width="1.001" height="31.973"/>
					</g>
					<g>
						
							<rect x="30.719" y="57.282" transform="matrix(-0.8459 0.5333 -0.5333 -0.8459 95.8163 115.5271)" fill="#FFFFFF" width="1" height="28.647"/>
					</g>
					<g>
						
							<rect x="29.407" y="70.398" transform="matrix(-0.8468 0.5319 -0.5319 -0.8468 97.7414 131.6834)" fill="#FFFFFF" width="0.999" height="19.04"/>
					</g>
					<g>
						
							<rect x="27.156" y="80.57" transform="matrix(-0.8335 0.5524 -0.5524 -0.8335 98.6575 143.8606)" fill="#FFFFFF" width="1.001" height="12.446"/>
					</g>
				</g>
			</g>
		</g>
	</g>
</g>
</svg>
