<?xml version="1.0" encoding="utf-8"?>
<!-- Generator: Adobe Illustrator 16.0.0, SVG Export Plug-In . SVG Version: 6.00 Build 0)  -->
<!DOCTYPE svg PUBLIC "-//W3C//DTD SVG 1.1//EN" "http://www.w3.org/Graphics/SVG/1.1/DTD/svg11.dtd">
<svg version="1.1" id="Layer_1" xmlns="http://www.w3.org/2000/svg" xmlns:xlink="http://www.w3.org/1999/xlink" x="0px" y="0px"
     width="136.913px" height="136.914px" viewBox="0 0 136.913 136.914" enable-background="new 0 0 136.913 136.914"
     xml:space="preserve">
<g>
	<g>
		<circle fill="#F2B800" cx="68.456" cy="68.457" r="63.333"/>
	</g>
	<g>
		<path fill="#2B6671" d="M101.326,40.361c-7.932-9.271-19.709-15.154-32.869-15.154c-23.887,0-43.25,19.363-43.25,43.25
			c0,13.539,6.227,25.619,15.965,33.549c7.441,6.063,16.938,9.701,27.285,9.701c23.887,0,43.25-19.363,43.25-43.25
			C111.707,57.727,107.795,47.92,101.326,40.361z"/>
		<g>
			<path fill="#357180" d="M88.453,88.727c13.582-13.58,18.025-32.539,12.934-48.365C93.453,31.09,81.678,25.207,68.52,25.207
				c-23.887,0-43.252,19.363-43.252,43.25c0,13.539,6.225,25.619,15.965,33.549C56.82,106.531,75.199,101.98,88.453,88.727z"/>
		</g>
		<g>
			<g>
				<g>
					<path fill="#235D64" d="M53.627,51.977c1.727-1.727,4.082-2.215,5.527-1.238c-0.225-0.584-0.568-1.125-1.035-1.59
						c-1.896-1.898-5.074-1.799-7.096,0.223s-2.121,5.199-0.225,7.096c0.465,0.465,1.008,0.809,1.59,1.035
						C51.412,56.057,51.904,53.701,53.627,51.977z"/>
					<path fill="#122528" d="M57.896,56.244c1.527-1.525,1.957-3.711,1.258-5.506c-1.445-0.977-3.801-0.488-5.527,1.238
						c-1.723,1.725-2.215,4.08-1.238,5.525C54.186,58.201,56.369,57.771,57.896,56.244z"/>
				</g>
				<g>
					<path fill="#235D64" d="M65.904,45.088c2.436,0.123,4.379,1.541,4.625,3.268c0.281-0.557,0.453-1.176,0.484-1.832
						c0.137-2.68-2.068-4.971-4.924-5.115s-5.279,1.912-5.414,4.594c-0.033,0.656,0.076,1.289,0.299,1.871
						C61.393,46.18,63.467,44.965,65.904,45.088z"/>
					<path fill="#122528" d="M65.6,51.117c2.156,0.107,4.064-1.039,4.93-2.762c-0.246-1.727-2.189-3.145-4.625-3.268
						c-2.438-0.123-4.512,1.092-4.93,2.785C61.66,49.676,63.443,51.008,65.6,51.117z"/>
				</g>
				<g>
					<path fill="#235D64" d="M81.396,79.375c-1.813,1.811-4.283,2.324-5.803,1.301c0.238,0.611,0.6,1.18,1.086,1.67
						c1.994,1.99,5.328,1.887,7.451-0.236c2.121-2.121,2.227-5.457,0.236-7.449c-0.488-0.488-1.059-0.848-1.67-1.086
						C83.723,75.092,83.207,77.563,81.396,79.375z"/>
					<path fill="#122528" d="M76.916,74.895c-1.604,1.604-2.055,3.895-1.322,5.781c1.52,1.023,3.99,0.51,5.803-1.301
						c1.811-1.813,2.326-4.283,1.301-5.801C80.813,72.84,78.518,73.291,76.916,74.895z"/>
				</g>
			</g>
		</g>
	</g>
</g>
</svg>
