<?xml version="1.0" encoding="utf-8"?>
<!-- Generator: Adobe Illustrator 16.0.0, SVG Export Plug-In . SVG Version: 6.00 Build 0)  -->
<!DOCTYPE svg PUBLIC "-//W3C//DTD SVG 1.1//EN" "http://www.w3.org/Graphics/SVG/1.1/DTD/svg11.dtd">
<svg version="1.1" id="Layer_1" xmlns="http://www.w3.org/2000/svg" xmlns:xlink="http://www.w3.org/1999/xlink" x="0px" y="0px"
     width="136.913px" height="136.914px" viewBox="0 0 136.913 136.914" enable-background="new 0 0 136.913 136.914"
     xml:space="preserve">
<g>
	<g>
		<g>
			<g>
				<circle fill="#65A844" cx="68.456" cy="68.457" r="63.333"/>
			</g>
		</g>
	</g>
	<g>
		<path fill="#E0E0E0" d="M100.611,40.133c-7.994-9.342-19.861-15.27-33.121-15.27c-24.07,0-43.584,19.512-43.584,43.582
			c0,13.643,6.273,25.816,16.086,33.809c7.502,6.107,17.07,9.775,27.498,9.775c24.07,0,43.582-19.512,43.582-43.584
			C111.072,57.635,107.129,47.75,100.611,40.133z"/>
		<g>
			<path fill="#FFFFFF" d="M87.58,88.871c13.684-13.686,18.162-32.789,13.031-48.738c-7.994-9.342-19.861-15.27-33.121-15.27
				c-24.07,0-43.584,19.512-43.584,43.582c0,13.643,6.273,25.816,16.086,33.809C55.703,106.814,74.223,102.229,87.58,88.871z"/>
		</g>
		<g>
			<path fill="#3A3A39" d="M43.717,46.537c0,0,5.838-9.072,13.826-11.227c0,0,7.066-0.463,14.902,5.846
				c0,0-2.918,14.605-3.84,15.836c0,0-17.053,3.998-17.975,4.459C50.631,61.451,45.252,53.916,43.717,46.537z"/>
			<path fill="#3A3A39" d="M88.887,30.543v8.459c0,0,9.678,7.227,11.828,13.686l7.682,0.615
				C108.396,53.303,103.943,38.695,88.887,30.543z"/>
			<path fill="#3A3A39" d="M81.51,70.832l15.672-2c0,0,3.688,6.459,3.688,15.838c0,0-6.914,9.383-12.906,11.689l-12.598-7.537
				L81.51,70.832z"/>
			<path fill="#3A3A39" d="M44.484,78.674c0,0,6.914,9.686,12.137,13.838l-4.453,10.611c0,0-9.373-1.076-13.98-4.922
				c0,0-5.379-6.457-5.379-15.836L44.484,78.674z"/>
			<path fill="#3A3A39" d="M23.59,67.295h2.613c0,0,0.766-10.611,5.529-17.223v-6.92C31.732,43.152,24.818,51.305,23.59,67.295z"/>
			<path fill="#3A3A39" d="M64.949,111.973l0.121-1.008c0,0,13.982-1.846,18.746-4.613l1.924,1.684
				C85.74,108.035,77.115,112.703,64.949,111.973z"/>
			<path fill="#3A3A39" d="M52.934,27.16l4.303,0.154l3.92-2.029C61.156,25.285,56.775,25.777,52.934,27.16z"/>
			<g>
				<path fill="#3A3A39" d="M72.047,41.537l-0.092-0.451c0.514-0.105,12.66-2.508,17.395-2.369l-0.014,0.461
					C84.648,39.025,72.17,41.512,72.047,41.537z"/>
			</g>
			<g>
				<path fill="#3A3A39" d="M97.293,69.197l-0.348-0.301c2.984-3.438,3.625-16.223,3.631-16.352l0.461,0.023
					C101.012,53.1,100.383,65.643,97.293,69.197z"/>
			</g>
			<g>
				<polygon fill="#3A3A39" points="107.637,85.473 100.619,84.904 100.65,84.443 107.844,84.953 				"/>
			</g>
			<g>
				
					<rect x="65.239" y="63.742" transform="matrix(0.677 0.736 -0.736 0.677 71.3419 -34.6174)" fill="#3A3A39" width="19.744" height="0.462"/>
			</g>
			<g>
				<path fill="#3A3A39" d="M83.867,106.912l-0.342-0.307c1.334-1.484,4.357-10.555,4.387-10.646l0.438,0.148
					C88.227,96.484,85.266,105.359,83.867,106.912z"/>
			</g>
			<g>
				<path fill="#3A3A39" d="M56.016,92.918l-0.063-0.455c0.162-0.023,16.357-2.244,19.512-3.898l0.215,0.408
					C72.455,90.662,56.684,92.828,56.016,92.918z"/>
			</g>
			<g>
				<path fill="#3A3A39" d="M44.625,79.199l-0.443-0.123c0.176-0.633,4.318-15.545,6.322-18.016l0.359,0.289
					C48.918,63.746,44.668,79.047,44.625,79.199z"/>
			</g>
			<g>
				<path fill="#3A3A39" d="M65.373,111.367c-7.658-1.996-13.533-8.309-13.592-8.373l0.338-0.313
					c0.059,0.064,5.846,6.279,13.371,8.238L65.373,111.367z"/>
			</g>
			<g>
				<path fill="#3A3A39" d="M32.834,82.648c-7.361-7.217-7.158-15.602-7.154-15.684l0.461,0.014
					c-0.004,0.084-0.195,8.273,7.016,15.34L32.834,82.648z"/>
			</g>
			<g>
				<path fill="#3A3A39" d="M31.463,50.49l-0.277-0.367c0.055-0.041,5.512-4.094,13.342-3.795l-0.018,0.461
					C36.846,46.473,31.518,50.451,31.463,50.49z"/>
			</g>
			<g>
				
					<rect x="53.124" y="31.019" transform="matrix(0.0402 0.9992 -0.9992 0.0402 86.3389 -27.3847)" fill="#3A3A39" width="8.599" height="0.459"/>
			</g>
			<g>
				
					<rect x="37.405" y="97.565" transform="matrix(0.6701 0.7422 -0.7422 0.6701 85.6622 4.6178)" fill="#3A3A39" width="0.46" height="2.239"/>
			</g>
		</g>
		<g>
			<path fill="none" d="M75.645,88.99c-3.025,1.549-16.461,3.486-19.166,3.863l-4.197,9.996c0.195,0.199,0.574,0.576,1.117,1.074
				c10.131-0.262,20.482-3.857,29.277-10.729L75.645,88.99z"/>
			<path fill="none" d="M96.975,68.859c2.959-3.488,3.596-16.186,3.602-16.314l0.084,0.004
				c-2.047-5.867-10.152-12.299-11.547-13.375c-4.389-0.064-14.736,1.908-16.73,2.297c-0.406,2.006-2.68,13.137-3.631,15.25
				l12.957,14.086L96.975,68.859z"/>
			<path fill="none" d="M81.4,71.152L68.416,57.037c-1.775,0.416-15.547,3.658-17.568,4.332c-1.816,2.283-5.611,15.654-6.156,17.592
				c1.135,1.563,7.092,9.631,11.783,13.428c2.801-0.396,16.121-2.334,18.977-3.818L81.4,71.152z"/>
			<path fill="none" d="M43.775,46.783c-7.264-0.045-12.26,3.668-12.313,3.707l-0.01-0.014c-4.512,6.631-5.25,16.818-5.25,16.818
				h-0.061c0.039,1.539,0.582,8.684,6.967,14.975l11.166-3.529c0.641-2.285,4.268-15.041,6.154-17.578
				C49.469,59.758,45.195,53.25,43.775,46.783z"/>
			<path fill="none" d="M98.734,72.395c2.695-6.336,4.02-13.012,3.926-19.553l-1.629-0.129c-0.08,1.463-0.775,12.947-3.688,16.422
				C97.604,69.639,98.148,70.768,98.734,72.395z"/>
			<path fill="#3A3A39" d="M64.951,111.947l-0.002,0.025c12.166,0.73,20.791-3.938,20.791-3.938l-0.01-0.008
				c-5.551,2.563-11.727,4.002-18.24,4.002C66.637,112.029,65.793,111.996,64.951,111.947z"/>
			<path fill="#3A3A39" d="M57.48,26.943l0.01,0.238l3.666-1.896c0,0-4.381,0.492-8.223,1.875l4.102,0.146l-0.014-0.344
				L57.48,26.943z"/>
			<path fill="#3A3A39" d="M72.047,41.537c0.01-0.002,0.129-0.025,0.336-0.066c0.041-0.199,0.063-0.314,0.063-0.314
				c-0.059-0.049-0.115-0.086-0.174-0.133c-0.164,0.031-0.277,0.055-0.316,0.063L72.047,41.537z"/>
			<path fill="#3A3A39" d="M89.113,39.174c0.074,0.002,0.15,0.002,0.223,0.004l0.014-0.461c-0.148-0.004-0.303-0.006-0.463-0.006
				v0.291C88.887,39.002,88.98,39.072,89.113,39.174z"/>
			<path fill="#3A3A39" d="M101.031,52.713c0.002-0.068,0.006-0.121,0.006-0.145l-0.377-0.02c0.016,0.047,0.041,0.092,0.055,0.139
				L101.031,52.713z"/>
			<path fill="#3A3A39" d="M97.293,69.197c0.018-0.02,0.033-0.043,0.051-0.063c-0.104-0.199-0.162-0.303-0.162-0.303l-0.207,0.027
				c-0.01,0.012-0.02,0.025-0.029,0.037L97.293,69.197z"/>
			<path fill="#3A3A39" d="M107.621,85.473h0.016l0.207-0.52l-0.014-0.002C107.758,85.125,107.693,85.301,107.621,85.473z"/>
			<path fill="#3A3A39" d="M68.752,56.721l-0.154-0.17l-0.34,0.313l0.158,0.174c0.123-0.029,0.189-0.045,0.189-0.045
				C68.65,56.934,68.699,56.836,68.752,56.721z"/>
			<polygon fill="#3A3A39" points="81.963,71.082 81.709,70.807 81.51,70.832 81.4,71.152 81.625,71.395 			"/>
			<path fill="#3A3A39" d="M75.465,88.564c-0.004,0.002-0.01,0.004-0.014,0.006l-0.086,0.252l0.279,0.168
				c0.012-0.006,0.025-0.012,0.035-0.018L75.465,88.564z"/>
			<path fill="#3A3A39" d="M56.475,92.389c-0.316,0.045-0.506,0.072-0.521,0.074l0.063,0.455c0.055-0.008,0.219-0.029,0.463-0.064
				l0.143-0.342C56.574,92.475,56.523,92.428,56.475,92.389z"/>
			<path fill="#3A3A39" d="M50.848,61.369c0.006-0.006,0.01-0.014,0.016-0.02l-0.359-0.289c-0.023,0.029-0.049,0.068-0.074,0.102
				c0.123,0.182,0.201,0.289,0.201,0.289C50.67,61.432,50.75,61.402,50.848,61.369z"/>
			<path fill="#3A3A39" d="M44.275,78.74c-0.049,0.174-0.082,0.293-0.094,0.336l0.443,0.123c0.004-0.01,0.027-0.096,0.066-0.238
				c-0.123-0.17-0.207-0.287-0.207-0.287L44.275,78.74z"/>
			<path fill="#3A3A39" d="M52.281,102.85c-0.092-0.094-0.156-0.162-0.162-0.168l-0.338,0.313c0.004,0.004,0.033,0.035,0.084,0.09
				c0.182,0.023,0.303,0.039,0.303,0.039L52.281,102.85z"/>
			<path fill="#3A3A39" d="M33.156,82.318c-0.016-0.016-0.029-0.033-0.047-0.049l-0.301,0.096c0,0.09,0.008,0.176,0.01,0.266
				c0.006,0.006,0.01,0.012,0.016,0.018L33.156,82.318z"/>
			<path fill="#3A3A39" d="M26.141,66.979l-0.461-0.014c-0.002,0.008-0.002,0.133,0.002,0.33h0.461
				C26.139,67.109,26.139,66.988,26.141,66.979z"/>
			<path fill="#3A3A39" d="M43.775,46.783c0.244,0.002,0.484-0.004,0.734,0.006l0.018-0.461c-0.227-0.01-0.445-0.002-0.668-0.004
				c-0.084,0.125-0.143,0.213-0.143,0.213C43.734,46.619,43.758,46.701,43.775,46.783z"/>
			<path fill="#3A3A39" d="M31.453,50.477c0.092-0.135,0.184-0.271,0.279-0.404v-0.318c-0.346,0.221-0.537,0.361-0.547,0.369
				L31.453,50.477z"/>
			<path fill="#3A3A39" d="M57.826,35.535l-0.008-0.232c-0.174,0.002-0.275,0.008-0.275,0.008c-0.063,0.016-0.121,0.043-0.184,0.061
				l0.008,0.184L57.826,35.535z"/>
			<polygon fill="#3A3A39" points="57.49,27.182 57.48,26.943 57.021,26.963 57.035,27.307 57.236,27.314 			"/>
			<path fill="#3A3A39" d="M38.314,97.766l-0.275,0.248c0.086,0.113,0.148,0.188,0.148,0.188c0.057,0.049,0.121,0.09,0.18,0.137
				l0.256-0.229L38.314,97.766z"/>
			<g>
				<path fill="#2A2B2A" d="M108.359,53.299c-1.803-4.854-4.443-9.303-7.748-13.166c1.311,4.078,1.986,8.363,2.049,12.709
					L108.359,53.299z"/>
				<path fill="#2A2B2A" d="M98.734,72.395c-2.521,5.926-6.232,11.555-11.154,16.477c-1.566,1.566-3.209,3-4.904,4.324l5.133,3.072
					c-0.512,1.518-2.926,8.531-4.164,10.178c-4.424,2.443-15.924,4.15-18.182,4.467c-5.441-1.426-9.959-5.063-12.064-6.988
					c-0.217,0.006-0.436,0.02-0.654,0.021c1.928,1.814,6.588,5.729,12.291,7.32l-0.084,0.682c0.842,0.049,1.686,0.082,2.539,0.082
					c6.514,0,12.689-1.439,18.24-4.002l-1.629-1.426c1.414-2.078,3.932-9.543,4.217-10.402c5.365-2.297,11.316-9.902,12.369-11.289
					l6.934,0.563c0.072-0.172,0.137-0.348,0.209-0.521l-6.967-0.492C100.834,79.369,99.729,75.158,98.734,72.395z"/>
			</g>
		</g>
	</g>
</g>
</svg>
