<?xml version="1.0" encoding="utf-8"?>
<!-- Generator: Adobe Illustrator 16.0.0, SVG Export Plug-In . SVG Version: 6.00 Build 0)  -->
<!DOCTYPE svg PUBLIC "-//W3C//DTD SVG 1.1//EN" "http://www.w3.org/Graphics/SVG/1.1/DTD/svg11.dtd">
<svg version="1.1" id="Layer_1" xmlns="http://www.w3.org/2000/svg" xmlns:xlink="http://www.w3.org/1999/xlink" x="0px" y="0px"
     width="136.914px" height="136.913px" viewBox="0 0 136.914 136.913" enable-background="new 0 0 136.914 136.913"
     xml:space="preserve">
<g>
	<g>
		<g>
			<g>
				<circle fill="#9ACA42" cx="68.458" cy="68.457" r="63.333"/>
			</g>
		</g>
	</g>
	<g>
		<g>
			<g>
				<g>
					<g>
						<polygon fill="#84654F" points="16.773,105.025 16.764,105.023 16.771,105.035 						"/>
					</g>
				</g>
				<g>
					<g>
						<path fill="#8E6E56" d="M79.451,81.053l-20.604-1.057l-6.066,14.633c-10.59,8.088-36.008,10.396-36.008,10.396l-0.002,0.01
							c11.473,16.182,30.338,26.755,51.686,26.755c2.93,0,5.811-0.216,8.635-0.602C96.436,109.872,79.451,81.053,79.451,81.053z"/>
					</g>
				</g>
			</g>
			<g>
				<g>
					<path fill="#A38876" d="M79.451,81.053c0,0,15.373,27.191-4.846,48.563c0,0-28.805-6.923-21.824-34.986l6.066-14.633
						L79.451,81.053z"/>
				</g>
			</g>
			<g>
				<g>
					<path fill="#99806D" d="M77.004,80.788c0,0,11.477,22.715-3.648,38.702c0,0-21.523-7.554-16.303-28.549l4.539-10.945
						L77.004,80.788z"/>
				</g>
			</g>
			<g>
				<g>
					<path fill="#8B7363" d="M75.355,80.615c0,0,7.545,17.809-3.75,29.75c0,0-15.848-6.514-11.949-22.193l3.389-8.176L75.355,80.615
						z"/>
				</g>
			</g>
		</g>
		<g>
			<g>
				<g>
					<path fill="#917853" d="M80.576,71.273c0,0,3.246-4.111,6.49-4.544l7.57-2.811c0,0-0.432,4.325-2.377,7.354
						c-1.949,3.028-4.545,7.572-8.223,6.921l-5.625,4.544l-1.947-10.816L80.576,71.273z"/>
				</g>
			</g>
			<g>
				<g>
					<g>
						<polygon fill="#4B3937" points="72.959,67.593 96.107,50.936 103.895,38.388 101.514,32.546 101.73,24.541 107.139,37.306 
							114.063,28.868 108.654,40.982 102.813,52.664 78.799,70.838 						"/>
					</g>
				</g>
				<g>
					<g>
						<polygon fill="#4B3937" points="94.594,47.689 91.996,54.613 95.023,52.664 						"/>
					</g>
				</g>
				<g>
					<g>
						<polygon fill="#4B3937" points="78.582,65.43 84.422,52.664 75.984,65.861 						"/>
					</g>
				</g>
			</g>
			<g>
				<g>
					<path fill="#917853" d="M59.205,71.439c0,0-3.244-4.111-6.488-4.544l-7.572-2.811c0,0,0.434,4.325,2.381,7.354
						c1.945,3.028,4.543,7.572,8.221,6.921l5.623,4.544l1.947-10.816L59.205,71.439z"/>
				</g>
			</g>
			<g>
				<g>
					<g>
						<polygon fill="#4B3937" points="65.824,67.593 42.678,50.936 34.889,38.388 37.268,32.546 37.053,24.541 31.643,37.306 
							24.721,28.868 30.129,40.982 35.969,52.664 59.982,70.838 						"/>
					</g>
				</g>
				<g>
					<g>
						<polygon fill="#4B3937" points="44.191,47.689 46.787,54.613 43.76,52.664 						"/>
					</g>
				</g>
				<g>
					<g>
						<polygon fill="#4B3937" points="60.199,65.43 54.359,52.664 62.795,65.861 						"/>
					</g>
				</g>
			</g>
			<g>
				<g>
					<path fill="#8C6D4A" d="M79.775,71.685c-1.943-5.843-10.219-4.382-10.219-4.382l-0.33,0.008v-0.008
						c0,0-8.275-1.461-10.223,4.382c0,0-5.352,11.679,2.922,21.901c0,0,0.912,0.91,7.129,2.73l0.016,0.191
						c0.109-0.033,0.215-0.064,0.32-0.095c0.109,0.03,0.213,0.062,0.322,0.095l-0.004-0.188c6.236-1.822,7.148-2.734,7.148-2.734
						C85.133,83.363,79.775,71.685,79.775,71.685z"/>
				</g>
			</g>
			<g>
				<g>
					<g>
						<path fill="#9E8166" d="M74.906,93.606c0,5.083-2.473,4.462-5.814,4.462c-3.346,0-6.303,0.08-6.303-4.462
							c0-3.345,2.713-4.813,6.059-4.813S74.906,90.262,74.906,93.606z"/>
					</g>
				</g>
				<g>
					<g>
						<path fill="#937A5E" d="M74.906,92.392c0,3.345-2.389,4.216-5.734,4.216s-6.383-0.871-6.383-4.216s2.713-4.651,6.059-4.651
							S74.906,89.047,74.906,92.392z"/>
					</g>
				</g>
				<g>
					<g>
						<path fill="#9E8166" d="M75.414,92.98c0,1.436-2.588,3.168-6.215,3.168s-6.92-2.273-6.92-3.168
							c0-3.627,2.941-5.485,6.568-5.485S75.414,89.354,75.414,92.98z"/>
					</g>
				</g>
				<g>
					<g>
						<path fill="#3E3940" d="M72.723,90.404c0,0-2.172-0.873-3.982-0.873s-3.984,0.873-3.984,0.873c-0.623,0.53-0.623,1.389,0,1.92
							l2.854,2.428c0.623,0.529,1.637,0.529,2.26,0l2.854-2.428C73.348,91.793,73.348,90.935,72.723,90.404z"/>
					</g>
				</g>
				<g>
					<g>
						<g>
							<g>
								<path fill="#9E8166" d="M77.283,79.002c0,0.629-1.16,1.139-2.596,1.139c-1.432,0-2.594-0.51-2.594-1.139
									c0-0.625,1.162-1.135,2.594-1.135C76.123,77.867,77.283,78.377,77.283,79.002z"/>
							</g>
						</g>
						<g>
							<g>
								<path fill="#3E3940" d="M76.203,79.002c0,0.51-0.582,0.923-1.297,0.923c-0.719,0-1.299-0.413-1.299-0.923
									c0-0.506,0.58-0.919,1.299-0.919C75.621,78.083,76.203,78.496,76.203,79.002z"/>
							</g>
						</g>
					</g>
					<g>
						<g>
							<g>
								<path fill="#9E8166" d="M61.168,79.002c0,0.629,1.162,1.139,2.594,1.139c1.436,0,2.598-0.51,2.598-1.139
									c0-0.625-1.162-1.135-2.598-1.135C62.33,77.867,61.168,78.377,61.168,79.002z"/>
							</g>
						</g>
						<g>
							<g>
								<path fill="#3E3940" d="M62.248,79.002c0,0.51,0.584,0.923,1.301,0.923c0.715,0,1.297-0.413,1.297-0.923
									c0-0.506-0.582-0.919-1.297-0.919C62.832,78.083,62.248,78.496,62.248,79.002z"/>
							</g>
						</g>
					</g>
				</g>
			</g>
		</g>
	</g>
</g>
</svg>
