<?xml version="1.0" encoding="utf-8"?>
<!-- Generator: Adobe Illustrator 16.0.0, SVG Export Plug-In . SVG Version: 6.00 Build 0)  -->
<!DOCTYPE svg PUBLIC "-//W3C//DTD SVG 1.1//EN" "http://www.w3.org/Graphics/SVG/1.1/DTD/svg11.dtd">
<svg version="1.1" id="Layer_1" xmlns="http://www.w3.org/2000/svg" xmlns:xlink="http://www.w3.org/1999/xlink" x="0px" y="0px"
     width="136.914px" height="136.914px" viewBox="0 0 136.914 136.914" enable-background="new 0 0 136.914 136.914"
     xml:space="preserve">
<g>
	<g>
		<path fill="#22C48A" d="M4.941,68.456c0-35.078,28.438-63.515,63.518-63.515c35.078,0,63.516,28.438,63.516,63.515
			c0,35.082-28.438,63.518-63.516,63.518C33.379,131.973,4.941,103.538,4.941,68.456z"/>
	</g>
	<g>
		<g>
			<g>
				<polygon fill="#F7D98B" points="49.471,32.662 37.945,72.883 37.857,75.45 62.77,74.836 62.652,72.889 				"/>
			</g>
		</g>
		<g>
			<g>
				<polygon fill="#626463" points="49.402,32.437 44.387,50.003 55.193,50.003 				"/>
			</g>
		</g>
		<g>
			<g>
				<g>
					<path fill="#E84849" d="M60.994,70.768l-3.627,4.07l-0.023,56.146c1.777,0.313,3.576,0.557,5.4,0.721l0.025-56.869
						L60.994,70.768z"/>
				</g>
			</g>
			<g>
				<g>
					<path fill="#E84849" d="M49.016,128.93l0.025-54.096l-3.723-4.066l-3.43,4.068l-0.02,51.303
						C44.18,127.206,46.564,128.143,49.016,128.93z"/>
				</g>
			</g>
			<g>
				<g>
					<path fill="#F06668" d="M41.889,74.836l-3.014-4.07l-1.051,4.068l-0.021,49.256c1.326,0.73,2.684,1.41,4.066,2.049
						L41.889,74.836z"/>
				</g>
			</g>
			<g>
				<g>
					<path fill="#F06668" d="M57.344,130.985l0.023-56.146l-4.168-4.07l-4.158,4.066l-0.025,54.096
						C51.717,129.799,54.498,130.483,57.344,130.985z"/>
				</g>
			</g>
		</g>
	</g>
	<g>
		<g>
			<path fill="#276D69" d="M93.146,61.165c-1.098,11.265-4.859,8.617-8.814,8.617c-3.879,0-7.48,2.52-8.813-8.615
				C74.193,50.08,84.332,31.12,84.332,31.12S94.229,50.066,93.146,61.165z"/>
		</g>
		<g>
			<path fill="#355957" d="M84.332,69.782c-3.879,0-7.48,2.52-8.813-8.615C74.193,50.08,84.332,31.12,84.332,31.12V69.782z"/>
		</g>
		<g>
			<g>
				<g>
					<path fill="#E79E2D" d="M78.883,69.907l-4.994,56.488l-0.291,3.99c0.162-1.523,0.291-2.945,0.291-3.662l4.994-56.77
						c0-0.92,2.906-1.322,5.816-1.295c0,0,0,48.49-0.002,61.211c3.736-0.984,7.336-2.305,10.77-3.92l-4.953-56.043
						C90.514,68.299,78.883,68.077,78.883,69.907z"/>
				</g>
			</g>
			<g>
				<g>
					<path fill="#D68A28" d="M73.598,130.385c-0.049,0.455-0.1,0.918-0.152,1.375c0.018-0.002,0.035-0.002,0.053-0.004
						L73.598,130.385z"/>
				</g>
			</g>
			<g>
				<g>
					<path fill="#D68A28" d="M84.697,129.87c0.002-12.721,0.002-61.211,0.002-61.211c-2.91-0.027-5.816,0.375-5.816,1.295
						l-4.994,56.77c0,0.717-0.129,2.139-0.291,3.662l-0.1,1.371C77.336,131.454,81.082,130.825,84.697,129.87z"/>
				</g>
			</g>
		</g>
		<g>
			<path fill="#CDCCCB" d="M79.197,69.901l-4.248,45.551l19.85,0.105l-3.973-45.656C90.826,68.375,79.197,68.167,79.197,69.901z"/>
		</g>
		<g>
			<path fill="#B1B1B2" d="M78.883,69.881l-3.934,45.57l9.758-0.021c0,0,0.393-46.77-0.008-46.77
				C81.793,68.661,78.883,69.012,78.883,69.881z"/>
		</g>
		<g>
			<path fill="#BFBEBE" d="M78.168,79.401l-2.949,33.098l19.365,0.27l-2.951-33.207C91.633,78.403,78.17,78.081,78.168,79.401z"/>
		</g>
		<g>
			<path fill="#AAAAAA" d="M78.883,69.881l-3.719,42.832l9.57-0.121c0,0,0.262-43.932-0.035-43.932
				C81.793,68.661,78.883,69.012,78.883,69.881z"/>
		</g>
	</g>
</g>
</svg>
