<?xml version="1.0" encoding="utf-8"?>
<!-- Generator: Adobe Illustrator 16.0.0, SVG Export Plug-In . SVG Version: 6.00 Build 0)  -->
<!DOCTYPE svg PUBLIC "-//W3C//DTD SVG 1.1//EN" "http://www.w3.org/Graphics/SVG/1.1/DTD/svg11.dtd">
<svg version="1.1" id="Layer_1" xmlns="http://www.w3.org/2000/svg" xmlns:xlink="http://www.w3.org/1999/xlink" x="0px" y="0px"
     width="136.914px" height="136.913px" viewBox="0 0 136.914 136.913" enable-background="new 0 0 136.914 136.913"
     xml:space="preserve">
<g>
	<g>
		<g>
			<g>
				<circle fill="#4ABC96" cx="68.458" cy="68.457" r="63.333"/>
			</g>
		</g>
	</g>
	<g>
		<path fill="#263A45" d="M51.93,115.945c-1.477,1.475-3.871,1.475-5.348,0l-23.85-23.85c-1.475-1.475-1.957-7.002-0.482-8.479
			l45.244-45.244c1.479-1.477,4.596-1.719,6.072-0.24L97.414,61.98c1.477,1.477,1.236,7.242-0.242,8.719L51.93,115.945z"/>
		<g>
			<defs>
				<path id="SVGID_8_" d="M114.891,41.17l-0.166-0.166c-0.123-0.197-0.264-0.385-0.434-0.557L94.617,20.775
					c-1.219-1.219-3.195-1.219-4.414,0l-39.492,39.49c-1.094,1.096-1.197,2.797-0.326,4.016c-0.871,1.217-0.768,2.918,0.326,4.012
					l19.674,19.672c1.219,1.219,3.193,1.219,4.412,0l39.494-39.49C115.508,47.256,116.109,42.391,114.891,41.17z"/>
			</defs>
			<clipPath id="SVGID_1_">
				<use xlink:href="#SVGID_8_"  overflow="visible"/>
			</clipPath>
			<g clip-path="url(#SVGID_1_)">
				<path fill="#989A9A" d="M74.797,84.354c-1.219,1.219-3.193,1.219-4.412,0L50.711,64.682c-0.125-0.125-0.229-0.262-0.326-0.402
					c-0.871,1.221-0.768,2.92,0.326,4.014l19.674,19.672c1.219,1.219,3.193,1.219,4.412,0l38.266-38.262l-2.307-1.309L74.797,84.354
					z"/>
				<path fill="#C9C9C8" d="M82.328,32.264l-2.305-1.309L50.711,60.266c-1.094,1.096-1.197,2.795-0.326,4.014
					c0.098-0.139,0.201-0.275,0.326-0.4L82.328,32.264z"/>
				<path fill="#C9C9C8" d="M70.385,84.354c1.219,1.219,3.193,1.219,4.412,0l35.959-35.959L82.328,32.264L50.711,63.879
					c-0.125,0.125-0.229,0.262-0.326,0.4c0.098,0.141,0.201,0.277,0.326,0.402L70.385,84.354z"/>
				<path fill="#989A9A" d="M114.891,41.17l-0.164-0.164c0.752,1.205,0.609,2.809-0.436,3.854l-3.535,3.535l2.307,1.309l1.229-1.229
					C115.508,47.256,116.109,42.391,114.891,41.17z"/>
				<path opacity="0.2" fill="#FFFFFF" d="M114.891,41.17l-0.164-0.164c0.752,1.205,0.609,2.809-0.436,3.854l-3.535,3.535
					l2.307,1.309l1.229-1.229C115.508,47.256,116.109,42.391,114.891,41.17z"/>
				<path fill="#C9C9C8" d="M90.203,24.387c1.219-1.217,3.797-4.107,5.016-2.889l19.508,19.508
					c-0.123-0.197-0.264-0.387-0.436-0.559L94.617,20.775c-1.219-1.219-3.195-1.219-4.414,0l-10.18,10.18l2.305,1.309L90.203,24.387
					z"/>
				<path fill="#C9C9C8" d="M90.203,24.387l-7.875,7.877l28.428,16.131l3.535-3.535c1.045-1.045,1.188-2.648,0.436-3.854
					L95.219,21.498C94,20.279,91.422,23.17,90.203,24.387z"/>
				<path opacity="0.2" fill="#FFFFFF" d="M114.727,41.006c-0.123-0.197-0.264-0.387-0.436-0.559L94.617,20.775
					c-1.219-1.219-3.195-1.219-4.414,0l-10.18,10.18l2.305,1.309l28.428,16.131l3.535-3.535
					C115.336,43.814,115.479,42.211,114.727,41.006z"/>
			</g>
		</g>
		<path fill="#344E5D" d="M51.93,112.33c-1.477,1.477-3.871,1.477-5.348,0l-23.85-23.848c-1.475-1.477-1.475-3.871,0-5.348
			l45.244-45.244c1.477-1.477,3.873-1.477,5.348,0l23.848,23.848c1.479,1.477,1.479,3.873,0,5.348L51.93,112.33z"/>
		<g>
			<path fill="#989897" d="M98.527,55.5c-0.355,0.359-0.936,0.359-1.293,0l-3.881-3.879c-0.355-0.357-0.355-0.936,0-1.293
				l2.67-2.666c0.355-0.357,0.936-0.357,1.293,0l3.879,3.879c0.357,0.357,0.357,0.936,0,1.293L98.527,55.5z"/>
			<g>
				<path fill="#807F7F" d="M97.535,49.443c-0.316-0.314-0.818-0.322-1.125-0.016l-2.281,2.283
					c-0.131,0.131-0.193,0.301-0.209,0.475l3.314,3.314c0.357,0.359,0.938,0.359,1.293,0l2.514-2.51
					c-0.031-0.045-0.051-0.092-0.088-0.131L97.535,49.443z"/>
			</g>
		</g>
		<g>
			<path fill="#989897" d="M84.736,41.693c-0.357,0.357-0.936,0.357-1.293,0l-3.879-3.877c-0.357-0.357-0.357-0.938,0-1.295
				l2.666-2.666c0.357-0.357,0.938-0.357,1.293,0l3.881,3.879c0.357,0.357,0.357,0.938,0,1.295L84.736,41.693z"/>
			<g>
				<path fill="#807F7F" d="M83.744,35.637c-0.314-0.314-0.818-0.322-1.125-0.016l-2.281,2.283
					c-0.133,0.131-0.193,0.303-0.211,0.475l3.316,3.314c0.357,0.357,0.936,0.357,1.293,0l2.512-2.51
					c-0.027-0.043-0.049-0.092-0.086-0.131L83.744,35.637z"/>
			</g>
		</g>
		<path fill="#263A45" d="M47.502,94.756c1.908-1.906,2.145-4.852,0.709-7.018l2.025-2.023h0.023v-0.023l4.406-4.406l13.121,0.893
			c0.275,0.02,0.545-0.082,0.742-0.277l3.793-3.793l1.918,1.918l5.436-5.436l-5.434-5.436l-5.438,5.438l2.162,2.158l-3.484,3.486
			l-11.016-0.752l15.77-15.771l3.561,3.559l0.693-9.443l-9.416,0.723l3.459,3.457L50.262,82.283L50.26,71.717l2.945-2.947
			c1.764,1.291,4.25,1.146,5.844-0.449c1.758-1.758,1.76-4.611,0-6.369c-1.76-1.762-4.613-1.76-6.371,0
			c-1.461,1.459-1.705,3.666-0.746,5.383l-3.311,3.309c-0.176,0.176-0.279,0.426-0.279,0.676v12.883l-1.865,1.865
			c-2.148-1.322-4.998-1.057-6.859,0.803c-2.178,2.178-2.178,5.709,0,7.885C41.795,96.932,45.326,96.932,47.502,94.756z"/>
	</g>
</g>
</svg>
