<?xml version="1.0" encoding="utf-8"?>
<!-- Generator: Adobe Illustrator 16.0.0, SVG Export Plug-In . SVG Version: 6.00 Build 0)  -->
<!DOCTYPE svg PUBLIC "-//W3C//DTD SVG 1.1//EN" "http://www.w3.org/Graphics/SVG/1.1/DTD/svg11.dtd">
<svg version="1.1" id="Layer_1" xmlns="http://www.w3.org/2000/svg" xmlns:xlink="http://www.w3.org/1999/xlink" x="0px" y="0px"
     width="136.913px" height="136.913px" viewBox="0 0 136.913 136.913" enable-background="new 0 0 136.913 136.913"
     xml:space="preserve">
<g>
	<g>
		<g>
			<g>
				<circle fill="#49A0AE" cx="68.456" cy="68.457" r="63.333"/>
			</g>
		</g>
	</g>
	<g>
		<g>
			<g>
				<path fill="#E3E4E5" d="M86.186,29.787c-0.479-1.749-34.281-1.752-35.213,0c-0.932,1.751-1.686,2.453-1.686,14.894
					s5.617,39.535,5.617,46.178c0,6.641-2.992,27.438-2.566,28.465c0.428,1.027,6.541,2.213,16.557,2.213
					c10.018,0,15.166-1.186,15.926-2.213s-2.566-23.404-2.566-28.465c0-7.908,5.619-35.636,5.619-46.178
					C87.873,34.138,86.664,31.535,86.186,29.787z"/>
			</g>
			<g>
				<path fill="#F8DC62" d="M85.982,30.447H51.176c0,0-1.889,13.602-0.836,21.436c0,5.988,5.313,32.774,5.313,38.765
					c0,5.988-2.1,23.33-1.717,24.258c0.385,0.928,5.896,1.996,14.93,1.996c9.031,0,13.672-1.068,14.357-1.996
					c0.684-0.928-1.717-19.695-1.717-24.258c0-7.131,5.102-32.449,5.102-39.009C87.449,41.273,85.982,30.447,85.982,30.447z"/>
			</g>
			<g>
				<path fill="#F8D648" d="M85.982,30.447c0,0-32.43,83.53-32.047,84.458c0.385,0.928,5.896,1.996,14.93,1.996
					c9.031,0,13.672-1.068,14.357-1.996c0.684-0.928-1.717-19.695-1.717-24.258c0-7.131,5.102-32.449,5.102-39.009
					C87.449,41.273,85.982,30.447,85.982,30.447z"/>
			</g>
			<g>
				<path fill="#F8E9AB" d="M86.344,34.139c0,0-7.129,0.948-18.027,0.948c-10.9,0-17.291-0.633-17.291-0.633s0-2.108,0-4.955
					c0-4.427,34.832-4.927,34.832-0.079C86.172,30.764,86.344,34.139,86.344,34.139z"/>
			</g>
			<g>
				<path fill="#DBDDDC" d="M47.223,30.624c0,0-2.057,4.786,1.135,8.261c3.193,3.473,6.457-0.854,8.299-2.781
					c8.199-8.568,29.438-3.742,29.438-3.742c0.41-4.041-0.494-8.689-7.412-10.021c-5.902-1.139-9.688,1.068-11.738,0.801
					c-2.053-0.268-7.535-2.137-10.832-1.067C50.756,23.81,48.133,28.486,47.223,30.624z"/>
			</g>
			<g>
				<path fill="#FDF3D0" d="M47.176,30.197c0,0-2.064,4.785,1.143,8.259s6.488-0.854,8.34-2.78
					c8.238-8.568,29.578-3.742,29.578-3.742c0.41-4.042-0.498-8.689-7.447-10.021c-5.932-1.137-9.734,1.068-11.797,0.801
					c-2.061-0.268-7.57-2.136-10.883-1.067C50.727,23.382,48.092,28.059,47.176,30.197z"/>
			</g>
		</g>
		<g>
			<path fill="#515252" d="M78.752,47.82c0,1.165,1.008,2.109-0.158,2.109l-10.291-0.304L57.932,49.93
				c-1.164,0-0.158-0.944-0.158-2.109l0,0c0-1.164-1.006-2.108,0.158-2.108c0,0,6.732-0.304,10.451-0.304
				c3.715,0,10.211,0.304,10.211,0.304C79.76,45.712,78.752,46.656,78.752,47.82L78.752,47.82z"/>
			<path fill="#FFFFFF" d="M78.594,50.055H78.59l-10.291-0.304l-10.363,0.304c-0.318,0-0.514-0.066-0.615-0.209
				c-0.152-0.214-0.049-0.518,0.084-0.901c0.115-0.335,0.244-0.715,0.244-1.124s-0.129-0.788-0.244-1.123
				c-0.133-0.384-0.236-0.688-0.084-0.901c0.102-0.143,0.297-0.209,0.611-0.209c0.063-0.003,6.773-0.304,10.451-0.304
				c3.676,0,10.152,0.301,10.217,0.304h0.002c0.309,0,0.504,0.066,0.605,0.209c0.152,0.215,0.049,0.518-0.084,0.901
				c-0.115,0.335-0.246,0.714-0.246,1.123s0.131,0.789,0.246,1.124c0.133,0.384,0.236,0.688,0.084,0.9
				C79.105,49.988,78.91,50.055,78.594,50.055z M68.383,45.533c-3.674,0-10.377,0.301-10.445,0.304
				c-0.223,0-0.365,0.036-0.414,0.104c-0.076,0.108,0.018,0.384,0.117,0.675c0.115,0.336,0.258,0.754,0.258,1.204
				c0,0.451-0.143,0.869-0.258,1.205c-0.1,0.291-0.193,0.565-0.117,0.675c0.049,0.068,0.191,0.104,0.408,0.104l10.367-0.304
				l10.297,0.304c0.219,0,0.359-0.036,0.408-0.104c0.076-0.109-0.018-0.384-0.117-0.675c-0.115-0.336-0.26-0.754-0.26-1.205
				c0-0.45,0.145-0.868,0.26-1.204c0.1-0.291,0.193-0.566,0.117-0.675c-0.049-0.068-0.191-0.104-0.41-0.104
				C78.523,45.834,72.053,45.533,68.383,45.533z"/>
		</g>
		<g>
			<polygon fill="#D54027" points="68.422,39.904 69.17,41.416 70.838,41.658 69.629,42.836 69.914,44.498 68.422,43.713 
				66.93,44.498 67.215,42.836 66.006,41.658 67.676,41.416 			"/>
		</g>
		<g>
			<g>
				<path fill="#1DA049" d="M61.938,53.272c-0.359,0-0.668-0.27-0.707-0.635c-0.043-0.392,0.238-0.743,0.629-0.787
					c0.143-0.016,3.545-0.39,6.404-0.39c2.857,0,6.26,0.374,6.402,0.39c0.393,0.044,0.674,0.396,0.631,0.787
					s-0.391,0.669-0.789,0.63c-0.033-0.004-3.469-0.383-6.244-0.383c-2.781,0-6.213,0.379-6.246,0.383
					C61.99,53.271,61.963,53.272,61.938,53.272z"/>
			</g>
		</g>
		<g>
			<g>
				<path fill="#FFFFFF" d="M60.268,48.713c-0.455,0-0.844-0.322-0.896-0.76c-0.053-0.467,0.301-0.889,0.797-0.94
					c0.18-0.02,5.385-0.221,8.096-0.221c2.709,0,7.914,0.201,8.094,0.221c0.496,0.052,0.852,0.474,0.797,0.94
					c-0.055,0.469-0.492,0.8-0.996,0.754c-0.043-0.005-5.262-0.209-7.895-0.209c-2.637,0-7.854,0.204-7.896,0.209
					C60.334,48.711,60.299,48.713,60.268,48.713z"/>
			</g>
		</g>
	</g>
</g>
</svg>
