<?xml version="1.0" encoding="utf-8"?>
<!-- Generator: Adobe Illustrator 16.0.0, SVG Export Plug-In . SVG Version: 6.00 Build 0)  -->
<!DOCTYPE svg PUBLIC "-//W3C//DTD SVG 1.1//EN" "http://www.w3.org/Graphics/SVG/1.1/DTD/svg11.dtd">
<svg version="1.1" id="Layer_1" xmlns="http://www.w3.org/2000/svg" xmlns:xlink="http://www.w3.org/1999/xlink" x="0px" y="0px"
     width="136.913px" height="136.914px" viewBox="0 0 136.913 136.914" enable-background="new 0 0 136.913 136.914"
     xml:space="preserve">
<g>
	<g>
		<g>
			<g>
				<circle fill="#357180" cx="68.457" cy="68.457" r="63.333"/>
			</g>
		</g>
	</g>
	<g>
		<g>
			<g>
				<path fill="#F3F4F5" d="M102.242,107.377c0,3.525-1.98,5.506-5.507,5.506H40.179c-3.526,0-5.507-1.98-5.507-5.506v-77.84
					c0-3.525,1.98-5.508,5.507-5.508h56.557c3.526,0,5.507,1.982,5.507,5.508V107.377z"/>
				<circle fill="#717171" cx="68.545" cy="27.832" r="0.586"/>
				<linearGradient id="SVGID_1_" gradientUnits="userSpaceOnUse" x1="35.6958" y1="101.1079" x2="101.2192" y2="35.5845">
					<stop  offset="0" style="stop-color:#5C6EB3"/>
					<stop  offset="0.7333" style="stop-color:#3E4280"/>
					<stop  offset="1" style="stop-color:#3E4280"/>
				</linearGradient>
				<rect x="39.791" y="31.488" fill="url(#SVGID_1_)" width="57.332" height="73.715"/>
				<rect x="39.791" y="95.551" opacity="0.25" fill="#DFF1F5" width="57.332" height="9.652"/>
				<path fill="#6CC077" d="M53.449,46.012c0,0.764-0.618,1.383-1.383,1.383H48.03c-0.765,0-1.384-0.619-1.384-1.383v-4.037
					c0-0.764,0.619-1.383,1.384-1.383h4.036c0.765,0,1.383,0.619,1.383,1.383V46.012z"/>
				<path fill="#F5E554" d="M65.67,46.012c0,0.764-0.619,1.383-1.383,1.383h-4.036c-0.765,0-1.384-0.619-1.384-1.383v-4.037
					c0-0.764,0.619-1.383,1.384-1.383h4.036c0.764,0,1.383,0.619,1.383,1.383V46.012z"/>
				<path fill="#B5DBAF" d="M77.891,46.012c0,0.764-0.619,1.383-1.384,1.383h-4.034c-0.765,0-1.385-0.619-1.385-1.383v-4.037
					c0-0.764,0.62-1.383,1.385-1.383h4.034c0.765,0,1.384,0.619,1.384,1.383V46.012z"/>
				<path fill="#F6A2A3" d="M90.111,46.012c0,0.764-0.619,1.383-1.383,1.383h-4.035c-0.765,0-1.385-0.619-1.385-1.383v-4.037
					c0-0.764,0.62-1.383,1.385-1.383h4.035c0.764,0,1.383,0.619,1.383,1.383V46.012z"/>
				<path fill="#6CC077" d="M53.449,102.176c0,0.762-0.618,1.383-1.383,1.383H48.03c-0.765,0-1.384-0.621-1.384-1.383v-4.037
					c0-0.764,0.619-1.383,1.384-1.383h4.036c0.765,0,1.383,0.619,1.383,1.383V102.176z"/>
				<path fill="#F5E554" d="M65.67,102.176c0,0.762-0.619,1.383-1.383,1.383h-4.036c-0.765,0-1.384-0.621-1.384-1.383v-4.037
					c0-0.764,0.619-1.383,1.384-1.383h4.036c0.764,0,1.383,0.619,1.383,1.383V102.176z"/>
				<path fill="#B5DBAF" d="M77.891,102.176c0,0.762-0.619,1.383-1.384,1.383h-4.034c-0.765,0-1.385-0.621-1.385-1.383v-4.037
					c0-0.764,0.62-1.383,1.385-1.383h4.034c0.765,0,1.384,0.619,1.384,1.383V102.176z"/>
				<path fill="#F6A2A3" d="M90.111,102.176c0,0.762-0.619,1.383-1.383,1.383h-4.035c-0.765,0-1.385-0.621-1.385-1.383v-4.037
					c0-0.764,0.62-1.383,1.385-1.383h4.035c0.764,0,1.383,0.619,1.383,1.383V102.176z"/>
				<path fill="#B5DBAF" d="M53.449,58.299c0,0.764-0.618,1.383-1.383,1.383H48.03c-0.765,0-1.384-0.619-1.384-1.383v-4.037
					c0-0.764,0.619-1.383,1.384-1.383h4.036c0.765,0,1.383,0.619,1.383,1.383V58.299z"/>
				<path fill="#F6A2A3" d="M65.67,58.299c0,0.764-0.619,1.383-1.383,1.383h-4.036c-0.765,0-1.384-0.619-1.384-1.383v-4.037
					c0-0.764,0.619-1.383,1.384-1.383h4.036c0.764,0,1.383,0.619,1.383,1.383V58.299z"/>
				<path fill="#67B8CB" d="M77.891,58.299c0,0.764-0.619,1.383-1.384,1.383h-4.034c-0.765,0-1.385-0.619-1.385-1.383v-4.037
					c0-0.764,0.62-1.383,1.385-1.383h4.034c0.765,0,1.384,0.619,1.384,1.383V58.299z"/>
				<path fill="#F5E554" d="M90.111,58.299c0,0.764-0.619,1.383-1.383,1.383h-4.035c-0.765,0-1.385-0.619-1.385-1.383v-4.037
					c0-0.764,0.62-1.383,1.385-1.383h4.035c0.764,0,1.383,0.619,1.383,1.383V58.299z"/>
				<path fill="#67B8CB" d="M53.449,70.584c0,0.762-0.618,1.383-1.383,1.383H48.03c-0.765,0-1.384-0.621-1.384-1.383v-4.037
					c0-0.764,0.619-1.383,1.384-1.383h4.036c0.765,0,1.383,0.619,1.383,1.383V70.584z"/>
				<path fill="#F5E554" d="M65.67,70.584c0,0.762-0.619,1.383-1.383,1.383h-4.036c-0.765,0-1.384-0.621-1.384-1.383v-4.037
					c0-0.764,0.619-1.383,1.384-1.383h4.036c0.764,0,1.383,0.619,1.383,1.383V70.584z"/>
				<path fill="#6CC077" d="M77.891,70.584c0,0.762-0.619,1.383-1.384,1.383h-4.034c-0.765,0-1.385-0.621-1.385-1.383v-4.037
					c0-0.764,0.62-1.383,1.385-1.383h4.034c0.765,0,1.384,0.619,1.384,1.383V70.584z"/>
				<path fill="#B5DBAF" d="M90.111,70.584c0,0.762-0.619,1.383-1.383,1.383h-4.035c-0.765,0-1.385-0.621-1.385-1.383v-4.037
					c0-0.764,0.62-1.383,1.385-1.383h4.035c0.764,0,1.383,0.619,1.383,1.383V70.584z"/>
				<path fill="#F6A2A3" d="M53.449,82.869c0,0.764-0.618,1.383-1.383,1.383H48.03c-0.765,0-1.384-0.619-1.384-1.383v-4.037
					c0-0.764,0.619-1.383,1.384-1.383h4.036c0.765,0,1.383,0.619,1.383,1.383V82.869z"/>
				<path fill="#B5DBAF" d="M65.67,82.869c0,0.764-0.619,1.383-1.383,1.383h-4.036c-0.765,0-1.384-0.619-1.384-1.383v-4.037
					c0-0.764,0.619-1.383,1.384-1.383h4.036c0.764,0,1.383,0.619,1.383,1.383V82.869z"/>
				<path fill="#F5E554" d="M77.891,82.869c0,0.764-0.619,1.383-1.384,1.383h-4.034c-0.765,0-1.385-0.619-1.385-1.383v-4.037
					c0-0.764,0.62-1.383,1.385-1.383h4.034c0.765,0,1.384,0.619,1.384,1.383V82.869z"/>
				<path fill="#67B8CB" d="M90.111,82.869c0,0.764-0.619,1.383-1.383,1.383h-4.035c-0.765,0-1.385-0.619-1.385-1.383v-4.037
					c0-0.764,0.62-1.383,1.385-1.383h4.035c0.764,0,1.383,0.619,1.383,1.383V82.869z"/>
				<rect x="39.841" y="31.592" opacity="0.5" fill="#202121" width="57.095" height="3.584"/>
				<circle fill="#FFFFFF" cx="90.834" cy="33.273" r="0.914"/>
				<circle fill="#FFFFFF" cx="42.035" cy="33.273" r="0.914"/>
				<circle fill="#FFFFFF" cx="95.002" cy="33.273" r="0.914"/>
			</g>
			<g>
				<circle fill="#E4E4E4" cx="68.545" cy="109.109" r="2.047"/>
				<path fill="none" stroke="#B8B9BA" stroke-width="0.5" stroke-miterlimit="10" d="M69.197,109.41
					c0,0.193-0.157,0.352-0.351,0.352h-0.604c-0.193,0-0.35-0.158-0.35-0.352v-0.602c0-0.195,0.156-0.354,0.35-0.354h0.604
					c0.193,0,0.351,0.158,0.351,0.354V109.41z"/>
			</g>
		</g>
	</g>
</g>
</svg>
