<?xml version="1.0" encoding="utf-8"?>
<!-- Generator: Adobe Illustrator 16.0.0, SVG Export Plug-In . SVG Version: 6.00 Build 0)  -->
<!DOCTYPE svg PUBLIC "-//W3C//DTD SVG 1.1//EN" "http://www.w3.org/Graphics/SVG/1.1/DTD/svg11.dtd">
<svg version="1.1" id="Layer_1" xmlns="http://www.w3.org/2000/svg" xmlns:xlink="http://www.w3.org/1999/xlink" x="0px" y="0px"
     width="136.913px" height="136.913px" viewBox="0 0 136.913 136.913" enable-background="new 0 0 136.913 136.913"
     xml:space="preserve">
<g>
	<g>
		<g>
			<circle fill="#A2D4DE" cx="68.456" cy="68.456" r="63.333"/>
		</g>
	</g>
	<g>
		<path fill="#6CC077" d="M126.732,43.628l-12.602-12.603c0,0-8.404-9.798-15.434-10.196c-7.027-0.398-14.6,9.361-14.6,9.361
			L72.523,41.766l-1.871-1.874c0,0-6.834-7.97-12.559-8.294c-5.721-0.325-11.879,7.616-11.879,7.616l-6.15,6.15
			c-0.977-1.092-6.105-6.592-10.504-6.843c-4.875-0.275-10.131,6.497-10.131,6.497L5.9,58.546c-0.508,3.229-0.777,6.538-0.777,9.91
			c0,10.303,2.477,20.021,6.842,28.62l112.982,0.002c4.365-8.6,6.842-18.318,6.842-28.622
			C131.789,59.643,129.986,51.252,126.732,43.628z"/>
	</g>
	<g>
		<path fill="#C2C099" d="M68.457,131.79c30.371,0,55.738-21.386,61.895-49.918c-10.998-2.228-33.799-5.962-63.105-5.962
			c-30.57,0-51.561,4.063-60.621,6.24C12.887,110.543,38.184,131.79,68.457,131.79z"/>
	</g>
	<g>
		<g>
			<path fill="#ABD9DF" d="M75.977,58.295h-53.48c-0.586,0-1.063,0.475-1.063,1.061V95c0,0.586,0.477,1.063,1.063,1.063h53.48
				V58.295z"/>
			<path fill="#B0DFE5" d="M75.908,63.906v32.156h39.68c0.5,0,0.904-0.406,0.904-0.904V63.906H75.908z"/>
			<path fill="#357180" d="M118.459,60.018c-0.031-0.318-0.211-0.597-0.467-0.77L79.213,59.27c-0.008-0.006-0.012-0.016-0.012-0.016
				L65.84,47.939v-7.832c0-0.588-0.477-1.063-1.063-1.063h-5.043c-0.588,0-1.064,0.475-1.064,1.063v1.764l-10.025-8.49
				c-0.406-0.343-1-0.336-1.395,0.02L18.207,59.281c-0.041,0.033-0.08,0.068-0.115,0.105c-0.24,0.238-0.346,0.577-0.297,0.906v2.516
				c0,0.588,0.479,1.064,1.064,1.064h98.539c0.588,0,1.064-0.477,1.064-1.064C118.463,62.809,118.467,60.082,118.459,60.018z"/>
		</g>
		<g>
			<path fill="#87BCC0" d="M112.635,73.148H79.93c-0.367,0-0.662,0.297-0.662,0.662v22.225h34.029V73.811
				C113.297,73.445,113,73.148,112.635,73.148z"/>
			<g>
				
					<line fill="none" stroke="#75A9AB" stroke-linecap="round" stroke-linejoin="round" stroke-miterlimit="10" x1="82.137" y1="92.874" x2="110.078" y2="92.874"/>
				
					<line fill="none" stroke="#75A9AB" stroke-linecap="round" stroke-linejoin="round" stroke-miterlimit="10" x1="82.137" y1="89.003" x2="110.078" y2="89.003"/>
				
					<line fill="none" stroke="#75A9AB" stroke-linecap="round" stroke-linejoin="round" stroke-miterlimit="10" x1="82.137" y1="85.177" x2="110.078" y2="85.177"/>
				
					<line fill="none" stroke="#75A9AB" stroke-linecap="round" stroke-linejoin="round" stroke-miterlimit="10" x1="82.137" y1="81.351" x2="110.078" y2="81.351"/>
				
					<line fill="none" stroke="#75A9AB" stroke-linecap="round" stroke-linejoin="round" stroke-miterlimit="10" x1="82.137" y1="77.613" x2="110.078" y2="77.613"/>
			</g>
		</g>
		<g>
			<path fill="#4D4C4C" d="M43.816,81.682c0-0.605,0.492-1.098,1.1-1.098h6.773c0.607,0,1.098,0.492,1.098,1.098v14.373h-8.971
				V81.682z"/>
			<circle fill="#CDCCCB" cx="45.219" cy="88.359" r="0.557"/>
		</g>
		<path fill="#87BCC0" d="M67.65,80.565h-6.799h-0.637c-0.605,0-1.098,0.49-1.098,1.099v6.773c0,0.606,0.492,1.1,1.098,1.1h0.637
			h6.799c0.604,0,1.096-0.491,1.096-1.1v-6.773C68.746,81.058,68.254,80.565,67.65,80.565z"/>
		<path fill="#87BCC0" d="M67.65,67.898h-6.799h-0.637c-0.605,0-1.098,0.49-1.098,1.099v6.773c0,0.606,0.492,1.099,1.098,1.099
			h0.637h6.799c0.604,0,1.096-0.49,1.096-1.099v-6.773C68.746,68.391,68.254,67.898,67.65,67.898z"/>
		<path fill="#87BCC0" d="M36.65,80.565h-6.799h-0.637c-0.605,0-1.098,0.49-1.098,1.099v6.773c0,0.606,0.492,1.1,1.098,1.1h0.637
			h6.799c0.604,0,1.096-0.491,1.096-1.1v-6.773C37.746,81.058,37.254,80.565,36.65,80.565z"/>
		<path fill="#87BCC0" d="M36.65,67.898h-6.799h-0.637c-0.605,0-1.098,0.49-1.098,1.099v6.773c0,0.606,0.492,1.099,1.098,1.099
			h0.637h6.799c0.604,0,1.096-0.49,1.096-1.099v-6.773C37.746,68.391,37.254,67.898,36.65,67.898z"/>
		<path fill="#87BCC0" d="M52.15,67.898h-6.799h-0.637c-0.605,0-1.098,0.49-1.098,1.099v6.773c0,0.606,0.492,1.099,1.098,1.099
			h0.637h6.799c0.604,0,1.096-0.49,1.096-1.099v-6.773C53.246,68.391,52.754,67.898,52.15,67.898z"/>
	</g>
</g>
</svg>
