<?xml version="1.0" encoding="utf-8"?>
<!-- Generator: Adobe Illustrator 16.0.0, SVG Export Plug-In . SVG Version: 6.00 Build 0)  -->
<!DOCTYPE svg PUBLIC "-//W3C//DTD SVG 1.1//EN" "http://www.w3.org/Graphics/SVG/1.1/DTD/svg11.dtd">
<svg version="1.1" id="Layer_1" xmlns="http://www.w3.org/2000/svg" xmlns:xlink="http://www.w3.org/1999/xlink" x="0px" y="0px"
     width="136.913px" height="136.914px" viewBox="0 0 136.913 136.914" enable-background="new 0 0 136.913 136.914"
     xml:space="preserve">
<g>
	<g>
		<g>
			<g>
				<circle fill="#4ABC96" cx="68.456" cy="68.457" r="63.333"/>
			</g>
		</g>
	</g>
	<g>
		<g>
			<g>
				<linearGradient id="SVGID_1_" gradientUnits="userSpaceOnUse" x1="54.3438" y1="100.1934" x2="80.4902" y2="100.1934">
					<stop  offset="0" style="stop-color:#959397"/>
					<stop  offset="0.2344" style="stop-color:#A6A4AA"/>
					<stop  offset="0.7312" style="stop-color:#C4C2CC"/>
					<stop  offset="1" style="stop-color:#D0CED9"/>
				</linearGradient>
				<path fill="url(#SVGID_1_)" d="M80.49,108.316c0,0.805-0.656,0.621-1.461,0.621H55.805c-0.809,0-1.461,0.184-1.461-0.621v-0.996
					l3.414-5.135l-0.063-9.291c0-0.807,0.652-1.461,1.461-1.461h16.521c0.805,0,1.463,0.654,1.463,1.461l-0.061,9.32l3.41,5.105
					V108.316z"/>
				<linearGradient id="SVGID_2_" gradientUnits="userSpaceOnUse" x1="67.417" y1="90.5957" x2="67.417" y2="107.9609">
					<stop  offset="0.1152" style="stop-color:#959397"/>
					<stop  offset="0.1422" style="stop-color:#99989B"/>
					<stop  offset="0.3725" style="stop-color:#BABAB7"/>
					<stop  offset="0.497" style="stop-color:#C6C7C2"/>
					<stop  offset="0.6242" style="stop-color:#78767C"/>
					<stop  offset="1" style="stop-color:#97969E"/>
				</linearGradient>
				<path fill="url(#SVGID_2_)" d="M80.49,107.32c0,0.807-0.656,0.623-1.461,0.623H55.805c-0.809,0-1.461,0.184-1.461-0.623
					l3.414-5.973l-0.063-9.291c0-0.809,0.652-1.461,1.461-1.461h16.521c0.805,0,1.463,0.652,1.463,1.461l-0.061,9.32L80.49,107.32z"
					/>
			</g>
			<g>
				<g>
					<linearGradient id="SVGID_3_" gradientUnits="userSpaceOnUse" x1="21.3984" y1="62.4141" x2="113.4336" y2="62.4141">
						<stop  offset="0" style="stop-color:#959397"/>
						<stop  offset="0.2344" style="stop-color:#A6A4AA"/>
						<stop  offset="0.7312" style="stop-color:#C4C2CC"/>
						<stop  offset="1" style="stop-color:#D0CED9"/>
					</linearGradient>
					<path fill="url(#SVGID_3_)" d="M113.434,89.545c0,3.035-2.459,5.494-5.494,5.494H26.893c-3.035,0-5.494-2.459-5.494-5.494
						v-54.26c0-3.035,2.459-5.494,5.494-5.494h81.047c3.035,0,5.494,2.459,5.494,5.494V89.545z"/>
					<rect x="25.35" y="33.402" fill="#343433" width="83.967" height="0.287"/>
				</g>
				<g>
					<path fill-rule="evenodd" clip-rule="evenodd" fill="#08090B" d="M68.98,85.432c0.086,0.467-0.139,0.85-0.379,1.107
						c-0.209,0.225-0.486,0.4-0.873,0.379c-0.076-0.814,0.572-1.383,1.24-1.486C68.975,85.432,68.977,85.432,68.98,85.432z"/>
					<path fill-rule="evenodd" clip-rule="evenodd" fill="#08090B" d="M70.166,87.611c-0.426,0.303-0.73,0.701-0.682,1.375
						c0.039,0.574,0.414,0.965,0.859,1.172c-0.104,0.303-0.227,0.57-0.379,0.814c-0.199,0.316-0.484,0.783-0.906,0.873
						c-0.484,0.1-0.787-0.275-1.318-0.236c-0.402,0.031-0.766,0.363-1.172,0.227c-0.197-0.068-0.404-0.279-0.537-0.438
						c-0.412-0.494-0.797-1.262-0.895-2c-0.084-0.635,0.002-1.186,0.258-1.607c0.268-0.439,0.766-0.859,1.43-0.783
						c0.164,0.018,0.33,0.076,0.48,0.135c0.129,0.049,0.299,0.146,0.459,0.146c0.15-0.002,0.342-0.105,0.49-0.158
						c0.172-0.063,0.352-0.129,0.537-0.145C69.465,86.924,69.875,87.256,70.166,87.611z"/>
				</g>
				<g>
					<defs>
						<path id="SVGID_4_" d="M113.434,89.545c0,3.035-2.459,5.494-5.494,5.494H26.893c-3.035,0-5.494-2.459-5.494-5.494v-54.26
							c0-3.035,2.459-5.494,5.494-5.494h81.047c3.035,0,5.494,2.459,5.494,5.494V89.545z"/>
					</defs>
					<clipPath id="SVGID_5_">
						<use xlink:href="#SVGID_4_"  overflow="visible"/>
					</clipPath>
					<g clip-path="url(#SVGID_5_)">
						<path fill="#08090B" d="M113.434,35.285c0-3.035-2.459-5.494-5.494-5.494H93.961l-2.58,3.691h17.936v45.752h-49.91
							l-2.588,3.707h56.615V35.285z"/>
						<g>
							<polygon fill="none" points="109.316,79.234 109.316,33.482 91.381,33.482 59.406,79.234 							"/>
							<path fill="#08090B" d="M25.35,79.234V33.482h66.031l2.58-3.691H26.893c-3.035,0-5.494,2.459-5.494,5.494v47.656h35.42
								l2.588-3.707H25.35z"/>
							<polygon fill="#676767" points="25.35,79.234 59.406,79.234 91.381,33.482 25.35,33.482 							"/>
							
								<linearGradient id="SVGID_6_" gradientUnits="userSpaceOnUse" x1="35.6123" y1="49.4277" x2="145.9115" y2="49.4277" gradientTransform="matrix(0.4028 0.2815 -1.1042 1.58 118.1992 -35.4431)">
								<stop  offset="0" style="stop-color:#959397"/>
								<stop  offset="0.2344" style="stop-color:#A6A4AA"/>
								<stop  offset="0.7312" style="stop-color:#C4C2CC"/>
								<stop  offset="1" style="stop-color:#D0CED9"/>
							</linearGradient>
							<path opacity="0.3" fill="url(#SVGID_6_)" d="M107.939,29.791H93.961l-2.58,3.691h17.936v45.752h-49.91l-2.588,3.707h56.615
								V35.285C113.434,32.25,110.975,29.791,107.939,29.791z"/>
						</g>
						<polygon fill="#676767" points="109.316,79.234 109.316,33.482 91.381,33.482 59.406,79.234 						"/>
						
							<linearGradient id="SVGID_7_" gradientUnits="userSpaceOnUse" x1="35.6123" y1="49.0928" x2="145.9101" y2="49.0928" gradientTransform="matrix(0.4028 0.2815 -1.1042 1.58 118.1992 -35.4431)">
							<stop  offset="0" style="stop-color:#959397"/>
							<stop  offset="0.2344" style="stop-color:#A6A4AA"/>
							<stop  offset="0.7312" style="stop-color:#C4C2CC"/>
							<stop  offset="1" style="stop-color:#D0CED9"/>
						</linearGradient>
						<polygon opacity="0.3" fill="url(#SVGID_7_)" points="109.316,79.234 109.316,33.482 91.381,33.482 59.406,79.234 						"/>
					</g>
				</g>
			</g>
		</g>
	</g>
</g>
</svg>
