<?xml version="1.0" encoding="utf-8"?>
<!-- Generator: Adobe Illustrator 16.0.0, SVG Export Plug-In . SVG Version: 6.00 Build 0)  -->
<!DOCTYPE svg PUBLIC "-//W3C//DTD SVG 1.1//EN" "http://www.w3.org/Graphics/SVG/1.1/DTD/svg11.dtd">
<svg version="1.1" id="Layer_1" xmlns="http://www.w3.org/2000/svg" xmlns:xlink="http://www.w3.org/1999/xlink" x="0px" y="0px"
     width="136.913px" height="136.914px" viewBox="0 0 136.913 136.914" enable-background="new 0 0 136.913 136.914"
     xml:space="preserve">
<g>
	<g>
		<circle fill="#EDC92C" cx="69.104" cy="68.457" r="63.333"/>
		<path fill="#E9B82B" d="M5.771,68.457h126.666c0,34.977-28.355,63.332-63.332,63.332C34.127,131.789,5.771,103.434,5.771,68.457z"
			/>
		<path fill="#ED3432" d="M112.029,58.121c0-12.295-9.137-20.406-20.406-20.406c-7.125,0-13.447,3.58-17.135,9.02l-2.91,3.699
			l-2.625-3.35c-3.631-5.635-9.959-9.369-17.16-9.369c-11.271,0-20.408,7.779-20.408,20.406c0,18.932,37.221,48.682,37.221,48.682
			c1.578,1.578,4.135,1.578,5.713,0C74.318,106.803,112.029,76.563,112.029,58.121z"/>
		<path fill="#D62127" d="M34.502,69.029c8.953,17.672,34.104,37.773,34.104,37.773c1.578,1.578,4.135,1.578,5.713,0
			c0,0,24.895-19.963,34.23-37.342l-28.508-0.199l-5.25-7.131l-6.75,7.084l-5.5-6.334l-9.834,16.668l-4.166-10.428l-6.252-16.24
			l-6.248,16.195L34.502,69.029z"/>
		
			<polyline fill="none" stroke="#FBD5D4" stroke-width="2.5" stroke-linecap="round" stroke-linejoin="round" stroke-miterlimit="10" points="
			2.873,69.215 36.041,69.215 42.041,51.881 52.707,79.549 62.541,62.881 68.041,69.215 74.041,62.049 80.041,69.215 
			134.041,69.215 		"/>
	</g>
</g>
</svg>
