<?xml version="1.0" encoding="utf-8"?>
<!-- Generator: Adobe Illustrator 16.0.0, SVG Export Plug-In . SVG Version: 6.00 Build 0)  -->
<!DOCTYPE svg PUBLIC "-//W3C//DTD SVG 1.1//EN" "http://www.w3.org/Graphics/SVG/1.1/DTD/svg11.dtd">
<svg version="1.1" id="Layer_1" xmlns="http://www.w3.org/2000/svg" xmlns:xlink="http://www.w3.org/1999/xlink" x="0px" y="0px"
     width="136.913px" height="136.913px" viewBox="0 0 136.913 136.913" enable-background="new 0 0 136.913 136.913"
     xml:space="preserve">
<g>
	<g>
		<g>
			<circle fill="#49A0AE" cx="68.456" cy="68.456" r="63.333"/>
		</g>
	</g>
	<g>
		<g>
			<g>
				<g>
					<path fill="#DCD2CC" d="M103.266,106.526c-0.021,0-0.041,0-0.063-0.002c-0.305-0.018-3.012-0.219-4.539-1.365
						c-1.514-1.135-2.547-3.646-2.66-3.928c-0.205-0.514,0.045-1.094,0.557-1.299c0.51-0.203,1.094,0.043,1.301,0.555
						c0.25,0.625,1.098,2.395,2.002,3.072c0.893,0.67,2.805,0.926,3.465,0.969c0.551,0.035,0.969,0.512,0.934,1.063
						C104.229,106.12,103.789,106.526,103.266,106.526z"/>
				</g>
				<g>
					<path fill="#DCD2CC" d="M31.93,106.526c-0.523,0-0.963-0.406-0.996-0.936c-0.035-0.551,0.383-1.027,0.934-1.063
						c0.662-0.043,2.572-0.299,3.465-0.969c0.904-0.678,1.754-2.447,2.004-3.072c0.205-0.512,0.787-0.758,1.301-0.555
						c0.512,0.205,0.762,0.785,0.557,1.299c-0.113,0.281-1.146,2.793-2.662,3.928c-1.527,1.146-4.234,1.348-4.537,1.365
						C31.973,106.526,31.951,106.526,31.93,106.526z"/>
				</g>
				<path fill="#E5DCD6" d="M100.041,101.528H35.154c-7.168,0-12.557-26.336-12.557-26.336H112.6
					C112.6,75.192,107.209,101.526,100.041,101.528z"/>
				<path fill="#DDD3CC" d="M112.23,71.989H23.133c-1.768,0-2.41,0.875-2.41,1.953c0,1.076,0.643,1.951,2.41,1.951h89.098
					c1.768,0,2.408-0.875,2.408-1.951C114.639,72.864,113.998,71.989,112.23,71.989z"/>
			</g>
			<g>
				<g>
					<path fill="#E5DCD6" d="M107.639,74.567c-0.828,0-1.5-0.672-1.5-1.5V30.068c0-0.05,0.004-0.1,0.008-0.149
						c0.021-0.368-0.031-2.362-3.475-2.866c-0.82-0.12-1.387-0.882-1.268-1.701c0.121-0.819,0.891-1.382,1.701-1.268
						c5.096,0.746,6.172,4.234,6.033,6.049v42.935C109.139,73.896,108.467,74.567,107.639,74.567z"/>
				</g>
				<path fill="#E5DCD6" d="M102.035,32.926l1.58-7.987c0.119-0.598-0.27-0.987-0.869-0.868l-7.988,1.583
					c-0.596,0.118-1.178,0.698-1.297,1.297l7.275,7.274C101.334,34.107,101.916,33.525,102.035,32.926z"/>
				<path fill="#D5CEC9" d="M102.035,32.926l-7.277-7.272c-0.596,0.118-1.178,0.698-1.297,1.297l7.275,7.274
					C101.334,34.107,101.916,33.525,102.035,32.926z"/>
			</g>
		</g>
		<g>
			<g>
				<path fill="#A2D4DE" d="M75.055,61.479c0,0-2.213,0.178-3.498,1.404c-0.561,0.533-0.582,1.42-0.047,1.98
					c0.533,0.559,1.42,0.58,1.98,0.047C74.113,64.317,75.055,61.479,75.055,61.479z"/>
				<path fill="#8CC3CC" d="M73.477,64.489c-0.008,0.336-0.666,0.604-1.002,0.594c-0.338-0.008-0.9-0.27-0.891-0.605
					C71.592,64.142,73.484,64.153,73.477,64.489z"/>
			</g>
			<g>
				<path fill="#A2D4DE" d="M67.207,61.653c0,0-2.213,0.176-3.5,1.404c-0.559,0.535-0.58,1.42-0.047,1.98
					c0.533,0.559,1.422,0.58,1.98,0.047C66.264,64.489,67.207,61.653,67.207,61.653z"/>
				<path fill="#8CC3CC" d="M65.629,64.663c-0.01,0.336-0.668,0.604-1.004,0.594c-0.336-0.006-0.898-0.268-0.889-0.604
					C63.742,64.315,65.637,64.325,65.629,64.663z"/>
			</g>
			<g>
				<path fill="#A2D4DE" d="M90.881,61.479c0,0-2.215,0.178-3.5,1.404c-0.561,0.533-0.582,1.42-0.047,1.98
					c0.533,0.559,1.42,0.58,1.98,0.047C89.938,64.317,90.881,61.479,90.881,61.479z"/>
				<path fill="#8CC3CC" d="M89.301,64.489c-0.008,0.336-0.666,0.604-1.002,0.594c-0.338-0.008-0.9-0.27-0.891-0.605
					C87.416,64.142,89.309,64.153,89.301,64.489z"/>
			</g>
			<g>
				<path fill="#A2D4DE" d="M82.707,61.653c0,0-2.213,0.176-3.5,1.404c-0.561,0.535-0.58,1.42-0.049,1.98
					c0.535,0.559,1.424,0.58,1.982,0.047C81.764,64.489,82.707,61.653,82.707,61.653z"/>
				<path fill="#8CC3CC" d="M81.129,64.663c-0.01,0.336-0.668,0.604-1.004,0.594c-0.336-0.006-0.898-0.268-0.891-0.604
					C79.242,64.315,81.135,64.325,81.129,64.663z"/>
			</g>
			<g>
				<path fill="#A2D4DE" d="M74.633,53.718c0,0-2.215,0.176-3.5,1.404c-0.561,0.533-0.582,1.419-0.047,1.979
					c0.533,0.56,1.422,0.58,1.982,0.046C73.689,56.554,74.633,53.718,74.633,53.718z"/>
				<path fill="#8CC3CC" d="M73.053,56.726c-0.008,0.338-0.666,0.604-1.002,0.596s-0.898-0.27-0.891-0.605
					C71.168,56.378,73.061,56.39,73.053,56.726z"/>
			</g>
			<g>
				<path fill="#A2D4DE" d="M66.91,53.891c0,0-2.213,0.178-3.5,1.404c-0.561,0.534-0.58,1.421-0.049,1.982
					c0.535,0.557,1.424,0.577,1.982,0.045C65.967,56.728,66.91,53.891,66.91,53.891z"/>
				<path fill="#8CC3CC" d="M65.332,56.9c-0.01,0.336-0.668,0.604-1.004,0.595c-0.336-0.008-0.898-0.27-0.889-0.605
					C63.445,56.553,65.338,56.563,65.332,56.9z"/>
			</g>
			<g>
				<path fill="#A2D4DE" d="M91.178,53.718c0,0-2.213,0.176-3.5,1.404c-0.561,0.533-0.58,1.419-0.047,1.979
					c0.535,0.56,1.422,0.58,1.982,0.046C90.234,56.554,91.178,53.718,91.178,53.718z"/>
				<path fill="#8CC3CC" d="M89.6,56.726c-0.01,0.338-0.666,0.604-1.004,0.596c-0.336-0.008-0.898-0.27-0.889-0.605
					C87.713,56.378,89.605,56.39,89.6,56.726z"/>
			</g>
			<g>
				<path fill="#A2D4DE" d="M81.941,53.891c0,0-2.215,0.178-3.502,1.404c-0.559,0.534-0.58,1.421-0.047,1.982
					c0.535,0.557,1.422,0.577,1.98,0.045C80.996,56.728,81.941,53.891,81.941,53.891z"/>
				<path fill="#8CC3CC" d="M80.361,56.9c-0.01,0.336-0.666,0.604-1.002,0.595c-0.338-0.008-0.9-0.27-0.891-0.605
					C78.477,56.553,80.369,56.563,80.361,56.9z"/>
			</g>
			<g>
				<path fill="#A2D4DE" d="M80.727,46.402c0,0-2.215,0.175-3.5,1.403c-0.561,0.533-0.582,1.419-0.047,1.979
					c0.533,0.56,1.42,0.58,1.98,0.046C79.783,49.237,80.727,46.402,80.727,46.402z"/>
				<path fill="#8CC3CC" d="M79.146,49.409c-0.008,0.338-0.666,0.604-1.002,0.596c-0.338-0.008-0.9-0.269-0.891-0.605
					C77.262,49.062,79.154,49.073,79.146,49.409z"/>
			</g>
			<g>
				<path fill="#A2D4DE" d="M73.342,46.573c0,0-2.213,0.178-3.5,1.405c-0.559,0.534-0.58,1.421-0.047,1.981
					c0.533,0.558,1.422,0.578,1.98,0.046C72.398,49.411,73.342,46.573,73.342,46.573z"/>
				<path fill="#8CC3CC" d="M71.764,49.584c-0.01,0.336-0.668,0.604-1.004,0.595c-0.336-0.008-0.898-0.27-0.887-0.605
					C69.877,49.236,71.771,49.247,71.764,49.584z"/>
			</g>
			<g>
				<path fill="#A2D4DE" d="M95.369,46.402c0,0-2.215,0.175-3.5,1.403c-0.561,0.533-0.58,1.419-0.047,1.979
					c0.535,0.56,1.422,0.58,1.982,0.046C94.426,49.237,95.369,46.402,95.369,46.402z"/>
				<path fill="#8CC3CC" d="M93.789,49.409c-0.008,0.338-0.666,0.604-1,0.596c-0.338-0.008-0.9-0.269-0.893-0.605
					C91.904,49.062,93.797,49.073,93.789,49.409z"/>
			</g>
			<g>
				<path fill="#A2D4DE" d="M87.744,46.573c0,0-2.213,0.178-3.5,1.405c-0.561,0.534-0.58,1.421-0.049,1.981
					c0.535,0.558,1.424,0.578,1.982,0.046C86.801,49.411,87.744,46.573,87.744,46.573z"/>
				<path fill="#8CC3CC" d="M86.166,49.584c-0.01,0.336-0.668,0.604-1.002,0.595c-0.338-0.008-0.9-0.27-0.891-0.605
					C84.279,49.236,86.172,49.247,86.166,49.584z"/>
			</g>
			<g>
				<path fill="#A2D4DE" d="M86.178,38.71c0,0-2.215,0.177-3.5,1.404c-0.561,0.533-0.582,1.42-0.047,1.98
					c0.533,0.559,1.422,0.58,1.982,0.046C85.234,41.547,86.178,38.71,86.178,38.71z"/>
				<path fill="#8CC3CC" d="M84.598,41.719c-0.008,0.337-0.666,0.604-1.002,0.595c-0.336-0.008-0.898-0.27-0.891-0.605
					C82.713,41.371,84.605,41.383,84.598,41.719z"/>
			</g>
			<g>
				<path fill="#A2D4DE" d="M79.473,38.884c0,0-2.213,0.176-3.5,1.404c-0.559,0.534-0.58,1.42-0.047,1.98
					c0.533,0.559,1.422,0.579,1.98,0.047C78.529,41.72,79.473,38.884,79.473,38.884z"/>
				<path fill="#8CC3CC" d="M77.895,41.894c-0.01,0.336-0.668,0.604-1.004,0.594c-0.336-0.007-0.898-0.269-0.889-0.604
					C76.008,41.546,77.9,41.556,77.895,41.894z"/>
			</g>
			<g>
				<path fill="#A2D4DE" d="M99.424,38.313c0,0-2.215,0.177-3.5,1.404c-0.561,0.533-0.582,1.42-0.047,1.98
					c0.533,0.559,1.42,0.581,1.98,0.047C98.48,41.15,99.424,38.313,99.424,38.313z"/>
				<path fill="#8CC3CC" d="M97.844,41.322c-0.008,0.337-0.666,0.604-1.002,0.595c-0.338-0.008-0.9-0.27-0.891-0.605
					C95.959,40.975,97.852,40.986,97.844,41.322z"/>
			</g>
			<g>
				<path fill="#A2D4DE" d="M92.766,38.884c0,0-2.215,0.176-3.502,1.404c-0.559,0.534-0.58,1.42-0.047,1.98
					c0.535,0.559,1.422,0.579,1.98,0.047C91.82,41.72,92.766,38.884,92.766,38.884z"/>
				<path fill="#8CC3CC" d="M91.186,41.894c-0.01,0.336-0.668,0.604-1.004,0.594c-0.336-0.007-0.898-0.269-0.889-0.604
					C89.301,41.546,91.193,41.556,91.186,41.894z"/>
			</g>
			<g>
				<path fill="#A2D4DE" d="M87.557,32.214c0,0-2.215,0.176-3.5,1.404c-0.561,0.534-0.582,1.419-0.047,1.979
					c0.533,0.56,1.422,0.58,1.98,0.046C86.613,35.05,87.557,32.214,87.557,32.214z"/>
				<path fill="#8CC3CC" d="M85.977,35.222c-0.008,0.338-0.666,0.604-1.002,0.597c-0.336-0.009-0.898-0.271-0.891-0.606
					C84.092,34.874,85.984,34.886,85.977,35.222z"/>
			</g>
			<g>
				<path fill="#A2D4DE" d="M93.748,32.188c0,0-2.215,0.177-3.502,1.404c-0.559,0.535-0.58,1.422-0.047,1.981
					c0.535,0.558,1.424,0.579,1.98,0.046C92.803,35.025,93.748,32.188,93.748,32.188z"/>
				<path fill="#8CC3CC" d="M92.168,35.198c-0.01,0.336-0.668,0.604-1.004,0.595c-0.336-0.007-0.898-0.269-0.889-0.604
					C90.283,34.851,92.176,34.862,92.168,35.198z"/>
			</g>
		</g>
	</g>
</g>
</svg>
