<?xml version="1.0" encoding="utf-8"?>
<!-- Generator: Adobe Illustrator 16.0.0, SVG Export Plug-In . SVG Version: 6.00 Build 0)  -->
<!DOCTYPE svg PUBLIC "-//W3C//DTD SVG 1.1//EN" "http://www.w3.org/Graphics/SVG/1.1/DTD/svg11.dtd">
<svg version="1.1" id="Layer_1" xmlns="http://www.w3.org/2000/svg" xmlns:xlink="http://www.w3.org/1999/xlink" x="0px" y="0px"
     width="136.913px" height="136.914px" viewBox="0 0 136.913 136.914" enable-background="new 0 0 136.913 136.914"
     xml:space="preserve">
<g>
	<g>
		<g>
			<g>
				<path fill="#F28400" d="M5.123,68.459c0-34.982,28.355-63.336,63.334-63.336c34.977,0,63.332,28.354,63.332,63.336
					c0,34.977-28.355,63.332-63.332,63.332C33.479,131.791,5.123,103.436,5.123,68.459z"/>
			</g>
		</g>
	</g>
	<path fill-rule="evenodd" clip-rule="evenodd" fill="#F9C645" d="M110.85,68.783c0,23.326-18.91,42.236-42.236,42.236
		c-23.328,0-42.238-18.91-42.238-42.236c0-23.33,18.91-42.24,42.238-42.24C91.939,26.543,110.85,45.453,110.85,68.783z"/>
	<circle fill="#DC494A" cx="68.612" cy="68.783" r="21.671"/>
	<polygon fill="#E5E5E5" points="96.258,94.521 67.018,66.674 67.018,106.775 75.998,99.697 82.682,115.625 91.156,112.066 
		84.494,96.195 	"/>
</g>
</svg>
