<?xml version="1.0" encoding="utf-8"?>
<!-- Generator: Adobe Illustrator 16.0.0, SVG Export Plug-In . SVG Version: 6.00 Build 0)  -->
<!DOCTYPE svg PUBLIC "-//W3C//DTD SVG 1.1//EN" "http://www.w3.org/Graphics/SVG/1.1/DTD/svg11.dtd">
<svg version="1.1" id="Layer_1" xmlns="http://www.w3.org/2000/svg" xmlns:xlink="http://www.w3.org/1999/xlink" x="0px" y="0px"
     width="136.366px" height="135.463px" viewBox="0 0 136.366 135.463" enable-background="new 0 0 136.366 135.463"
     xml:space="preserve">
<g>
	<g>
		<g>
			<circle fill="#A0D2DC" cx="68.183" cy="67.714" r="63.333"/>
		</g>
	</g>
	<g>
		<g>
			<g>
				<g>
					<path fill="#A0D2DC" d="M127.266,90.557c2.736-7.079,4.25-14.765,4.25-22.809c0-34.979-28.355-63.333-63.332-63.333
						C33.205,4.415,4.85,32.769,4.85,67.748c0,7.18,1.213,14.073,3.414,20.508c15.924-8.395,35.842-12.398,57.459-12.398
						C89.23,75.857,110.73,80.589,127.266,90.557z"/>
				</g>
				<g>
					<path fill="#B1C635" d="M68.184,131.082c26.934,0,49.926-16.822,59.082-40.525C110.73,80.589,89.23,75.857,65.723,75.857
						c-21.617,0-41.535,4.004-57.459,12.398C16.789,113.165,40.387,131.082,68.184,131.082z"/>
				</g>
			</g>
		</g>
	</g>
	<g>
		<g>
			<g>
				<path fill="#EFEFEF" d="M71.494,75.967l-0.35-5.929c0-2.175-1.051-3.938-2.344-3.938h-0.625l0.021,9.789
					C69.301,75.904,70.4,75.93,71.494,75.967z"/>
			</g>
			<g>
				<path fill="#EFEFEF" d="M68.197,75.889l0.123,55.19c2.162-0.005,4.297-0.126,6.402-0.343l-3.229-54.77
					C70.4,75.93,69.301,75.904,68.197,75.889z"/>
			</g>
			<g>
				<path fill="#E4E4E4" d="M68.197,75.889L68.176,66.1h-0.354c-1.293,0-2.344,1.764-2.344,3.938l-0.344,5.826
					c0.197-0.001,0.391-0.007,0.588-0.007C66.551,75.857,67.373,75.877,68.197,75.889z"/>
			</g>
			<g>
				<path fill="#E4E4E4" d="M68.32,131.079l-0.123-55.19c-0.824-0.012-1.646-0.031-2.475-0.031c-0.197,0-0.391,0.006-0.588,0.007
					L61.9,130.762c2.068,0.203,4.16,0.32,6.283,0.32C68.229,131.082,68.275,131.08,68.32,131.079z"/>
			</g>
		</g>
		<g>
			<g>
				<path fill="#E4E4E4" d="M71.492,70.137c0,0.703-0.662,1.273-1.48,1.273h-3.479c-0.816,0-1.479-0.57-1.479-1.273v-4.328
					c0-0.705,0.662-1.275,1.479-1.275h3.479c0.818,0,1.48,0.57,1.48,1.275V70.137z"/>
			</g>
			<g>
				<circle fill="#CDCCCB" cx="68.14" cy="67.695" r="2.694"/>
			</g>
			<g>
				<g>
					<g>
						<g>
							<path fill="#D7D7D7" d="M57.477,71.113l4.021,0.218c0.951,0.052,6.035-2.944,6.035-2.944c0.053-0.953-0.676-1.768-1.631-1.82
								l-49.525-2.692c-0.955-0.052-1.77,0.68-1.822,1.632C14.555,65.506,56.523,71.061,57.477,71.113z"/>
						</g>
						<g>
							<path fill="#E9E9EA" d="M57.641,70.581l4.02,0.218c0.951,0.053,6.037-2.944,6.037-2.944c0.053-0.953-0.676-1.769-1.631-1.82
								l-49.525-2.691c-0.955-0.053-1.771,0.679-1.824,1.632C14.717,64.975,56.688,70.529,57.641,70.581z"/>
						</g>
					</g>
					<g>
						<g>
							<path fill="#D7D7D7" d="M70.436,57.479L68.48,61c-0.463,0.832,0.01,6.717,0.01,6.717c0.832,0.463,1.887,0.164,2.35-0.672
								l24.08-43.361c0.463-0.836,0.162-1.889-0.67-2.353C94.25,21.331,70.9,56.646,70.436,57.479z"/>
						</g>
						<g>
							<path fill="#E9E9EA" d="M70.219,56.984l-1.957,3.52c-0.463,0.833,0.012,6.717,0.012,6.717
								c0.832,0.464,1.885,0.164,2.348-0.672l24.082-43.361c0.465-0.836,0.16-1.889-0.672-2.352
								C94.031,20.836,70.682,56.15,70.219,56.984z"/>
						</g>
					</g>
					<g>
						<g>
							<path fill="#D7D7D7" d="M76.418,75.213l-2.131-3.418c-0.502-0.809-5.879-3.25-5.879-3.25
								c-0.809,0.504-1.057,1.568-0.551,2.379l26.232,42.095c0.506,0.812,1.574,1.058,2.383,0.555
								C96.473,113.573,76.922,76.022,76.418,75.213z"/>
						</g>
						<g>
							<path fill="#E9E9EA" d="M76.637,74.635l-2.129-3.418c-0.504-0.809-5.879-3.25-5.879-3.25
								c-0.809,0.504-1.057,1.568-0.551,2.381l26.234,42.093c0.504,0.812,1.572,1.058,2.381,0.554
								C96.693,112.994,77.141,75.445,76.637,74.635z"/>
						</g>
					</g>
				</g>
				<g>
					<circle fill="#E4E4E4" cx="68.141" cy="67.695" r="1.734"/>
				</g>
			</g>
		</g>
	</g>
</g>
</svg>
