<?xml version="1.0" encoding="utf-8"?>
<!-- Generator: Adobe Illustrator 16.0.0, SVG Export Plug-In . SVG Version: 6.00 Build 0)  -->
<!DOCTYPE svg PUBLIC "-//W3C//DTD SVG 1.1//EN" "http://www.w3.org/Graphics/SVG/1.1/DTD/svg11.dtd">
<svg version="1.1" id="Layer_1" xmlns="http://www.w3.org/2000/svg" xmlns:xlink="http://www.w3.org/1999/xlink" x="0px" y="0px"
     width="136.914px" height="136.914px" viewBox="0 0 136.914 136.914" enable-background="new 0 0 136.914 136.914"
     xml:space="preserve">
<g>
	<g>
		<circle fill="#A2D4DE" cx="68.458" cy="68.457" r="63.592"/>
	</g>
	<g>
		<circle fill="none" cx="68.458" cy="68.457" r="63.592"/>
	</g>
	<g>
		<g>
			<g>
				<path fill="#276D69" d="M84.403,66.362c-9.432,7.876-10.059,3.179-12.859,0.379c-2.746-2.745-7.232-3.359,0.379-12.857
					c7.576-9.455,29.322-16.843,29.322-16.843S93.696,58.601,84.403,66.362z"/>
			</g>
		</g>
		<g>
			<g>
				<path fill="#355957" d="M71.544,66.741c-2.746-2.745-7.232-3.359,0.379-12.857c7.576-9.455,29.322-16.843,29.322-16.843
					L71.544,66.741z"/>
			</g>
		</g>
		<g>
			<g>
				<path fill="#E79E2D" d="M75.823,71.213c1.234-1.234-6.828-9.638-8.232-8.232l-46.935,39.861l-3.267,2.855
					c1.282-1.053,2.465-2.055,3.015-2.604l47.149-40.078c0.707-0.705,3.074,1.043,5.111,3.124c0,0-40.813,40.814-48.208,48.207
					c2.686,2.574,5.588,4.926,8.691,7.002l2.813-3.199L75.823,71.213z"/>
			</g>
		</g>
		<g>
			<g>
				<path fill="#D68A28" d="M17.39,105.697c-0.098,0.08-0.195,0.16-0.294,0.242c0.002,0.002,0.004,0.006,0.006,0.01L17.39,105.697z"
					/>
			</g>
		</g>
		<g>
			<g>
				<path fill="#D68A28" d="M67.554,63.016l-47.149,40.078c-0.55,0.549-1.732,1.551-3.015,2.604l-0.288,0.252
					c2.203,3.012,4.668,5.818,7.355,8.396c7.395-7.393,48.208-48.207,48.208-48.207C70.628,64.059,68.261,62.311,67.554,63.016z"/>
			</g>
		</g>
		<g>
			<g>
				<path fill="#CDCCCB" d="M67.61,62.961L29.609,94.947l14.246,14.244l31.987-38C77.013,70.021,68.94,61.628,67.61,62.961z"/>
			</g>
		</g>
		<g>
			<g>
				<path fill="#B1B1B2" d="M67.61,62.961L29.609,94.947l7.129,7.129c0,0,36.21-35.652,35.927-35.935
					C70.608,64.082,68.276,62.294,67.61,62.961z"/>
			</g>
		</g>
		<g>
			<g>
				<path fill="#BFBEBE" d="M60.104,70.186L32.525,92.52l13.301,14.322l23.169-27.697C69.886,78.254,61.117,69.174,60.104,70.186z"
					/>
			</g>
		</g>
		<g>
			<g>
				<path fill="#AAAAAA" d="M67.61,62.961L31.979,92.955l6.959,6.959c0,0,33.938-33.564,33.728-33.773
					C70.608,64.082,68.276,62.294,67.61,62.961z"/>
			</g>
		</g>
	</g>
	<g>
		<circle fill="none" cx="68.458" cy="68.457" r="63.592"/>
	</g>
</g>
</svg>
