<?xml version="1.0" encoding="utf-8"?>
<!-- Generator: Adobe Illustrator 16.0.0, SVG Export Plug-In . SVG Version: 6.00 Build 0)  -->
<!DOCTYPE svg PUBLIC "-//W3C//DTD SVG 1.1//EN" "http://www.w3.org/Graphics/SVG/1.1/DTD/svg11.dtd">
<svg version="1.1" id="Layer_1" xmlns="http://www.w3.org/2000/svg" xmlns:xlink="http://www.w3.org/1999/xlink" x="0px" y="0px"
     width="136.914px" height="136.914px" viewBox="0 0 136.914 136.914" enable-background="new 0 0 136.914 136.914"
     xml:space="preserve">
<g>
	<g>
		<g>
			<circle fill="#E8E8DF" cx="68.458" cy="68.457" r="63.333"/>
		</g>
	</g>
	<g>
		<g>
			<path fill="#6B7D35" d="M65.113,82.177c-0.297-0.522-0.424-0.817-0.604-1.206c-0.162-0.365-0.311-0.724-0.451-1.082
				c-0.279-0.715-0.525-1.426-0.748-2.137c-0.443-1.422-0.793-2.846-1.074-4.271c-0.561-2.851-0.846-5.707-0.93-8.544
				c-0.039-1.419-0.027-2.833,0.029-4.24c0.053-1.401,0.174-2.913,0.449-4.369c0.506-2.935,1.762-5.868,3.494-8.205
				c1.711-2.36,3.592-4.192,4.777-6.379c1.221-2.162,1.764-4.702,1.836-7.327c0.066-2.603-0.346-5.268-1.018-7.857
				c-0.686-2.593-1.609-5.146-2.799-7.58c1.436,2.302,2.629,4.764,3.6,7.326c0.955,2.566,1.674,5.255,1.896,8.071
				c0.225,2.773-0.031,5.747-1.191,8.477c-1.135,2.741-2.965,4.961-4.18,7.149c-1.254,2.187-1.92,4.461-2.08,6.904
				c-0.092,1.229-0.055,2.431,0.035,3.736c0.088,1.301,0.217,2.594,0.391,3.874c0.352,2.56,0.887,5.075,1.635,7.48
				c0.375,1.2,0.805,2.375,1.293,3.495c0.244,0.56,0.502,1.106,0.775,1.628c0.135,0.26,0.275,0.514,0.416,0.753
				c0.127,0.216,0.316,0.52,0.371,0.575L65.113,82.177z"/>
		</g>
		<g>
			<g>
				<polygon fill="#B7C133" points="79.758,118.127 55.988,118.127 50.047,80.691 85.701,80.691 				"/>
			</g>
			<g>
				<polygon fill="#77913B" points="85.658,84.346 49.295,84.346 48.211,78.641 86.742,78.641 				"/>
			</g>
		</g>
		<g>
			<path fill="#B7C133" d="M88.736,45.889c-4.393-2.147-5.318-5.227-8.912-5.455c-2.689-0.172-5.008,1.869-5.178,4.559
				c-0.172,2.689,1.867,5.008,4.557,5.179C84.164,50.486,88.736,45.889,88.736,45.889z"/>
		</g>
		<g>
			<path fill="#B7C133" d="M83.861,25.871c-3.313-0.604-4.5-2.473-6.924-1.955c-1.814,0.387-2.971,2.172-2.582,3.985
				c0.387,1.813,2.17,2.972,3.986,2.583C81.686,29.771,83.861,25.871,83.861,25.871z"/>
		</g>
		<g>
			<path fill="#B7C133" d="M87.768,67.028c-5.508-1.728-7.133-5.156-11.365-4.786c-3.168,0.276-5.51,3.067-5.232,6.234
				c0.273,3.168,3.066,5.511,6.234,5.234C83.244,73.201,87.768,67.028,87.768,67.028z"/>
		</g>
		<g>
			<path fill="#B7C133" d="M48.639,43.836c4.814-0.859,6.549-3.568,10.066-2.803c2.633,0.572,4.305,3.172,3.729,5.805
				c-0.57,2.633-3.168,4.303-5.801,3.73C51.775,49.512,48.639,43.836,48.639,43.836z"/>
		</g>
		<g>
			<path fill="#B7C133" d="M59.355,28.705c3.313-0.605,4.5-2.474,6.922-1.956c1.814,0.388,2.973,2.172,2.584,3.985
				c-0.387,1.814-2.172,2.972-3.986,2.584C61.531,32.604,59.355,28.705,59.355,28.705z"/>
		</g>
		<g>
			<path fill="#B7C133" d="M41.949,61.944c5.508-1.728,7.133-5.156,11.365-4.786c3.168,0.276,5.51,3.067,5.232,6.234
				c-0.273,3.168-3.066,5.511-6.234,5.234C46.473,68.117,41.949,61.944,41.949,61.944z"/>
		</g>
		<g>
			<path fill="#6B7D35" d="M72.008,33.028c0.098-0.642,0.244-1.224,0.43-1.815c0.184-0.587,0.418-1.16,0.711-1.704
				c0.299-0.539,0.658-1.055,1.129-1.459c0.461-0.412,1.045-0.676,1.631-0.737c-0.568,0.171-1.053,0.517-1.396,0.963
				c-0.354,0.44-0.59,0.961-0.768,1.494c-0.174,0.537-0.287,1.093-0.355,1.655c-0.068,0.556-0.102,1.14-0.082,1.672v0.006
				c0.014,0.36-0.27,0.663-0.629,0.677c-0.361,0.013-0.664-0.27-0.676-0.63C72,33.109,72.002,33.066,72.008,33.028z"/>
		</g>
		<g>
			<path fill="#6B7D35" d="M72.041,36.098c-0.295-1.172-0.744-2.376-1.355-3.456c-0.617-1.062-1.441-2.116-2.695-2.496
				c0.641,0.076,1.264,0.356,1.797,0.747c0.541,0.387,1.01,0.867,1.434,1.378c0.42,0.515,0.795,1.064,1.135,1.635
				c0.34,0.575,0.646,1.15,0.92,1.788c0.143,0.331-0.01,0.715-0.34,0.857c-0.332,0.143-0.715-0.011-0.857-0.342
				c-0.014-0.031-0.025-0.063-0.033-0.095L72.041,36.098z"/>
		</g>
		<g>
			<path fill="#6B7D35" d="M67.346,46.712c0.766-0.663,1.52-1.149,2.348-1.604c0.82-0.44,1.686-0.8,2.586-1.029
				c0.898-0.229,1.836-0.326,2.744-0.234c0.91,0.089,1.783,0.372,2.551,0.801c-1.684-0.575-3.471-0.345-4.961,0.376
				c-0.754,0.355-1.451,0.815-2.094,1.339c-0.631,0.517-1.256,1.13-1.715,1.72l-0.01,0.011c-0.342,0.438-0.973,0.516-1.412,0.174
				c-0.438-0.342-0.514-0.974-0.172-1.411C67.25,46.803,67.299,46.753,67.346,46.712z"/>
		</g>
		<g>
			<path fill="#6B7D35" d="M65.418,72.428c0.623-0.799,1.27-1.423,1.992-2.027c0.719-0.592,1.5-1.111,2.338-1.512
				c0.838-0.399,1.738-0.675,2.648-0.761c0.91-0.089,1.82,0.02,2.656,0.292c-1.762-0.239-3.471,0.333-4.795,1.329
				c-0.67,0.494-1.266,1.081-1.793,1.719c-0.52,0.629-1.014,1.352-1.352,2.02L67.107,73.5c-0.25,0.495-0.855,0.694-1.352,0.443
				c-0.494-0.25-0.693-0.854-0.443-1.351C65.342,72.535,65.379,72.477,65.418,72.428z"/>
		</g>
		<g>
			<path fill="#6B7D35" d="M62.955,68.237c-0.338-0.668-0.83-1.391-1.35-2.02c-0.529-0.638-1.125-1.225-1.795-1.719
				c-1.324-0.996-3.031-1.568-4.795-1.329c0.836-0.272,1.746-0.381,2.656-0.292c0.912,0.086,1.811,0.361,2.648,0.761
				c0.838,0.4,1.619,0.92,2.338,1.512c0.725,0.604,1.369,1.229,1.992,2.027c0.342,0.438,0.266,1.069-0.172,1.411
				c-0.439,0.342-1.07,0.264-1.412-0.174c-0.039-0.051-0.074-0.104-0.104-0.16L62.955,68.237z"/>
		</g>
		<g>
			<path fill="#6B7D35" d="M64.098,52.938c-0.004-0.016-0.016-0.138-0.07-0.394c-0.051-0.258-0.146-0.631-0.279-1.075
				c-0.146-0.438-0.318-0.958-0.572-1.482c-0.238-0.535-0.557-1.068-0.908-1.585c-0.197-0.237-0.371-0.507-0.588-0.722
				c-0.215-0.218-0.416-0.455-0.652-0.628c-0.227-0.189-0.447-0.378-0.688-0.509c-0.232-0.14-0.447-0.297-0.674-0.378
				c-0.223-0.098-0.428-0.187-0.609-0.266c-0.191-0.052-0.357-0.098-0.494-0.135c-0.279-0.075-0.439-0.118-0.439-0.118
				s0.164,0.013,0.453,0.034c0.145,0.011,0.322,0.024,0.525,0.039c0.199,0.045,0.426,0.097,0.67,0.151
				c0.256,0.042,0.504,0.157,0.779,0.26c0.283,0.092,0.553,0.243,0.836,0.399c0.295,0.143,0.555,0.35,0.838,0.545
				c0.285,0.193,0.525,0.441,0.795,0.666c0.492,0.487,0.959,1.014,1.332,1.549c0.393,0.527,0.693,1.059,0.949,1.519
				c0.244,0.467,0.432,0.864,0.551,1.156c0.123,0.291,0.188,0.489,0.184,0.474c0.137,0.534-0.184,1.08-0.719,1.218
				S64.236,53.472,64.098,52.938z"/>
		</g>
	</g>
</g>
</svg>
