<?xml version="1.0" encoding="utf-8"?>
<!-- Generator: Adobe Illustrator 16.0.0, SVG Export Plug-In . SVG Version: 6.00 Build 0)  -->
<!DOCTYPE svg PUBLIC "-//W3C//DTD SVG 1.1//EN" "http://www.w3.org/Graphics/SVG/1.1/DTD/svg11.dtd">
<svg version="1.1" id="Layer_1" xmlns="http://www.w3.org/2000/svg" xmlns:xlink="http://www.w3.org/1999/xlink" x="0px" y="0px"
     width="136.913px" height="136.913px" viewBox="0 0 136.913 136.913" enable-background="new 0 0 136.913 136.913"
     xml:space="preserve">
<g>
	<g>
		<g>
			<circle fill="#344E5D" cx="68.456" cy="68.437" r="63.333"/>
		</g>
	</g>
	<g>
		<path fill="#4D8353" d="M68.453,131.811c26.934,0,49.926-16.822,59.082-40.525C111,81.317,89.5,76.586,65.992,76.586
			c-21.617,0-41.535,4.004-57.459,12.398C17.059,113.894,40.656,131.811,68.453,131.811z"/>
	</g>
	<g>
		<polygon fill="#D7DABA" points="102.133,35.141 103.148,38.263 106.43,38.263 103.773,40.191 104.789,43.313 102.133,41.383 
			99.479,43.313 100.492,40.191 97.838,38.263 101.119,38.263 		"/>
	</g>
	<g>
		<polygon fill="#D7DABA" points="86.363,24.076 87.066,26.239 89.34,26.239 87.5,27.575 88.203,29.737 86.363,28.401 
			84.523,29.737 85.227,27.575 83.387,26.239 85.66,26.239 		"/>
	</g>
	<g>
		<polygon fill="#D7DABA" points="102.506,56.497 103.209,58.661 105.482,58.661 103.643,59.997 104.346,62.159 102.506,60.823 
			100.666,62.159 101.369,59.997 99.529,58.661 101.803,58.661 		"/>
	</g>
	<g>
		<g>
			<path fill="#AE8038" d="M46.328,89.198c-1.6,1.6-2.309,3.482-1.584,4.207l0,0c0.723,0.724,2.605,0.015,4.205-1.584l20.584-20.585
				c1.6-1.599,2.309-3.481,1.584-4.206l0,0c-0.723-0.725-2.605-0.016-4.205,1.584L46.328,89.198z"/>
		</g>
	</g>
	<g>
		<g>
			<path fill="#BE9041" d="M43.377,78.364c-2.264,0-4.096,0.83-4.096,1.855l0,0c0,1.022,1.832,1.853,4.094,1.853h29.111
				c2.262,0,4.094-0.83,4.094-1.854l0,0c0.002-1.023-1.832-1.854-4.094-1.854H43.377z"/>
		</g>
	</g>
	<g>
		<g>
			<path fill="#B58C4F" d="M59.785,65.665c0-2.264-0.83-4.096-1.855-4.096l0,0c-1.023,0-1.854,1.832-1.854,4.094v29.111
				c0,2.262,0.83,4.094,1.855,4.094l0,0c1.023,0.002,1.854-1.832,1.854-4.094V65.665z"/>
		</g>
	</g>
	<g>
		<g>
			<path fill="#AE7C31" d="M66.91,91.821c1.6,1.6,3.482,2.309,4.207,1.584l0,0c0.725-0.725,0.016-2.607-1.584-4.205L48.949,68.614
				c-1.6-1.6-3.482-2.307-4.207-1.582l0,0c-0.725,0.723-0.016,2.605,1.584,4.205L66.91,91.821z"/>
		</g>
	</g>
	<g>
		<g>
			<path fill="#AE8038" d="M66.16,89.198c-1.6,1.6-2.309,3.482-1.584,4.207l0,0c0.725,0.724,2.607,0.015,4.205-1.584l20.586-20.585
				c1.6-1.599,2.307-3.481,1.582-4.206l0,0c-0.723-0.725-2.605-0.016-4.205,1.584L66.16,89.198z"/>
		</g>
	</g>
	<g>
		<g>
			<path fill="#BE9041" d="M86.744,91.821c1.6,1.6,3.482,2.309,4.207,1.584l0,0c0.723-0.725,0.014-2.607-1.584-4.205L68.781,68.614
				c-1.6-1.6-3.48-2.307-4.205-1.582l0,0c-0.725,0.723-0.016,2.605,1.584,4.205L86.744,91.821z"/>
		</g>
	</g>
	<g>
		<g>
			<path fill="#B58C4F" d="M92.318,82.073c2.262,0,4.094-0.83,4.094-1.855l0,0c0-1.023-1.834-1.854-4.094-1.854H63.207
				c-2.262,0-4.094,0.83-4.094,1.855l0,0c0,1.023,1.832,1.854,4.094,1.854H92.318z"/>
		</g>
	</g>
	<g>
		<g>
			<path fill="#AE7C31" d="M75.908,94.774c0,2.262,0.83,4.094,1.855,4.094l0,0c1.023,0,1.854-1.832,1.854-4.094V65.663
				c0-2.262-0.83-4.094-1.855-4.094l0,0c-1.023,0-1.854,1.832-1.854,4.094V94.774z"/>
		</g>
	</g>
	<g>
		<g>
			<g>
				<path fill="#E17A2D" d="M61.367,54.059c2.207-5.74,1.781-14.417,1.781-14.417s5.871,2.461,9.924,9.214
					c3.811,6.35,0.211,15.806,0.211,15.806c2.807-2.807,3.846-5.611,3.941-8.982c3.152,5.033,5.59,10.801,5.59,16.637
					c0,7.221-6.566,13.068-14.676,13.072c-8.104-0.004-14.674-5.852-14.674-13.072C53.465,65.286,58.766,60.827,61.367,54.059z"/>
			</g>
		</g>
		<g opacity="0.8">
			<g>
				<g>
					<path fill="#F4E028" d="M64.248,66.355c1.211-3.481,0.979-8.743,0.979-8.743s11.627,8.848,10.799,19.816
						c-0.33,4.367-3.605,7.926-8.059,7.928c-4.449-0.002-8.057-3.549-8.057-7.928C59.91,73.166,62.818,70.462,64.248,66.355z"/>
				</g>
			</g>
		</g>
		<g opacity="0.8">
			<g>
				<g>
					<path fill="#FFFFFF" d="M65.619,73.168c0.768-2.206,0.619-5.54,0.619-5.54s7.365,5.607,6.842,12.557
						c-0.209,2.766-2.285,5.021-5.105,5.021c-2.818,0-5.105-2.248-5.105-5.021C62.869,77.482,64.713,75.771,65.619,73.168z"/>
				</g>
			</g>
		</g>
	</g>
</g>
</svg>
