<?xml version="1.0" encoding="utf-8"?>
<!-- Generator: Adobe Illustrator 16.0.0, SVG Export Plug-In . SVG Version: 6.00 Build 0)  -->
<!DOCTYPE svg PUBLIC "-//W3C//DTD SVG 1.1//EN" "http://www.w3.org/Graphics/SVG/1.1/DTD/svg11.dtd">
<svg version="1.1" id="Layer_1" xmlns="http://www.w3.org/2000/svg" xmlns:xlink="http://www.w3.org/1999/xlink" x="0px" y="0px"
     width="136.913px" height="136.914px" viewBox="0 0 136.913 136.914" enable-background="new 0 0 136.913 136.914"
     xml:space="preserve">
<g>
	<g>
		<g>
			<g>
				<g>
					<g>
						<circle fill="#F9CE82" cx="68.456" cy="68.457" r="63.333"/>
					</g>
				</g>
			</g>
		</g>
	</g>
	<g>
		<g>
			<g>
				<path fill="#F69220" d="M20.318,89.83c-2.83-3.635,17.641-25.173,29.83-23.248c3.916,0.618,16.484,6.172,4.689,13.659
					c0,0-7.967,2.043-12.154,1.809C42.684,82.05,23.148,93.466,20.318,89.83z"/>
			</g>
		</g>
		<g>
			<g>
				<path fill="#FFFFFF" d="M103.475,40.054c0,0-1.076-9.683,1.344-8.607c0,0,2.422,0.806,4.305,0.806c0,0,2.959,0,1.613,2.69
					c0,0-3.496,5.918-3.766,7.532L103.475,40.054z"/>
			</g>
		</g>
		<g>
			<g>
				<path fill="#FFFFFF" d="M64.707,32.585c0,0-0.928-8.356,1.162-7.428c0,0,1.551,1.179,3.174,1.179c0,0,3.092-0.482,1.932,1.839
					c0,0-3.018,5.106-3.248,6.499L64.707,32.585z"/>
			</g>
		</g>
		<g>
			<g>
				<path fill="#E48225" d="M63.262,32.32c0.807-1.614,4.033-1.614,5.648-0.604c1.613,1.008,1.613,1.815,1.816,4.236
					c0.201,2.42,2.219,10.691,2.219,10.691l-22.393,5.447c0,0-0.809-2.421,4.035-7.464C59.428,39.583,61.109,36.625,63.262,32.32z"
					/>
			</g>
		</g>
		<g>
			<g>
				<path fill="#E37926" d="M30.58,79.595c0,0,4.438-26.093,33.488-33.354c0,0,19.77-8.473,31.672,4.64
					c0,0,24.613,9.684,1.816,39.138c0,0-27.639,14.929-50.031,15.938c0,0-8.506,1.03-15.029-3.281
					C27.479,99.356,28.475,92.138,30.58,79.595z"/>
			</g>
		</g>
		<g>
			<g>
				<path fill="#E48225" d="M32.732,73.677c0,0,9.414-23.132,33.082-28.049c0,0,15.334-7.457,29.859,4.647
					c0,0-9.912,5.535-12.641,14.524c-2.496,8.218,0.348,17.978-0.809,19.904c-2.42,4.035-11.889,6.28-29.191,7.061
					C53.033,91.765,28.99,95.966,32.732,73.677z"/>
			</g>
		</g>
		<g>
			<g>
				<path fill="#F7991F" d="M34.615,69.643c0,0,8.607-20.443,30.543-24.368c0,0,16.797-5.49,27.287,2.58
					c0,0-9.832,4.657-14.523,13.18c-2.918,5.3-1.266,14.946-1.885,17.215c-1.613,5.918-7.061,5.328-21.672,5.985
					C54.365,84.234,31.457,88.464,34.615,69.643z"/>
			</g>
		</g>
		<g>
			<g>
				<path fill="#E48225" d="M96.549,49.67c0,0-5.045,2.623-6.658,4.034c0,0-7.262,5.648-7.666,13.719c0,0-1.816,20.576,4.842,22.998
					c0,0,14.627,12.415,21.787-24.814c1.008-5.245-0.402-11.095-0.605-13.113c0,0,0.605-5.646,0.807-7.464
					c0,0,0.404-5.648-5.648-6.253C103.406,38.776,100.18,37.768,96.549,49.67z"/>
			</g>
		</g>
		<g>
			<g>
				<g>
					<path fill="#F69220" d="M83.301,67.423c0.402-8.07,7.666-13.719,7.666-13.719c1.613-1.411,6.656-4.034,6.656-4.034
						c2.564-8.407,4.926-10.37,6.094-10.8c-0.096-0.048-0.195-0.083-0.311-0.094c0,0-3.227-1.009-6.857,10.894
						c0,0-5.045,2.623-6.658,4.034c0,0-7.262,5.648-7.666,13.719c0,0-1.816,20.576,4.842,22.998c0,0,0.07-0.163,0.197-0.454
						C81.65,86.123,83.301,67.423,83.301,67.423z"/>
				</g>
			</g>
		</g>
		<g>
			<g>
				<path fill="#EB8123" d="M59.361,106.224c0.85,3.647,30.738,0.047,36.178-8.741c1.748-2.825,4.438-13.518-8.473-9.28
					c0,0-6.254,4.236-8.473,7.061C78.594,95.263,58.217,101.314,59.361,106.224z"/>
			</g>
		</g>
		<g>
			<g>
				<path fill="#F69220" d="M60.699,104.541c1.227,3.188,28.018,0.042,32.977-7.968c1.594-2.573,4.045-12.319-7.723-8.458
					c0,0-5.701,3.861-7.723,6.437C78.23,94.552,59.475,101.354,60.699,104.541z"/>
			</g>
		</g>
	</g>
</g>
</svg>
