<?xml version="1.0" encoding="utf-8"?>
<!-- Generator: Adobe Illustrator 16.0.0, SVG Export Plug-In . SVG Version: 6.00 Build 0)  -->
<!DOCTYPE svg PUBLIC "-//W3C//DTD SVG 1.1//EN" "http://www.w3.org/Graphics/SVG/1.1/DTD/svg11.dtd">
<svg version="1.1" id="Layer_1" xmlns="http://www.w3.org/2000/svg" xmlns:xlink="http://www.w3.org/1999/xlink" x="0px" y="0px"
     width="136.913px" height="136.913px" viewBox="0 0 136.913 136.913" enable-background="new 0 0 136.913 136.913"
     xml:space="preserve">
<g>
	<g>
		<g>
			<circle fill="#357180" cx="68.457" cy="68.455" r="63.333"/>
		</g>
	</g>
	<g>
		<g>
			<path fill="#202121" d="M102.628,105.514c0,5.959-4.832,10.791-10.791,10.791H46.872c-5.961,0-10.793-4.832-10.793-10.791V35.367
				c0-5.959,4.832-10.791,10.793-10.791h44.965c5.959,0,10.791,4.832,10.791,10.791V105.514z"/>
			<path fill="#4E4E4E" d="M52.452,106.723c0,0.822-0.664,1.488-1.486,1.488h-6.203c-0.822,0-1.488-0.666-1.488-1.488v-6.195
				c0-0.822,0.666-1.49,1.488-1.49h6.203c0.822,0,1.486,0.668,1.486,1.49V106.723z"/>
			<path fill="#4E4E4E" d="M63.155,106.723c0,0.822-0.666,1.488-1.486,1.488h-6.203c-0.822,0-1.49-0.666-1.49-1.488v-6.195
				c0-0.822,0.668-1.49,1.49-1.49h6.203c0.82,0,1.486,0.668,1.486,1.49V106.723z"/>
			<path fill="#4E4E4E" d="M73.856,106.723c0,0.822-0.664,1.488-1.486,1.488h-6.203c-0.82,0-1.488-0.666-1.488-1.488v-6.195
				c0-0.822,0.668-1.49,1.488-1.49h6.203c0.822,0,1.486,0.668,1.486,1.49V106.723z"/>
			<path fill="#4E4E4E" d="M52.452,96.021c0,0.82-0.664,1.488-1.486,1.488h-6.203c-0.822,0-1.488-0.668-1.488-1.488v-6.197
				c0-0.822,0.666-1.488,1.488-1.488h6.203c0.822,0,1.486,0.666,1.486,1.488V96.021z"/>
			<path fill="#4E4E4E" d="M63.155,96.021c0,0.82-0.666,1.488-1.486,1.488h-6.203c-0.822,0-1.49-0.668-1.49-1.488v-6.197
				c0-0.822,0.668-1.488,1.49-1.488h6.203c0.82,0,1.486,0.666,1.486,1.488V96.021z"/>
			<path fill="#4E4E4E" d="M73.856,96.021c0,0.82-0.664,1.488-1.486,1.488h-6.203c-0.82,0-1.488-0.668-1.488-1.488v-6.197
				c0-0.822,0.668-1.488,1.488-1.488h6.203c0.822,0,1.486,0.666,1.486,1.488V96.021z"/>
			<path fill="#4E4E4E" d="M52.452,85.318c0,0.822-0.664,1.488-1.486,1.488h-6.203c-0.822,0-1.488-0.666-1.488-1.488v-6.195
				c0-0.822,0.666-1.488,1.488-1.488h6.203c0.822,0,1.486,0.666,1.486,1.488V85.318z"/>
			<path fill="#4E4E4E" d="M63.155,85.318c0,0.822-0.666,1.488-1.486,1.488h-6.203c-0.822,0-1.49-0.666-1.49-1.488v-6.195
				c0-0.822,0.668-1.488,1.49-1.488h6.203c0.82,0,1.486,0.666,1.486,1.488V85.318z"/>
			<path fill="#4E4E4E" d="M73.856,85.318c0,0.822-0.664,1.488-1.486,1.488h-6.203c-0.82,0-1.488-0.666-1.488-1.488v-6.195
				c0-0.822,0.668-1.488,1.488-1.488h6.203c0.822,0,1.486,0.666,1.486,1.488V85.318z"/>
			<path fill="#4E4E4E" d="M52.452,74.617c0,0.82-0.664,1.488-1.486,1.488h-6.203c-0.822,0-1.488-0.668-1.488-1.488V68.42
				c0-0.822,0.666-1.488,1.488-1.488h6.203c0.822,0,1.486,0.666,1.486,1.488V74.617z"/>
			<path fill="#4E4E4E" d="M95.62,58.428c0,0.822-0.666,1.49-1.488,1.49H44.763c-0.822,0-1.488-0.668-1.488-1.49V34.246
				c0-0.822,0.666-1.488,1.488-1.488h49.369c0.822,0,1.488,0.666,1.488,1.488V58.428z"/>
			<path fill="#74C59C" d="M93.821,56.184c0,0.766-0.619,1.387-1.385,1.387H46.46c-0.766,0-1.387-0.621-1.387-1.387V36.492
				c0-0.766,0.621-1.387,1.387-1.387h45.977c0.766,0,1.385,0.621,1.385,1.387V56.184z"/>
			<path fill="#4E4E4E" d="M63.155,74.617c0,0.82-0.666,1.488-1.486,1.488h-6.203c-0.822,0-1.49-0.668-1.49-1.488V68.42
				c0-0.822,0.668-1.488,1.49-1.488h6.203c0.82,0,1.486,0.666,1.486,1.488V74.617z"/>
			<path fill="#4E4E4E" d="M73.856,74.617c0,0.82-0.664,1.488-1.486,1.488h-6.203c-0.82,0-1.488-0.668-1.488-1.488V68.42
				c0-0.822,0.668-1.488,1.488-1.488h6.203c0.822,0,1.486,0.666,1.486,1.488V74.617z"/>
			<path fill="#E79E2D" d="M93.954,99.037H83.251h-0.895H77.05c-0.822,0-1.49,0.668-1.49,1.49v6.195c0,0.822,0.668,1.488,1.49,1.488
				h5.307h0.895h10.703c0.82,0,1.488-0.666,1.488-1.488v-6.195C95.442,99.705,94.774,99.037,93.954,99.037z"/>
			<path fill="#63BD6E" d="M84.739,96.021c0,0.82-0.666,1.488-1.488,1.488H77.05c-0.822,0-1.49-0.668-1.49-1.488v-6.197
				c0-0.822,0.668-1.488,1.49-1.488h6.201c0.822,0,1.488,0.666,1.488,1.488V96.021z"/>
			<path fill="#63BD6E" d="M95.442,96.021c0,0.82-0.668,1.488-1.488,1.488h-6.203c-0.822,0-1.488-0.668-1.488-1.488v-6.197
				c0-0.822,0.666-1.488,1.488-1.488h6.203c0.82,0,1.488,0.666,1.488,1.488V96.021z"/>
			<path fill="#67B8CB" d="M84.739,85.318c0,0.822-0.666,1.488-1.488,1.488H77.05c-0.822,0-1.49-0.666-1.49-1.488v-6.195
				c0-0.822,0.668-1.488,1.49-1.488h6.201c0.822,0,1.488,0.666,1.488,1.488V85.318z"/>
			<path fill="#67B8CB" d="M95.442,85.318c0,0.822-0.668,1.488-1.488,1.488h-6.203c-0.822,0-1.488-0.666-1.488-1.488v-6.195
				c0-0.822,0.666-1.488,1.488-1.488h6.203c0.82,0,1.488,0.666,1.488,1.488V85.318z"/>
			<path fill="#E84849" d="M84.739,74.617c0,0.82-0.666,1.488-1.488,1.488H77.05c-0.822,0-1.49-0.668-1.49-1.488V68.42
				c0-0.822,0.668-1.488,1.49-1.488h6.201c0.822,0,1.488,0.666,1.488,1.488V74.617z"/>
			<path fill="#E84849" d="M95.442,74.617c0,0.82-0.668,1.488-1.488,1.488h-6.203c-0.822,0-1.488-0.668-1.488-1.488V68.42
				c0-0.822,0.666-1.488,1.488-1.488h6.203c0.82,0,1.488,0.666,1.488,1.488V74.617z"/>
		</g>
		<g>
			<path opacity="0.15" d="M45.153,56.184V36.492c0-0.766,0.621-1.387,1.387-1.387h20.096L89.101,57.57H46.54
				C45.774,57.57,45.153,56.949,45.153,56.184z"/>
		</g>
	</g>
</g>
</svg>
