<?xml version="1.0" encoding="utf-8"?>
<!-- Generator: Adobe Illustrator 16.0.0, SVG Export Plug-In . SVG Version: 6.00 Build 0)  -->
<!DOCTYPE svg PUBLIC "-//W3C//DTD SVG 1.1//EN" "http://www.w3.org/Graphics/SVG/1.1/DTD/svg11.dtd">
<svg version="1.1" id="Layer_1" xmlns="http://www.w3.org/2000/svg" xmlns:xlink="http://www.w3.org/1999/xlink" x="0px" y="0px"
     width="136.913px" height="136.914px" viewBox="0 0 136.913 136.914" enable-background="new 0 0 136.913 136.914"
     xml:space="preserve">
<g>
	<g>
		<path fill="#EFEFEF" d="M5.123,68.458c0-34.98,28.355-63.334,63.332-63.334c34.979,0,63.334,28.354,63.334,63.334
			c0,34.976-28.355,63.331-63.334,63.331C33.479,131.789,5.123,103.434,5.123,68.458z"/>
	</g>
	<g>
		<circle fill="#B6E2EA" cx="56.195" cy="38.569" r="9.578"/>
		<circle fill="#B6E2EA" cx="73.229" cy="34.257" r="9.578"/>
		<g>
			<path fill="#FBC096" d="M50.291,69.578l-3.623,10.119c0,0-1.041,1.434-0.25,5.756c1.248,6.82,1.721,9.693,3.531,12.684
				c4.568,7.545,9.768,13.139,9.768,13.139l-1.504-22.482c0,0-3.344-9.654-2.453-12.514c2.166-6.939-4.754-8.295-4.754-8.295
				L50.291,69.578z"/>
			<path fill="#FDD7B3" d="M48.398,74.811l2.178-6.686c0,0,1.549,0.974,1.674,2.115C52.389,71.498,50.26,74.791,48.398,74.811z"/>
			<g>
				<g>
					<g>
						<g>
							<path fill="#FBC096" d="M94.986,83.229c0.051,3.029-2.072,12.646-5.102,12.701l0,0c-3.027,0.053-5.525-2.361-5.578-5.389
								L83.73,67.218c-0.053-3.03,1.33-5.436,4.361-5.487l0,0c3.027-0.052,4.174,1.651,4.791,5.391L94.986,83.229z"/>
							<path fill="#EDAC80" d="M85.092,79.971l1.613-18.018c-1.957,0.418-3.004,3.021-2.975,4.751l-0.143,18.931
								C83.838,85.031,85.072,80.664,85.092,79.971z"/>
						</g>
						<path fill="#FBC096" d="M53.424,82.133v11.961c0.402,14.254,9.561,23.691,20.977,23.494s20.854-11.225,20.854-26.471
							l-0.281-8.258L53.424,82.133z"/>
						<g>
							<path fill="#FBC096" d="M85.375,96.191c0.053,3.027-2.359,5.523-5.391,5.578l0,0c-3.029,0.055-5.527-2.361-5.578-5.391
								l-0.578-33.176c-0.051-3.03,2.361-5.529,5.391-5.58l0,0c3.029-0.055,5.527,2.359,5.58,5.39L85.375,96.191z"/>
							<path fill="#EDAC80" d="M75.188,74.277l2.49-16.225c-1.996,0-3.881,3.076-3.85,4.808v13.53
								C74.08,75.785,75.17,74.973,75.188,74.277z"/>
						</g>
						<g>
							<path fill="#FBC096" d="M74.744,80.385c0.145,3.357-3.467,6.193-6.484,5.918l0,0c-3.016-0.281-5.221-3.141-4.916-6.395
								l3.787-44.897c0.299-3.253,2.988-5.664,6.008-5.385l0,0c3.016,0.277,4.928,3.152,4.863,5.701L74.73,80.582"/>
							<path fill="#EDAC80" d="M63.766,76.391l2.367-19.295c0.275-13.694,0.791-19.457,0.621-17.598l-3.967,43.398
								C63.109,82.277,63.666,77.133,63.766,76.391z"/>
						</g>
						<path fill="#FBC096" d="M65.174,82.896c0.15,3.027-2.83,11.85-5.855,12l0,0c-3.025,0.152-6.098-13.732-6.188-15.434
							l-1.771-38.315c-0.209-4.348,2.121-6.925,5.15-7.074l0,0c3.025-0.148,5.6,2.183,5.75,5.208L65.174,82.896z"/>
						<path fill="#FDD7B3" d="M60.508,41.146l-0.139-2.699c-0.098-1.916-1.844-3.388-3.9-3.289c-2.059,0.101-3.646,1.733-3.549,3.65
							l0.135,2.698c0,0,1.088,0.601,3.563,0.456C59.689,41.786,59.758,41.515,60.508,41.146z"/>
						<path fill="#FDD7B3" d="M76.287,37.331l0.244-2.691c0.172-1.911-1.35-3.613-3.4-3.807c-2.051-0.19-3.855,1.203-4.027,3.115
							l-0.246,2.69c0,0,0.992,0.746,3.463,0.953C75.387,37.85,75.492,37.59,76.287,37.331z"/>
						<g>
							<path fill="#FDD7B3" d="M61.996,61.432c0.012,0.219-0.156,0.404-0.377,0.416l-6.895,0.34
								c-0.221,0.011-0.406-0.155-0.414-0.376l0,0c-0.012-0.218,0.156-0.403,0.375-0.414l6.895-0.342
								C61.801,61.045,61.986,61.213,61.996,61.432L61.996,61.432z"/>
							<path fill="#FDD7B3" d="M60.305,63.478c0.008,0.193-0.139,0.356-0.334,0.366l-3.408,0.17
								c-0.193,0.009-0.357-0.143-0.367-0.332l0,0c-0.01-0.195,0.143-0.356,0.332-0.369l3.408-0.171
								C60.131,63.135,60.295,63.283,60.305,63.478L60.305,63.478z"/>
						</g>
						<g>
							<path fill="#FDD7B3" d="M75.219,56.518c-0.023,0.219-0.219,0.375-0.436,0.354l-6.865-0.742
								c-0.219-0.024-0.377-0.218-0.352-0.437l0,0c0.023-0.217,0.221-0.375,0.436-0.352l6.865,0.742
								C75.086,56.105,75.242,56.301,75.219,56.518L75.219,56.518z"/>
							<path fill="#FDD7B3" d="M73.227,58.273c-0.021,0.193-0.191,0.331-0.385,0.311l-3.395-0.365
								c-0.191-0.021-0.33-0.195-0.311-0.386l0,0c0.021-0.194,0.195-0.33,0.387-0.312l3.393,0.364
								C73.109,57.908,73.25,58.081,73.227,58.273L73.227,58.273z"/>
						</g>
					</g>
				</g>
			</g>
			<path fill="#EDAC80" d="M52.625,68.982l0.289,11.803l1.756,13.129l-2.578-9.92c0,0-0.926-2.77-0.359-5.164
				C52.172,76.979,52.625,68.982,52.625,68.982z"/>
			<path fill="#FDD7B3" d="M48.781,81.133c0.004,0.193-0.148,0.352-0.344,0.355l-1.77,0.061c-0.193,0.002-0.354-0.154-0.357-0.344
				l0,0c-0.002-0.195,0.152-0.354,0.344-0.359l1.771-0.061C48.619,80.783,48.779,80.938,48.781,81.133L48.781,81.133z"/>
			<path fill="#FDD7B3" d="M47.961,82.48c0.004,0.193-0.148,0.352-0.344,0.355l-0.949,0.059c-0.193,0.004-0.354-0.152-0.357-0.342
				l0,0c-0.002-0.195,0.152-0.354,0.344-0.357l0.949-0.063C47.799,82.133,47.959,82.285,47.961,82.48L47.961,82.48z"/>
			<g>
				<path fill="#F5B88E" d="M62.264,80.443c0.35,1.23-0.229,2.473-1.449,2.916c-0.742,0.266-0.422,1.459,0.326,1.188
					c1.846-0.67,2.855-2.523,2.311-4.432C63.234,79.354,62.045,79.676,62.264,80.443L62.264,80.443z"/>
			</g>
			<g>
				<path fill="#F5B88E" d="M72.4,78.268c0.4,2.16-0.813,4.027-2.932,4.578c-0.768,0.199-0.316,1.346,0.445,1.148
					c2.617-0.68,4.201-3.213,3.711-5.863C73.482,77.355,72.254,77.482,72.4,78.268L72.4,78.268z"/>
			</g>
			<g>
				<path fill="#F5B88E" d="M81.967,80.18c0.307,1.523-0.531,2.965-2.047,3.379c-0.762,0.209-0.527,1.418,0.242,1.209
					c2.156-0.59,3.459-2.617,3.012-4.828C83.018,79.162,81.809,79.4,81.967,80.18L81.967,80.18z"/>
			</g>
			<g>
				<path fill="#F5B88E" d="M92.424,82.002c0.189,1.129-0.406,2.238-1.564,2.518c-0.76,0.184-0.637,1.412,0.135,1.225
					c1.783-0.432,2.971-2.023,2.654-3.879C93.518,81.086,92.291,81.217,92.424,82.002L92.424,82.002z"/>
			</g>
		</g>
	</g>
</g>
</svg>
