<?xml version="1.0" encoding="utf-8"?>
<!-- Generator: Adobe Illustrator 16.0.0, SVG Export Plug-In . SVG Version: 6.00 Build 0)  -->
<!DOCTYPE svg PUBLIC "-//W3C//DTD SVG 1.1//EN" "http://www.w3.org/Graphics/SVG/1.1/DTD/svg11.dtd">
<svg version="1.1" id="Layer_1" xmlns="http://www.w3.org/2000/svg" xmlns:xlink="http://www.w3.org/1999/xlink" x="0px" y="0px"
     width="136.914px" height="136.913px" viewBox="0 0 136.914 136.913" enable-background="new 0 0 136.914 136.913"
     xml:space="preserve">
<g>
	<g>
		<g>
			<circle fill="#9CBDBF" cx="68.458" cy="68.456" r="63.333"/>
		</g>
	</g>
	<g>
		<path fill-rule="evenodd" clip-rule="evenodd" fill="#626463" d="M71.632,70.05L44.346,97.335l-4.492-3.531l27.766-27.768
			L71.632,70.05z"/>
		<path fill-rule="evenodd" clip-rule="evenodd" fill="#4C4D4D" d="M45.027,97.837c-7.182,8.625-17.24,5.029-19.035-3.947
			c-0.705-3.525,4.668-8.264,6.465-5.027c-1.436,12.211,7.141,4.262,7.141,4.262s2.273,0.4,3.666,1.793
			C44.66,96.312,45.027,97.837,45.027,97.837z"/>
		<g>
			<path fill-rule="evenodd" clip-rule="evenodd" fill="#E84849" d="M97.032,40.024c31.391,31.391,0.016,70.438,0.016,70.438
				c-0.438-11.443-11.268-22.27-22.271-22.27c0,0-2.375-9.43-9.253-16.309c-6.877-6.875-15.441-8.387-15.441-8.387
				c0.566-10.439-9.471-21.477-21.977-21.977C28.105,41.521,65.641,8.634,97.032,40.024z"/>
			<path fill-rule="evenodd" clip-rule="evenodd" fill="#F06668" d="M97.032,40.024c5.996,5.998-17.637,42.324-22.256,48.168
				c0,0-2.375-9.43-9.253-16.309c-6.877-6.875-15.441-8.387-15.441-8.387C55.41,58.366,92.622,35.616,97.032,40.024z"/>
			<path fill-rule="evenodd" clip-rule="evenodd" fill="#4B4A4B" d="M99.2,43.026c-0.912,0.916-2.811,0.498-4.24-0.93
				c-1.428-1.43-1.846-3.328-0.934-4.24c0.914-0.912,2.811-0.496,4.238,0.934C99.696,40.22,100.112,42.116,99.2,43.026z"/>
		</g>
	</g>
</g>
</svg>
