<?xml version="1.0" encoding="utf-8"?>
<!-- Generator: Adobe Illustrator 16.0.0, SVG Export Plug-In . SVG Version: 6.00 Build 0)  -->
<!DOCTYPE svg PUBLIC "-//W3C//DTD SVG 1.1//EN" "http://www.w3.org/Graphics/SVG/1.1/DTD/svg11.dtd">
<svg version="1.1" id="Layer_1" xmlns="http://www.w3.org/2000/svg" xmlns:xlink="http://www.w3.org/1999/xlink" x="0px" y="0px"
     width="136.913px" height="136.913px" viewBox="0 0 136.913 136.913" enable-background="new 0 0 136.913 136.913"
     xml:space="preserve">
<g>
	<g>
		<g>
			<g>
				<circle fill="#EFC849" cx="68.456" cy="68.456" r="63.333"/>
			</g>
		</g>
	</g>
	<g>
		<g>
			<g>
				<path fill="#E7E7E7" d="M75.639,82.104c0,1.672-1.355,3.025-3.025,3.025H37.816c-1.67,0-3.025-1.354-3.025-3.025V33.692
					c0-1.672,1.355-3.025,3.025-3.025h34.797c1.67,0,3.025,1.354,3.025,3.025V82.104z"/>
			</g>
		</g>
		<g>
			<g>
				<path fill="#C9C9C8" d="M71.381,43.853c0,0.521-0.422,0.943-0.943,0.943H40.219c-0.521,0-0.945-0.422-0.945-0.943l0,0
					c0-0.521,0.424-0.945,0.945-0.945h30.219C70.959,42.907,71.381,43.331,71.381,43.853L71.381,43.853z"/>
			</g>
		</g>
		<g>
			<g>
				<path fill="#C9C9C8" d="M71.381,48.81c0,0.521-0.422,0.945-0.943,0.945H40.219c-0.521,0-0.945-0.424-0.945-0.945l0,0
					c0-0.521,0.424-0.945,0.945-0.945h30.219C70.959,47.864,71.381,48.288,71.381,48.81L71.381,48.81z"/>
			</g>
		</g>
		<g>
			<g>
				<path fill="#C9C9C8" d="M71.381,38.894c0,0.521-0.422,0.945-0.943,0.945H40.219c-0.521,0-0.945-0.424-0.945-0.945l0,0
					c0-0.521,0.424-0.943,0.945-0.943h30.219C70.959,37.95,71.381,38.372,71.381,38.894L71.381,38.894z"/>
			</g>
		</g>
		<g>
			<g>
				<path fill="#C9C9C8" d="M71.381,53.767c0,0.523-0.422,0.945-0.943,0.945H40.219c-0.521,0-0.945-0.422-0.945-0.945l0,0
					c0-0.521,0.424-0.943,0.945-0.943h30.219C70.959,52.823,71.381,53.245,71.381,53.767L71.381,53.767z"/>
			</g>
		</g>
		<g>
			<g>
				<path fill="#C9C9C8" d="M71.381,58.489c0,0.521-0.422,0.945-0.943,0.945H40.219c-0.521,0-0.945-0.424-0.945-0.945l0,0
					c0-0.521,0.424-0.945,0.945-0.945h30.219C70.959,57.544,71.381,57.968,71.381,58.489L71.381,58.489z"/>
			</g>
		</g>
		<g>
			<g>
				<path fill="#C9C9C8" d="M71.381,63.446c0,0.521-0.422,0.945-0.943,0.945H40.219c-0.521,0-0.945-0.424-0.945-0.945l0,0
					c0-0.521,0.424-0.943,0.945-0.943h30.219C70.959,62.503,71.381,62.925,71.381,63.446L71.381,63.446z"/>
			</g>
		</g>
	</g>
	<g>
		<g>
			<g>
				<path fill="#F3F4F5" d="M107.139,90.604c0,1.672-1.355,3.025-3.025,3.025H69.316c-1.67,0-3.025-1.354-3.025-3.025V42.192
					c0-1.672,1.355-3.025,3.025-3.025h34.797c1.67,0,3.025,1.354,3.025,3.025V90.604z"/>
			</g>
		</g>
		<g>
			<g>
				<path fill="#C9C9C8" d="M102.881,52.353c0,0.521-0.422,0.943-0.943,0.943H71.719c-0.521,0-0.945-0.422-0.945-0.943l0,0
					c0-0.521,0.424-0.945,0.945-0.945h30.219C102.459,51.407,102.881,51.831,102.881,52.353L102.881,52.353z"/>
			</g>
		</g>
		<g>
			<g>
				<path fill="#C9C9C8" d="M102.881,57.31c0,0.521-0.422,0.945-0.943,0.945H71.719c-0.521,0-0.945-0.424-0.945-0.945l0,0
					c0-0.521,0.424-0.945,0.945-0.945h30.219C102.459,56.364,102.881,56.788,102.881,57.31L102.881,57.31z"/>
			</g>
		</g>
		<g>
			<g>
				<path fill="#C9C9C8" d="M102.881,47.394c0,0.521-0.422,0.945-0.943,0.945H71.719c-0.521,0-0.945-0.424-0.945-0.945l0,0
					c0-0.521,0.424-0.943,0.945-0.943h30.219C102.459,46.45,102.881,46.872,102.881,47.394L102.881,47.394z"/>
			</g>
		</g>
		<g>
			<g>
				<path fill="#C9C9C8" d="M102.881,62.267c0,0.523-0.422,0.945-0.943,0.945H71.719c-0.521,0-0.945-0.422-0.945-0.945l0,0
					c0-0.521,0.424-0.943,0.945-0.943h30.219C102.459,61.323,102.881,61.745,102.881,62.267L102.881,62.267z"/>
			</g>
		</g>
		<g>
			<g>
				<path fill="#C9C9C8" d="M102.881,66.989c0,0.521-0.422,0.945-0.943,0.945H71.719c-0.521,0-0.945-0.424-0.945-0.945l0,0
					c0-0.521,0.424-0.945,0.945-0.945h30.219C102.459,66.044,102.881,66.468,102.881,66.989L102.881,66.989z"/>
			</g>
		</g>
		<g>
			<g>
				<path fill="#C9C9C8" d="M102.881,71.947c0,0.521-0.422,0.945-0.943,0.945H71.719c-0.521,0-0.945-0.424-0.945-0.945l0,0
					c0-0.521,0.424-0.943,0.945-0.943h30.219C102.459,71.004,102.881,71.426,102.881,71.947L102.881,71.947z"/>
			</g>
		</g>
	</g>
	<g>
		<g>
			<g>
				<g>
					<path fill="#F5F5F5" d="M53.668,53.142c-1.67,0-3.025,1.355-3.025,3.025v48.411c0,1.672,1.355,3.027,3.025,3.027h34.797
						c1.67,0,3.025-1.355,3.025-3.027V67.153L76.904,53.142H53.668z"/>
				</g>
			</g>
		</g>
		<g>
			<g>
				<path fill="#E1E1E1" d="M91.49,67.153H79.93c-1.67,0-3.025-1.354-3.025-3.025V53.142L91.49,67.153z"/>
			</g>
		</g>
		<g>
			<g>
				<path fill="#C9C9C8" d="M87.232,71.287c0,0.521-0.422,0.943-0.943,0.943H56.07c-0.521,0-0.945-0.422-0.945-0.943l0,0
					c0-0.521,0.424-0.945,0.945-0.945h30.219C86.811,70.342,87.232,70.766,87.232,71.287L87.232,71.287z"/>
			</g>
		</g>
		<g>
			<g>
				<path fill="#C9C9C8" d="M87.232,76.244c0,0.521-0.422,0.945-0.943,0.945H56.07c-0.521,0-0.945-0.424-0.945-0.945l0,0
					c0-0.521,0.424-0.945,0.945-0.945h30.219C86.811,75.299,87.232,75.723,87.232,76.244L87.232,76.244z"/>
			</g>
		</g>
		<g>
			<g>
				<path fill="#C9C9C8" d="M87.232,80.965c0,0.521-0.422,0.945-0.943,0.945H56.07c-0.521,0-0.945-0.424-0.945-0.945l0,0
					c0-0.521,0.424-0.943,0.945-0.943h30.219C86.811,80.021,87.232,80.443,87.232,80.965L87.232,80.965z"/>
			</g>
		</g>
		<g>
			<g>
				<path fill="#C9C9C8" d="M87.232,85.924c0,0.521-0.422,0.943-0.943,0.943H56.07c-0.521,0-0.945-0.422-0.945-0.943l0,0
					c0-0.521,0.424-0.945,0.945-0.945h30.219C86.811,84.979,87.232,85.402,87.232,85.924L87.232,85.924z"/>
			</g>
		</g>
		<g>
			<g>
				<path fill="#C9C9C8" d="M71.889,89.938H56.07c-0.521,0-0.945,0.422-0.945,0.943s0.424,0.945,0.945,0.945h15.818
					c0.521,0,0.943-0.424,0.943-0.945S72.41,89.938,71.889,89.938z"/>
			</g>
		</g>
	</g>
</g>
</svg>
