<?xml version="1.0" encoding="utf-8"?>
<!-- Generator: Adobe Illustrator 16.0.0, SVG Export Plug-In . SVG Version: 6.00 Build 0)  -->
<!DOCTYPE svg PUBLIC "-//W3C//DTD SVG 1.1//EN" "http://www.w3.org/Graphics/SVG/1.1/DTD/svg11.dtd">
<svg version="1.1" id="Layer_1" xmlns="http://www.w3.org/2000/svg" xmlns:xlink="http://www.w3.org/1999/xlink" x="0px" y="0px"
     width="136.913px" height="136.913px" viewBox="0 0 136.913 136.913" enable-background="new 0 0 136.913 136.913"
     xml:space="preserve">
<g>
	<g>
		<rect x="5.408" y="74.378" fill="#C42126" width="126.096" height="0.002"/>
		<rect x="11.976" y="39.807" fill="#C42126" width="112.959" height="0.003"/>
		<rect x="7.484" y="51.331" fill="#C42126" width="121.943" height="0.002"/>
		<rect x="19.764" y="108.948" fill="#C42126" width="97.385" height="0"/>
		<polygon fill="#C42126" points="32.344,120.474 104.57,120.474 104.574,120.47 32.34,120.47 		"/>
		<path fill="#C42126" d="M68.455,5.124c-1.244,0-2.477,0.045-3.703,0.115h7.408C70.934,5.169,69.699,5.124,68.455,5.124z"/>
		<rect x="5.385" y="62.854" fill="#C42126" width="126.145" height="0.002"/>
	</g>
	<g>
		<path fill="#E7E7E7" d="M87.174,28.284h30.242c-3.592-4.373-7.766-8.244-12.391-11.521H82.316
			C84.195,20.069,85.811,23.97,87.174,28.284z"/>
		<path fill="#DC3027" d="M82.316,16.763h22.709C95.637,10.11,84.365,5.944,72.16,5.239h-1.951
			C75.955,5.962,78.594,10.214,82.316,16.763z"/>
		<path fill="#E7E7E7" d="M129.428,51.331c-1.127-4.016-2.637-7.869-4.492-11.521H90.143c0.705,3.699,1.262,7.563,1.674,11.521
			H129.428z"/>
		<path fill="#DC3027" d="M88.186,39.808h36.748c-2.094-4.119-4.609-7.984-7.518-11.523h-32.1
			C86.447,31.868,87.408,35.733,88.186,39.808z"/>
		<path fill="#E7E7E7" d="M93.148,74.378h38.355c0.182-1.949,0.285-3.924,0.285-5.92c0-1.889-0.098-3.754-0.26-5.602H93.158
			C93.283,66.688,93.281,70.548,93.148,74.378z"/>
		<path fill="#DC3027" d="M131.529,62.854c-0.348-3.957-1.061-7.807-2.102-11.521H90.201c0.393,3.773,0.654,7.633,0.781,11.521
			H131.529z"/>
		<path fill="#E7E7E7" d="M89.482,97.425h35.287c1.883-3.648,3.416-7.504,4.566-11.523H91.188
			C90.768,89.866,90.197,93.729,89.482,97.425z"/>
		<path fill="#DC3027" d="M129.336,85.901c1.063-3.713,1.801-7.563,2.168-11.521H91.953c-0.135,3.891-0.402,7.75-0.805,11.521
			H129.336z"/>
		<path fill="#E7E7E7" d="M104.574,120.47c4.691-3.264,8.926-7.139,12.574-11.521H87.434c-1.389,4.332-3.039,8.227-4.951,11.521
			H104.574z"/>
		<path fill="#DC3027" d="M86.316,108.948h30.832c2.943-3.535,5.496-7.4,7.621-11.523H89.223
			C88.434,101.503,87.463,105.37,86.316,108.948z"/>
		<path fill="#DC3027" d="M66.16,131.745c-0.127-0.004-0.256-0.01-0.383-0.014C65.904,131.735,66.033,131.741,66.16,131.745z"/>
		<path fill="#DC3027" d="M68.455,131.79c13.428,0,25.869-4.191,36.115-11.316H81.648C77.58,127.483,74.896,131.79,68.455,131.79z"
			/>
		<path fill="#C42126" d="M68.455,131.79c-0.768,0-1.533-0.018-2.295-0.045C66.93,131.771,67.695,131.79,68.455,131.79z"/>
		<path fill="#F3F4F5" d="M84.412,16.763H31.889c-4.627,3.277-8.801,7.148-12.393,11.521h69.775
			C87.906,23.97,86.291,20.069,84.412,16.763z"/>
		<path fill="#E73625" d="M31.889,16.763h52.523c-3.723-6.549-8.457-10.801-14.203-11.523h-5.457
			C52.547,5.944,41.275,10.11,31.889,16.763z"/>
		<path fill="#F3F4F5" d="M7.486,51.331h86.328c-0.412-3.959-0.969-7.822-1.674-11.521H11.977
			C10.121,43.462,8.611,47.315,7.486,51.331z"/>
		<path fill="#E73625" d="M19.496,28.284c-2.906,3.539-5.424,7.404-7.518,11.523h80.162c-0.777-4.074-1.738-7.939-2.869-11.523
			H19.496z"/>
		<path fill="#F3F4F5" d="M5.123,68.458c0,1.996,0.104,3.971,0.285,5.92h89.18c0.131-3.83,0.133-7.689,0.008-11.521H5.385
			C5.223,64.704,5.123,66.569,5.123,68.458z"/>
		<path fill="#E73625" d="M5.385,62.854h89.211c-0.127-3.889-0.389-7.748-0.781-11.521H7.484C6.443,55.048,5.73,58.897,5.385,62.854
			z"/>
		<path fill="#F3F4F5" d="M93.783,85.901H7.576c1.15,4.02,2.686,7.875,4.566,11.523h79.934
			C92.793,93.729,93.361,89.866,93.783,85.901z"/>
		<path fill="#E73625" d="M7.576,85.901h86.207c0.4-3.771,0.67-7.631,0.805-11.521H5.408C5.775,78.339,6.514,82.188,7.576,85.901z"
			/>
		<path fill="#F3F4F5" d="M32.34,120.47h51.879c1.914-3.295,3.563-7.189,4.951-11.521H19.764
			C23.414,113.331,27.646,117.206,32.34,120.47z"/>
		<path fill="#E73625" d="M12.143,97.425c2.125,4.123,4.68,7.988,7.621,11.523H89.17c1.146-3.578,2.117-7.445,2.906-11.523H12.143z"
			/>
		<path fill="#E73625" d="M65.777,131.731c0.127,0.004,0.256,0.01,0.383,0.014c0.762,0.027,1.527,0.045,2.295,0.045
			c6.441,0,11.693-4.307,15.762-11.316H32.344C41.902,127.122,53.377,131.214,65.777,131.731z"/>
	</g>
	<g>
		<path fill="#283991" d="M67.146,5.157C34.691,5.817,8.24,30.876,5.393,62.751h61.754V5.157z"/>
	</g>
	<g>
		<polygon fill="#EFEFEF" points="17.795,41.007 18.76,43.978 21.887,43.978 19.357,45.815 20.324,48.788 17.795,46.95 
			15.268,48.788 16.232,45.815 13.705,43.978 16.83,43.978 		"/>
		<polygon fill="#EFEFEF" points="17.795,51.503 18.76,54.476 21.887,54.476 19.357,56.313 20.324,59.286 17.795,57.448 
			15.268,59.286 16.232,56.313 13.705,54.476 16.83,54.476 		"/>
		<polygon fill="#EFEFEF" points="28.293,25.259 29.258,28.231 32.383,28.231 29.855,30.069 30.82,33.04 28.293,31.204 
			25.766,33.04 26.73,30.069 24.201,28.231 27.328,28.231 		"/>
		<polygon fill="#EFEFEF" points="28.293,35.757 29.258,38.729 32.383,38.729 29.855,40.565 30.82,43.538 28.293,41.702 
			25.766,43.538 26.73,40.565 24.201,38.729 27.328,38.729 		"/>
		<polygon fill="#EFEFEF" points="28.293,46.255 29.258,49.228 32.383,49.228 29.855,51.063 30.82,54.036 28.293,52.198 
			25.766,54.036 26.73,51.063 24.201,49.228 27.328,49.228 		"/>
		<g>
			<path fill="#EFEFEF" d="M9.826,54.036l-0.967-2.973l2.529-1.836H8.264l-0.07-0.217c-0.344,1.061-0.654,2.135-0.939,3.221
				l0.043-0.033L9.826,54.036z"/>
			<path fill="#EFEFEF" d="M15.268,38.29l2.527-1.838l2.529,1.838l-0.967-2.973l2.529-1.838H18.76l-0.965-2.971l-0.965,2.971h-1.152
				c-0.213,0.324-0.42,0.65-0.629,0.979l1.184,0.859L15.268,38.29z"/>
			<path fill="#EFEFEF" d="M28.293,20.706l2.527,1.836l-0.965-2.971l2.527-1.838h-1.805c-1.533,1.146-3.012,2.359-4.432,3.639
				l-0.381,1.17L28.293,20.706z"/>
			<path fill="#EFEFEF" d="M36.264,17.294l2.527-1.838l2.527,1.838l-0.965-2.973l2.527-1.836h-3.125l-0.131-0.4
				c-1.059,0.541-2.107,1.104-3.131,1.703l0.734,0.533L36.264,17.294z"/>
		</g>
		<polygon fill="#EFEFEF" points="38.791,20.011 39.756,22.981 42.881,22.981 40.354,24.819 41.318,27.792 38.791,25.954 
			36.264,27.792 37.229,24.819 34.699,22.981 37.826,22.981 		"/>
		<polygon fill="#EFEFEF" points="38.791,30.509 39.756,33.479 42.881,33.479 40.354,35.317 41.318,38.29 38.791,36.452 
			36.264,38.29 37.229,35.317 34.699,33.479 37.826,33.479 		"/>
		<polygon fill="#EFEFEF" points="38.791,41.007 39.756,43.978 42.881,43.978 40.354,45.815 41.318,48.788 38.791,46.95 
			36.264,48.788 37.229,45.815 34.699,43.978 37.826,43.978 		"/>
		<polygon fill="#EFEFEF" points="38.791,51.503 39.756,54.476 42.881,54.476 40.354,56.313 41.318,59.286 38.791,57.448 
			36.264,59.286 37.229,56.313 34.699,54.476 37.826,54.476 		"/>
		<polygon fill="#EFEFEF" points="49.289,14.761 50.254,17.733 53.379,17.733 50.852,19.571 51.816,22.542 49.289,20.706 
			46.76,22.542 47.727,19.571 45.197,17.733 48.324,17.733 		"/>
		<polygon fill="#EFEFEF" points="49.289,25.259 50.254,28.231 53.379,28.231 50.852,30.069 51.816,33.04 49.289,31.204 
			46.76,33.04 47.727,30.069 45.197,28.231 48.324,28.231 		"/>
		<polygon fill="#EFEFEF" points="49.289,35.757 50.254,38.729 53.379,38.729 50.852,40.565 51.816,43.538 49.289,41.702 
			46.76,43.538 47.727,40.565 45.197,38.729 48.324,38.729 		"/>
		<polygon fill="#EFEFEF" points="49.289,46.255 50.254,49.228 53.379,49.228 50.852,51.063 51.816,54.036 49.289,52.198 
			46.76,54.036 47.727,51.063 45.197,49.228 48.324,49.228 		"/>
		<polygon fill="#EFEFEF" points="59.787,9.513 60.752,12.485 63.877,12.485 61.35,14.321 62.314,17.294 59.787,15.456 
			57.258,17.294 58.225,14.321 55.695,12.485 58.82,12.485 		"/>
		<polygon fill="#EFEFEF" points="59.787,20.011 60.752,22.981 63.877,22.981 61.35,24.819 62.314,27.792 59.787,25.954 
			57.258,27.792 58.225,24.819 55.695,22.981 58.82,22.981 		"/>
		<polygon fill="#EFEFEF" points="59.787,30.509 60.752,33.479 63.877,33.479 61.35,35.317 62.314,38.29 59.787,36.452 
			57.258,38.29 58.225,35.317 55.695,33.479 58.82,33.479 		"/>
		<polygon fill="#EFEFEF" points="59.787,41.007 60.752,43.978 63.877,43.978 61.35,45.815 62.314,48.788 59.787,46.95 
			57.258,48.788 58.225,45.815 55.695,43.978 58.82,43.978 		"/>
		<polygon fill="#EFEFEF" points="59.787,51.503 60.752,54.476 63.877,54.476 61.35,56.313 62.314,59.286 59.787,57.448 
			57.258,59.286 58.225,56.313 55.695,54.476 58.82,54.476 		"/>
	</g>
</g>
</svg>
