<?xml version="1.0" encoding="utf-8"?>
<!-- Generator: Adobe Illustrator 16.0.0, SVG Export Plug-In . SVG Version: 6.00 Build 0)  -->
<!DOCTYPE svg PUBLIC "-//W3C//DTD SVG 1.1//EN" "http://www.w3.org/Graphics/SVG/1.1/DTD/svg11.dtd">
<svg version="1.1" id="Layer_1" xmlns="http://www.w3.org/2000/svg" xmlns:xlink="http://www.w3.org/1999/xlink" x="0px" y="0px"
     width="136.914px" height="136.913px" viewBox="0 0 136.914 136.913" enable-background="new 0 0 136.914 136.913"
     xml:space="preserve">
<g>
	<g>
		<g>
			<g>
				<g>
					<g>
						<path fill="#D62127" d="M5.125,68.458c0-34.98,28.355-63.334,63.332-63.334c34.979,0,63.334,28.354,63.334,63.334
							c0,34.975-28.355,63.33-63.334,63.33C33.48,131.788,5.125,103.433,5.125,68.458z"/>
					</g>
				</g>
			</g>
		</g>
	</g>
	<g>
		<g>
			<g>
				<g>
					<path fill="#EA9F3C" d="M68.816,19.692c-26.723,0-48.387,21.663-48.387,48.387c0,13.432,5.475,25.582,14.313,34.35
						l34.074-34.35v48.385c26.725,0,48.389-21.662,48.389-48.385C117.205,41.355,95.541,19.692,68.816,19.692z"/>
				</g>
			</g>
		</g>
		<g>
			<g>
				<g>
					<path fill="#E98F23" d="M68.816,22.992c-24.9,0-45.088,20.187-45.088,45.087c0,12.516,5.102,23.838,13.336,32.006
						l31.752-32.006v45.086c24.902,0,45.088-20.188,45.088-45.086C113.904,43.179,93.719,22.992,68.816,22.992z"/>
				</g>
			</g>
		</g>
		<g>
			<g>
				<g>
					<path fill="#E99323" d="M68.816,24.091c-24.293,0-43.988,19.694-43.988,43.988c0,12.211,4.977,23.256,13.012,31.227
						l30.977-31.227v43.986c24.295,0,43.988-19.693,43.988-43.986C112.805,43.785,93.111,24.091,68.816,24.091z"/>
				</g>
			</g>
		</g>
		<g>
			<g>
				<g>
					<path fill="#EAD760" d="M68.813,26.329c-9.133-4.419-14.678,1.976-26.68,9.629c-10.107,6.445-11.986,18.594-15.092,32.14
						c-1.174,5.128,2.822,10.159,2.748,14.927c-0.096,5.979,5.439,10.59,9.607,14.727l29.416-29.653v41.769
						c8.748-2.822,21.424-2.316,27.158-10.035c9.531-12.826,17.648-19.404,14.611-31.733c-4.799-19.474-6.822-26.274-17.311-33.861
						C86.396,29.261,77.561,30.562,68.813,26.329z"/>
				</g>
			</g>
		</g>
		<g>
			<g>
				<g>
					<path fill="#F8E37F" d="M42.133,35.958c-10.107,6.445-11.986,18.594-15.092,32.14c-1.174,5.128,2.822,10.159,2.748,14.927
						c-0.096,5.979,5.439,10.59,9.607,14.727l29.416-29.653v41.769C84.029,75.958,54.135,28.305,42.133,35.958z"/>
				</g>
			</g>
		</g>
		<g>
			<g>
				<g>
					
						<ellipse transform="matrix(0.9073 -0.4206 0.4206 0.9073 -27.3702 45.8898)" fill="#EC2224" cx="90.365" cy="85.004" rx="7.595" ry="6.614"/>
				</g>
			</g>
			<g>
				<g>
					<path fill="#DA1F26" d="M93.92,80.927c0.498,1.072-1.543,2.064-4.078,3.24c-2.537,1.176-4.457,2.426-4.955,1.352
						s0.615-4.066,3.152-5.242S93.422,79.851,93.92,80.927z"/>
				</g>
			</g>
			<g>
				<g>
					<path fill="#DA1F26" d="M95.516,84.37c0.498,1.074-0.871,3.51-3.408,4.688c-2.537,1.174-5.434,0.313-5.932-0.762
						s1.592-1.953,4.129-3.129C92.842,83.989,95.018,83.298,95.516,84.37z"/>
				</g>
			</g>
		</g>
		<g>
			<g>
				<g>
					<ellipse fill="#EC2224" cx="78.286" cy="34.692" rx="7.595" ry="6.615"/>
				</g>
			</g>
			<g>
				<g>
					<path fill="#DA1F26" d="M83.227,32.487c0,1.186-2.266,1.227-5.063,1.227c-2.795,0-5.063,0.326-5.063-0.858
						c0-1.183,2.268-3.429,5.063-3.429C80.961,29.427,83.227,31.305,83.227,32.487z"/>
				</g>
			</g>
			<g>
				<g>
					<path fill="#DA1F26" d="M83.227,36.286c0,1.185-2.266,2.817-5.063,2.817c-2.795,0-5.063-2.001-5.063-3.185
						c0-1.185,2.268-1.104,5.063-1.104C80.961,34.815,83.227,35.103,83.227,36.286z"/>
				</g>
			</g>
		</g>
		<g>
			<g>
				<g>
					
						<ellipse transform="matrix(-0.458 0.889 -0.889 -0.458 147.632 31.9037)" fill="#EC2224" cx="64.09" cy="60.959" rx="6.474" ry="6.502"/>
				</g>
			</g>
			<g>
				<g>
					<path fill="#DA1F26" d="M64.088,65.696c-1.035-0.534-0.186-2.27,0.906-4.39c1.092-2.117,1.691-3.983,2.727-3.45
						c1.033,0.533,2.111,3.264,1.02,5.383C67.648,65.357,65.121,66.229,64.088,65.696z"/>
				</g>
			</g>
			<g>
				<g>
					<path fill="#DA1F26" d="M60.77,63.984c-1.035-0.533-1.578-2.985-0.484-5.104c1.092-2.119,3.725-2.937,4.76-2.403
						c1.035,0.534,0.078,2.215-1.014,4.332C62.939,62.931,61.803,64.517,60.77,63.984z"/>
				</g>
			</g>
		</g>
		<g>
			<g>
				<g>
					<path fill="#A31E22" d="M57.453,49.292c0,4.557-4.031,9.715-9.119,9.715c-5.084,0-9.209-3.692-9.209-8.248
						s4.125-8.248,9.209-8.248C53.422,42.511,57.453,44.737,57.453,49.292z"/>
				</g>
			</g>
			<g>
				<g>
					<path fill="#B73535" d="M56.59,49.292c0,4.13-3.141,8.432-7.75,8.432s-8.852-2.836-8.852-6.965s3.738-7.475,8.346-7.475
						C52.945,43.284,56.59,45.163,56.59,49.292z"/>
				</g>
			</g>
			<g>
				<g>
					<path fill="#C13B3B" d="M48.84,57.724c-4.609,0-8.852-2.836-8.852-6.965s3.738-7.475,8.346-7.475
						C52.945,43.284,53.449,57.724,48.84,57.724z"/>
				</g>
			</g>
		</g>
		<g>
			<g>
				<g>
					<path fill="#A31E22" d="M98.143,57.083c0,4.556-4.031,9.714-9.119,9.714c-5.086,0-9.209-3.692-9.209-8.248
						s4.123-8.249,9.209-8.249C94.111,50.3,98.143,52.526,98.143,57.083z"/>
				</g>
			</g>
			<g>
				<g>
					<path fill="#B73535" d="M97.279,57.083c0,4.128-3.141,8.43-7.75,8.43s-8.852-2.834-8.852-6.964
						c0-4.129,3.736-7.476,8.346-7.476C93.635,51.073,97.279,52.952,97.279,57.083z"/>
				</g>
			</g>
			<g>
				<g>
					<path fill="#C13B3B" d="M89.529,65.513c-4.609,0-8.852-2.834-8.852-6.964c0-4.129,3.736-7.476,8.346-7.476
						C93.635,51.073,94.139,65.513,89.529,65.513z"/>
				</g>
			</g>
		</g>
		<g>
			<g>
				<g>
					
						<ellipse transform="matrix(0.417 0.9089 -0.9089 0.417 97.3414 9.4324)" fill="#EC2224" cx="41.318" cy="80.592" rx="7.593" ry="6.614"/>
				</g>
			</g>
			<g>
				<g>
					<path fill="#DA1F26" d="M45.383,84.163c-1.078,0.492-2.059-1.551-3.225-4.092c-1.166-2.543-2.408-4.465-1.33-4.957
						c1.074-0.494,4.061,0.631,5.229,3.17C47.221,80.827,46.457,83.669,45.383,84.163z"/>
				</g>
			</g>
			<g>
				<g>
					<path fill="#DA1F26" d="M41.932,85.745c-1.078,0.494-3.506-0.885-4.672-3.428c-1.166-2.541-0.293-5.436,0.783-5.93
						c1.076-0.492,1.947,1.602,3.113,4.145C42.322,83.073,43.006,85.253,41.932,85.745z"/>
				</g>
			</g>
		</g>
		<g>
			<g>
				<g>
					<path fill="#EB9C22" d="M65.977,123.612c-13.293,0-25.332-5.359-34.078-14.033l34.078-34.352V123.612z"/>
				</g>
			</g>
			<g>
				<g>
					<path fill="#EA9F3C" d="M31.898,109.579c8.746,8.674,20.785,14.033,34.078,14.033v-3.703
						c-12.107-0.451-23.076-5.346-31.322-13.109L31.898,109.579z"/>
				</g>
			</g>
			<g>
				<g>
					<path fill="#F8E37F" d="M36.926,103.817c0,0,12.77,9.691,17.564,9.977c4.795,0.289,7.32,2.363,11.76,3.221l-0.273-41.787
						L36.926,103.817z"/>
				</g>
			</g>
		</g>
		<g>
			<g>
				<g>
					<path fill="#A31E22" d="M68.863,81.823c-0.016,0-0.031,0.002-0.047,0.002v0.775c0.016,0,0.031-0.004,0.047-0.004
						c4.609,0,8.256,1.879,8.256,6.008s-3.143,8.432-7.752,8.432c-0.184,0-0.367-0.012-0.551-0.021v1.303
						c0.016,0,0.031,0.002,0.047,0.002c5.086,0,9.117-5.16,9.117-9.715S73.949,81.823,68.863,81.823z"/>
				</g>
			</g>
			<g>
				<g>
					<path fill="#B73535" d="M69.367,97.036c4.609,0,7.752-4.303,7.752-8.432s-3.646-6.008-8.256-6.008
						c-0.016,0-0.031,0.004-0.047,0.004v14.414C69,97.024,69.184,97.036,69.367,97.036z"/>
				</g>
			</g>
		</g>
		<g>
			<g>
				<g>
					<path fill="#A31E22" d="M57.859,96.989c0-4.115,3.713-7.451,8.301-7.473v-0.771c-5.064,0.021-9.164,3.703-9.164,8.244
						c0,4.543,4.1,8.225,9.164,8.246v-1.301C61.77,103.718,57.859,100.954,57.859,96.989z"/>
				</g>
			</g>
			<g>
				<g>
					<path fill="#C13B3B" d="M57.859,96.989c0,3.965,3.91,6.729,8.301,6.945V89.517C61.572,89.538,57.859,92.874,57.859,96.989z"/>
				</g>
			</g>
		</g>
		<g>
			<g>
				<g>
					<path fill="#76692A" d="M81.486,71.638c0,1.367-0.643,2.75-2.475,2.566c-1.51-0.152-2.861-1.563-2.383-2.84
						c0.551-1.467,0.863-2.108,2.383-2.108C80.529,69.256,81.486,70.272,81.486,71.638z"/>
				</g>
			</g>
			<g>
				<g>
					<path fill="#8F8547" d="M79.715,72.61c-0.496,0.371-1.172,0.512-1.602-0.203c-0.354-0.59-0.207-1.463,0.389-1.635
						c0.68-0.197,0.998-0.258,1.408,0.295C80.322,71.618,80.213,72.241,79.715,72.61z"/>
				</g>
			</g>
		</g>
		<g>
			<g>
				<g>
					<path fill="#76692A" d="M78.736,49.276c0,1.367-0.641,2.749-2.475,2.566c-1.51-0.15-2.861-1.563-2.381-2.842
						c0.549-1.465,0.863-2.106,2.381-2.106C77.781,46.895,78.736,47.91,78.736,49.276z"/>
				</g>
			</g>
			<g>
				<g>
					<path fill="#8F8547" d="M76.967,50.249c-0.498,0.37-1.174,0.512-1.604-0.203c-0.354-0.591-0.207-1.463,0.389-1.635
						c0.682-0.198,1-0.258,1.41,0.295C77.572,49.258,77.463,49.88,76.967,50.249z"/>
				</g>
			</g>
		</g>
		<g>
			<g>
				<g>
					<path fill="#5C2A2A" d="M53.902,70.173c0,1.365-0.643,2.748-2.475,2.564c-1.512-0.15-2.863-1.563-2.383-2.842
						c0.551-1.466,0.863-2.105,2.383-2.105C52.945,67.79,53.902,68.804,53.902,70.173z"/>
				</g>
			</g>
			<g>
				<g>
					<path fill="#864F4F" d="M52.131,71.144c-0.496,0.371-1.174,0.512-1.602-0.205c-0.355-0.588-0.207-1.461,0.387-1.634
						c0.682-0.196,1-0.257,1.41,0.294C52.738,70.153,52.627,70.774,52.131,71.144z"/>
				</g>
			</g>
		</g>
		<g>
			<g>
				<g>
					<path fill="#5C2A2A" d="M61.91,35.265c-1.199,0.658-2.719,0.76-3.439-0.934c-0.596-1.397-0.008-3.262,1.344-3.455
						c1.549-0.225,2.264-0.258,2.994,1.074S63.107,34.608,61.91,35.265z"/>
				</g>
			</g>
			<g>
				<g>
					<path fill="#864F4F" d="M60.205,34.181c-0.563-0.258-1.012-0.781-0.592-1.502c0.348-0.595,1.184-0.885,1.621-0.445
						c0.5,0.5,0.705,0.75,0.418,1.377C61.367,34.235,60.768,34.438,60.205,34.181z"/>
				</g>
			</g>
		</g>
		<g>
			<g>
				<g>
					<path fill="#5C2A2A" d="M104.615,71.19c-1.197,0.656-2.719,0.758-3.441-0.936c-0.594-1.398-0.006-3.262,1.346-3.457
						c1.549-0.223,2.264-0.256,2.994,1.076C106.244,69.205,105.813,70.532,104.615,71.19z"/>
				</g>
			</g>
			<g>
				<g>
					<path fill="#864F4F" d="M102.91,70.104c-0.564-0.258-1.012-0.782-0.592-1.502c0.348-0.594,1.184-0.886,1.619-0.447
						c0.502,0.502,0.705,0.752,0.42,1.377C104.072,70.159,103.473,70.362,102.91,70.104z"/>
				</g>
			</g>
		</g>
		<g>
			<g>
				<g>
					<path fill="#76692A" d="M48.006,101.466c0,1.367-0.643,2.75-2.475,2.566c-1.512-0.15-2.863-1.561-2.383-2.84
						c0.549-1.465,0.865-2.107,2.383-2.107S48.006,100.101,48.006,101.466z"/>
				</g>
			</g>
			<g>
				<g>
					<path fill="#8F8547" d="M46.234,102.44c-0.496,0.369-1.172,0.51-1.602-0.205c-0.354-0.59-0.209-1.465,0.387-1.635
						c0.682-0.197,1-0.256,1.41,0.295C46.842,101.446,46.73,102.071,46.234,102.44z"/>
				</g>
			</g>
		</g>
		<g>
			<g>
				<g>
					<path fill="#5C2A2A" d="M88.359,98.944c0,1.367-0.643,2.75-2.475,2.566c-1.512-0.15-2.863-1.563-2.383-2.842
						c0.551-1.465,0.863-2.107,2.383-2.107C87.402,96.562,88.359,97.579,88.359,98.944z"/>
				</g>
			</g>
			<g>
				<g>
					<path fill="#864F4F" d="M86.588,99.917c-0.496,0.371-1.172,0.512-1.602-0.203c-0.355-0.59-0.207-1.465,0.387-1.635
						c0.682-0.197,1-0.258,1.41,0.295C87.195,98.927,87.084,99.548,86.588,99.917z"/>
				</g>
			</g>
		</g>
		<g>
			<g>
				<g>
					<path fill="#76692A" d="M36.691,59.653c0,1.367-0.643,2.75-2.475,2.566c-1.512-0.15-2.863-1.561-2.383-2.841
						c0.549-1.468,0.863-2.108,2.383-2.108C35.734,57.271,36.691,58.287,36.691,59.653z"/>
				</g>
			</g>
			<g>
				<g>
					<path fill="#8F8547" d="M34.918,60.626c-0.496,0.371-1.17,0.512-1.602-0.205c-0.354-0.588-0.207-1.461,0.389-1.633
						c0.682-0.198,1-0.258,1.41,0.295S35.416,60.257,34.918,60.626z"/>
				</g>
			</g>
		</g>
	</g>
</g>
</svg>
