<?xml version="1.0" encoding="utf-8"?>
<!-- Generator: Adobe Illustrator 16.0.0, SVG Export Plug-In . SVG Version: 6.00 Build 0)  -->
<!DOCTYPE svg PUBLIC "-//W3C//DTD SVG 1.1//EN" "http://www.w3.org/Graphics/SVG/1.1/DTD/svg11.dtd">
<svg version="1.1" id="Layer_1" xmlns="http://www.w3.org/2000/svg" xmlns:xlink="http://www.w3.org/1999/xlink" x="0px" y="0px"
     width="136.913px" height="136.914px" viewBox="0 0 136.913 136.914" enable-background="new 0 0 136.913 136.914"
     xml:space="preserve">
<g>
	<g>
		<circle fill="#FFFFFF" cx="68.457" cy="68.458" r="63.333"/>
	</g>
	<g>
		<path fill="#D32027" d="M128.171,47.341H89.149c1.693,13.529,1.705,28.436,0.031,41.982h39.074
			c2.279-6.535,3.535-13.553,3.535-20.865C131.79,61.05,130.507,53.946,128.171,47.341z"/>
		<path fill="#0B0B0B" d="M89.149,47.341h39.021c-0.008-0.02-0.014-0.037-0.02-0.055c-8.107-22.855-28.955-39.67-54.006-41.902
			C83.839,10.698,86.669,27.534,89.149,47.341z"/>
		<path fill="#F3C515" d="M74.146,131.528c25.096-2.236,45.975-19.109,54.049-42.025c0.02-0.061,0.039-0.121,0.061-0.18H89.181
			C86.722,109.237,83.88,126.192,74.146,131.528z"/>
		<path fill="#DB2727" d="M5.124,68.458c0,7.313,1.254,14.33,3.535,20.865h83.783c1.672-13.547,1.662-28.453-0.033-41.982H8.743
			C6.407,53.946,5.124,61.05,5.124,68.458z"/>
		<path fill="#151515" d="M8.763,47.286c-0.008,0.018-0.014,0.035-0.02,0.055h83.666c-2.479-19.807-8.57-36.643-18.264-41.957
			c-1.875-0.166-3.771-0.26-5.689-0.26C40.905,5.124,17.474,22.72,8.763,47.286z"/>
		<path fill="#F8D12E" d="M92.442,89.323H8.659c0.021,0.059,0.039,0.119,0.061,0.18c8.678,24.629,32.139,42.287,59.736,42.287
			c1.918,0,3.814-0.094,5.689-0.262C83.88,126.192,89.983,109.237,92.442,89.323z"/>
	</g>
</g>
</svg>
