<?xml version="1.0" encoding="utf-8"?>
<!-- Generator: Adobe Illustrator 16.0.0, SVG Export Plug-In . SVG Version: 6.00 Build 0)  -->
<!DOCTYPE svg PUBLIC "-//W3C//DTD SVG 1.1//EN" "http://www.w3.org/Graphics/SVG/1.1/DTD/svg11.dtd">
<svg version="1.1" id="Layer_1" xmlns="http://www.w3.org/2000/svg" xmlns:xlink="http://www.w3.org/1999/xlink" x="0px" y="0px"
     width="136.914px" height="136.914px" viewBox="0 0 136.914 136.914" enable-background="new 0 0 136.914 136.914"
     xml:space="preserve">
<g>
	<g>
		<g>
			<circle fill="#B1C635" cx="68.458" cy="68.458" r="63.333"/>
		</g>
	</g>
	<g>
		<g>
			<path fill="#444341" d="M61.158,104.563v26.796c2.396,0.275,4.828,0.432,7.299,0.432c2.264,0,4.498-0.123,6.701-0.355v-26.872
				C75.158,100.696,61.158,100.696,61.158,104.563z"/>
		</g>
	</g>
	<g>
		<g>
			<path fill="#524F49" d="M80.631,105.388c0,6.825-5.529,8.01-12.355,8.01l0,0c-6.824,0-12.355-1.185-12.355-8.01V93.261
				c0-6.826,5.531-12.357,12.355-12.357l0,0c6.826,0,12.355,5.531,12.355,12.357V105.388z"/>
		</g>
		<g>
			<g>
				<g>
					<path fill="#77746F" d="M62.799,51.683c0,2.797-2.266,5.064-5.063,5.064l0,0c-2.797,0-5.064-2.268-5.064-5.064V39.241h10.127
						V51.683z"/>
				</g>
			</g>
			<g>
				<g>
					<path fill="#E4DFD6" d="M62.07,39.874h-8.666v-8.613c0-2.394,1.939-4.333,4.332-4.333l0,0c2.395,0,4.334,1.939,4.334,4.333
						V39.874z"/>
				</g>
			</g>
		</g>
		<g>
			<g>
				<g>
					<path fill="#77746F" d="M84.652,51.683c0,2.797-2.268,5.064-5.063,5.064l0,0c-2.797,0-5.064-2.268-5.064-5.064V39.241h10.127
						V51.683z"/>
				</g>
			</g>
			<g>
				<g>
					<path fill="#E4DFD6" d="M83.924,39.874h-8.668v-8.613c0-2.394,1.941-4.333,4.334-4.333l0,0c2.393,0,4.334,1.939,4.334,4.333
						V39.874z"/>
				</g>
			</g>
		</g>
		<g>
			<path fill="#585550" d="M79.607,100.548H57.402c-8.652,0-14.641-32.245-14.641-41.283c0-9.039,4.975-10.297,14.074-10.297h23.34
				c9.1,0,14.074,1.258,14.074,10.297C94.25,68.303,88.262,100.548,79.607,100.548z"/>
		</g>
		<g>
			<path fill="#524F49" d="M42.58,59.265c0-9.039,5.156-10.297,14.256-10.297h23.34c9.1,0,14.256,1.258,14.256,10.297
				c0,0-0.697,0.914-25.926,0.914S42.58,59.265,42.58,59.265z"/>
		</g>
	</g>
</g>
</svg>
