<?xml version="1.0" encoding="utf-8"?>
<!-- Generator: Adobe Illustrator 16.0.0, SVG Export Plug-In . SVG Version: 6.00 Build 0)  -->
<!DOCTYPE svg PUBLIC "-//W3C//DTD SVG 1.1//EN" "http://www.w3.org/Graphics/SVG/1.1/DTD/svg11.dtd">
<svg version="1.1" id="Layer_1" xmlns="http://www.w3.org/2000/svg" xmlns:xlink="http://www.w3.org/1999/xlink" x="0px" y="0px"
     width="136.913px" height="136.914px" viewBox="0 0 136.913 136.914" enable-background="new 0 0 136.913 136.914"
     xml:space="preserve">
<g>
	<g>
		<g>
			<g>
				<g>
					<g>
						<g>
							<circle fill="#4ABC96" cx="68.457" cy="68.456" r="63.333"/>
						</g>
					</g>
				</g>
			</g>
		</g>
		<g>
			<g>
				<g>
					<g>
						<g>
							<path fill="#DFBA24" d="M13.808,36.46C9.06,44.554,6.063,53.792,5.323,63.665h33.15c0.553,0,1,0.447,1,1s-0.447,1-1,1H5.194
								c-0.039,0.926-0.07,1.855-0.07,2.791c0,0.487,0.027,0.969,0.037,1.453h33.313c0.553,0,1,0.447,1,1s-0.447,1-1,1H5.222
								c0.072,1.355,0.201,2.696,0.357,4.028h32.895c0.553,0,1,0.447,1,1s-0.447,1-1,1H5.833c0.396,2.632,0.967,5.205,1.676,7.721
								h37.639l1.955,4.754h36.225c2.627,0,5.963-3.553,5.963-6.179c0,0,2.439-2.415,3.299-9.735
								c0-19.163-4.508-39.343-4.508-39.343l-0.516,1.305H13.808z"/>
						</g>
					</g>
				</g>
			</g>
		</g>
	</g>
	<g>
		<g>
			<g>
				<g>
					<g>
						<g>
							<g>
								<g>
									<g>
										<path fill="#DFBA24" d="M119.288,80.239c0,5.708-4.627,10.335-10.334,10.335H92.903c-5.709,0-10.334-4.627-10.334-10.335
											V68.755c0-5.707,2.877-10.19,8.584-10.19l17.801,4.02c5.74,1.723,10.334,3.158,10.334,10.335V80.239z"/>
									</g>
								</g>
							</g>
						</g>
					</g>
					<g>
						<g>
							<g>
								<g>
									<g>
										<polygon fill="#DFBA24" points="86.776,94.737 48.88,94.737 43.427,90.717 46.585,79.809 86.776,79.809 										"/>
									</g>
								</g>
							</g>
						</g>
					</g>
					<g>
						<g>
							<g>
								<g>
									<g>
										<path fill="#343433" d="M118.714,83.659c0,2.625-2.111,6.753-4.736,6.753h-8.973c-2.625,0-4.754-2.128-4.754-4.754h15.879
											L118.714,83.659z"/>
									</g>
								</g>
							</g>
						</g>
					</g>
					<g>
						<g>
							<g>
								<g>
									<g>
										<g>
											<path fill="#D7AE29" d="M113.993,85.442l-4.682,0.323l-20.168,8.972h-4.234l-0.598-1.318
												c-2.203-8.196,2.654-16.626,10.852-18.829C103.362,72.387,111.79,77.245,113.993,85.442z"/>
										</g>
									</g>
								</g>
							</g>
						</g>
						<g>
							<g>
								<g>
									<g>
										<g>
											<circle fill="#202121" cx="98.846" cy="90.017" r="11.062"/>
										</g>
									</g>
								</g>
							</g>
						</g>
						<g>
							<g>
								<g>
									<g>
										<g>
											<circle fill="#5E5F5E" cx="98.846" cy="90.017" r="5.081"/>
										</g>
									</g>
								</g>
							</g>
						</g>
					</g>
					<g>
						<g>
							<g>
								<g>
									<g>
										<g>
											<path fill="#343433" d="M83.173,90.412H50.007V50.226c0-2.906,2.193-5.263,4.9-5.263h23.365c2.705,0,4.9,2.356,4.9,5.263
												V90.412z"/>
										</g>
									</g>
								</g>
							</g>
						</g>
						<g>
							<g>
								<g>
									<g>
										<g>
											<path fill="#B1D4D7" d="M81.882,90.412H51.298V53.356c0-2.681,2.021-4.853,4.52-4.853h21.545
												c2.496,0,4.52,2.172,4.52,4.853V90.412z"/>
										</g>
									</g>
								</g>
							</g>
						</g>
						<g>
							<g>
								<g>
									<g>
										<g>
											<rect x="65.737" y="46.363" fill="#343433" width="0.889" height="44.038"/>
										</g>
									</g>
								</g>
							</g>
						</g>
					</g>
					<g>
						<g>
							<g>
								<g>
									<g>
										<path fill="#B1D4D7" d="M15.22,47.393c0-1.614,1.309-2.923,2.922-2.923h18.264c1.613,0,2.922,1.309,2.922,2.923v8.015
											c0,1.614-1.309,2.923-2.922,2.923H18.142c-1.613,0-2.922-1.309-2.922-2.923V47.393z"/>
									</g>
								</g>
							</g>
						</g>
					</g>
					<g>
						<g>
							<g>
								<g>
									<g>
										<rect x="15.794" y="50.101" fill="#D3E8E9" width="23.039" height="2"/>
									</g>
								</g>
							</g>
						</g>
					</g>
				</g>
				<g>
					<g>
						<g>
							<g>
								<g>
									<path fill="#343433" d="M91.544,58.492c0,0.308-2.34,0.247-4.016-1.711c-0.928-1.081-0.576-8.638-0.182-18.087
										c0.107-2.584,0.734-3.539,0.734-3.539S91.544,44.364,91.544,58.492z"/>
								</g>
							</g>
						</g>
					</g>
				</g>
				<g>
					<g>
						<g>
							<g>
								<g>
									<path fill="#B1D4D7" d="M91.585,56.195c0,0.288-1.865,0.036-3.049-1.794c-1.184-1.829-0.467-20.12-0.467-20.12
										S91.585,42.986,91.585,56.195z"/>
								</g>
							</g>
						</g>
					</g>
				</g>
			</g>
		</g>
		<g>
			<g>
				<g>
					<g>
						<g>
							<g>
								<path fill="#343433" d="M48.88,94.737l-1.777-4.325h-4.107C43.364,90.78,48.88,94.737,48.88,94.737z"/>
							</g>
						</g>
					</g>
				</g>
			</g>
			<g>
				<g>
					<g>
						<g>
							<g>
								<path fill="#343433" d="M47.103,90.412l-1.955-4.754H7.509c0.453,1.609,0.955,3.199,1.529,4.754h33.957H47.103z"/>
							</g>
						</g>
					</g>
				</g>
			</g>
			<g>
				<g>
					<g>
						<g>
							<g>
								<path fill="#343433" d="M39.474,70.909c0-0.553-0.447-1-1-1H5.161c0.016,0.668,0.025,1.337,0.061,2h33.252
									C39.026,71.909,39.474,71.462,39.474,70.909z"/>
							</g>
						</g>
					</g>
				</g>
			</g>
			<g>
				<g>
					<g>
						<g>
							<g>
								<path fill="#343433" d="M39.474,64.665c0-0.553-0.447-1-1-1H5.323c-0.049,0.665-0.1,1.329-0.129,2h33.279
									C39.026,65.665,39.474,65.218,39.474,64.665z"/>
							</g>
						</g>
					</g>
				</g>
			</g>
			<g>
				<g>
					<g>
						<g>
							<g>
								<path fill="#343433" d="M39.474,76.938c0-0.553-0.447-1-1-1H5.579c0.078,0.669,0.154,1.338,0.254,2h32.641
									C39.026,77.938,39.474,77.49,39.474,76.938z"/>
							</g>
						</g>
					</g>
				</g>
			</g>
			<g>
				<g>
					<g>
						<g>
							<g>
								<path fill="#F6DA66" d="M87.565,36.46l0.516-1.305c0-2.625-2.127-4.753-4.754-4.753H17.833
									c-1.457,1.935-2.795,3.96-4.025,6.058H87.565z"/>
							</g>
						</g>
					</g>
				</g>
			</g>
		</g>
	</g>
</g>
</svg>
