<?xml version="1.0" encoding="utf-8"?>
<!-- Generator: Adobe Illustrator 16.0.0, SVG Export Plug-In . SVG Version: 6.00 Build 0)  -->
<!DOCTYPE svg PUBLIC "-//W3C//DTD SVG 1.1//EN" "http://www.w3.org/Graphics/SVG/1.1/DTD/svg11.dtd">
<svg version="1.1" id="Layer_1" xmlns="http://www.w3.org/2000/svg" xmlns:xlink="http://www.w3.org/1999/xlink" x="0px" y="0px"
     width="136.913px" height="136.914px" viewBox="0 0 136.913 136.914" enable-background="new 0 0 136.913 136.914"
     xml:space="preserve">
<g>
	<g>
		<g>
			<circle fill="#357180" cx="68.456" cy="68.457" r="63.333"/>
		</g>
	</g>
	<g>
		<g>
			<g>
				<path fill="#6E5538" d="M72.283,34.777c0.703,0.086,1.367,0.299,1.965,0.617"/>
			</g>
		</g>
		<g>
			<g>
				<path fill="#6E5538" d="M67.41,72.26c-1.006,0-1.82,0.9-1.82,2.006v43.928c0,1.109,0.814,2.008,1.82,2.008
					s1.82-0.898,1.82-2.008V74.266C69.23,73.16,68.416,72.26,67.41,72.26z"/>
			</g>
			<g>
				<g>
					<path fill="#8C8C8C" d="M71.867,101.928c-0.291,0-0.578-0.125-0.775-0.367l-5-6.125c-0.35-0.43-0.287-1.059,0.141-1.408
						c0.43-0.35,1.059-0.287,1.408,0.143l5,6.125c0.35,0.428,0.285,1.059-0.143,1.406C72.313,101.854,72.088,101.928,71.867,101.928
						z"/>
				</g>
			</g>
			<g>
				<g>
					<path fill="#F5DE57" d="M78.551,103.135c0.955,1.057,2.785,1.949,2.785,1.949s-5.152,2.307-8.719,0.002
						c-1.42-0.922-2.023-2.689-1.201-4.201c0.826-1.51,2.693-2.078,4.18-1.268C77.041,100.404,77.422,101.893,78.551,103.135z"/>
				</g>
				<g opacity="0.8">
					<g>
						<path fill="#FFFFFF" d="M75.986,102.344c0.607,0.666,1.764,1.232,1.764,1.232s-3.264,1.463-5.523,0
							c-0.9-0.582-1.281-1.705-0.76-2.66c0.521-0.957,1.709-1.316,2.648-0.805C75.031,100.609,75.271,101.555,75.986,102.344z"/>
					</g>
				</g>
			</g>
		</g>
		<g>
			<g>
				<path fill="#F8D648" d="M77.26,93.342c0,3.133-19.537,3.133-19.537,0V40.402c0-3.133,2.539-5.672,5.672-5.672h8.193
					c3.133,0,5.672,2.539,5.672,5.672V93.342z"/>
			</g>
			<g>
				<g>
					<polygon fill="#F3C715" points="77.26,51.721 57.723,71.26 57.723,76.916 77.26,57.379 					"/>
				</g>
				<g>
					<path fill="#F3C715" d="M74.248,35.395c-0.598-0.318-1.262-0.531-1.965-0.617L57.723,49.338v5.656l18.063-18.063L74.248,35.395
						z"/>
				</g>
				<g>
					<polygon fill="#F3C715" points="77.26,62.328 57.723,81.865 57.723,87.521 77.26,67.984 					"/>
				</g>
				<g>
					<polygon fill="#F3C715" points="77.26,40.408 57.723,59.947 57.723,65.604 77.26,46.064 					"/>
				</g>
				<g>
					<path fill="#F3C715" d="M63.395,34.73c-3.133,0-5.672,2.539-5.672,5.672v3.279l8.951-8.951H63.395z"/>
				</g>
				<g>
					<path fill="#F3C715" d="M77.26,72.582L57.723,92.119v1.223c0,0.736,1.09,1.299,2.744,1.689L77.26,78.238V72.582z"/>
				</g>
				<g>
					<path fill="#F3C715" d="M77.26,83.188L64.836,95.611c1.855,0.113,3.846,0.104,5.682-0.025l6.742-6.742V83.188z"/>
				</g>
			</g>
		</g>
		<g>
			<path fill="#C42126" d="M77.822,31.221l-7.447-12.803c-1.639-2.273-4.295-2.273-5.932,0l-7.447,12.803
				c-1.893,2.273-1.893,5.957,0,8.229h20.826C79.713,37.178,79.713,33.494,77.822,31.221z"/>
		</g>
		<g>
			<path fill="#BB2025" d="M67.49,16.715c-1.1-0.029-2.207,0.537-3.047,1.703l-7.447,12.803c-1.893,2.273-1.893,5.957,0,8.229H67.49
				V16.715z"/>
		</g>
	</g>
</g>
</svg>
