<?xml version="1.0" encoding="utf-8"?>
<!-- Generator: Adobe Illustrator 16.0.0, SVG Export Plug-In . SVG Version: 6.00 Build 0)  -->
<!DOCTYPE svg PUBLIC "-//W3C//DTD SVG 1.1//EN" "http://www.w3.org/Graphics/SVG/1.1/DTD/svg11.dtd">
<svg version="1.1" id="Layer_1" xmlns="http://www.w3.org/2000/svg" xmlns:xlink="http://www.w3.org/1999/xlink" x="0px" y="0px"
     width="136.602px" height="135.696px" viewBox="0 0 136.602 135.696" enable-background="new 0 0 136.602 135.696"
     xml:space="preserve">
<g>
	<g>
		<circle fill="#4ABC96" cx="68.301" cy="67.848" r="63.333"/>
	</g>
	<g>
		<g>
			<circle fill="#5B4F3F" cx="68.302" cy="74.182" r="32.666"/>
		</g>
		<g>
			<path fill="#E9B634" d="M67.259,38.47c-0.828,0-1.5-0.673-1.5-1.5v-0.382c-0.004-3.022-0.006-5.876,1.846-7.731
				c1.158-1.158,2.844-1.721,5.154-1.721h13.666c0.828,0,1.5,0.672,1.5,1.5s-0.672,1.5-1.5,1.5H72.759
				c-1.475,0-2.465,0.275-3.031,0.841c-0.975,0.976-0.973,3.122-0.969,5.608v0.385C68.759,37.797,68.087,38.47,67.259,38.47z"/>
		</g>
		<g>
			<path fill="#E9B634" d="M73.677,27.136h-0.918c-1.154,0-2.154,0.141-3.008,0.426l1.402,2.292L73.677,27.136z"/>
			<polygon fill="#E9B634" points="76.569,27.136 73.782,30.136 76.312,30.136 79.097,27.136 			"/>
			<path fill="#E9B634" d="M65.759,36.588v0.382c0,0.827,0.672,1.5,1.5,1.5s1.5-0.673,1.5-1.5v-0.385
				c-0.002-0.351,0-0.692,0.002-1.028l-2.852-2.685C65.765,34.039,65.757,35.295,65.759,36.588z"/>
			<polygon fill="#E9B634" points="81.989,27.136 79.204,30.136 81.817,30.136 84.603,27.136 			"/>
			<path fill="#E9B634" d="M67.604,28.856c-0.488,0.488-0.84,1.05-1.105,1.661l2.443,2.3c0.111-0.635,0.291-1.169,0.578-1.571
				l-1.623-2.649C67.8,28.682,67.698,28.764,67.604,28.856z"/>
			<path fill="#E9B634" d="M87.259,27.39l-2.549,2.746h1.715c0.828,0,1.5-0.672,1.5-1.5C87.925,28.116,87.661,27.658,87.259,27.39z"
				/>
			<path fill="#D89F29" d="M86.425,27.136h-1.822l-2.785,3h2.893l2.549-2.746C87.021,27.229,86.733,27.136,86.425,27.136z"/>
			<polygon fill="#D89F29" points="79.097,27.136 76.312,30.136 79.204,30.136 81.989,27.136 			"/>
			<path fill="#D89F29" d="M73.677,27.136l-2.523,2.718l-1.402-2.292c-0.719,0.24-1.33,0.588-1.854,1.035l1.623,2.649
				c0.066-0.093,0.129-0.191,0.207-0.27c0.566-0.565,1.557-0.841,3.031-0.841h1.023l2.787-3H73.677z"/>
			<path fill="#D89F29" d="M65.909,32.872l2.852,2.685c0.008-1.021,0.045-1.953,0.182-2.739l-2.443-2.3
				C66.188,31.234,66.013,32.029,65.909,32.872z"/>
		</g>
		<path fill="#5B4F3F" d="M77.425,45.772c0,2.715-19.666,2.715-19.666,0v-5.686c0-2.716,2.201-4.917,4.916-4.917h9.834
			c2.715,0,4.916,2.201,4.916,4.917V45.772z"/>
		<g>
			<polygon fill="#DA8727" points="90.938,24.023 89.601,27.97 92.091,31.308 87.927,31.255 85.521,34.655 84.284,30.679 
				80.306,29.44 83.708,27.036 83.655,22.87 86.993,25.361 			"/>
			<polygon fill="#E9B634" points="89.37,25.593 88.554,27.995 90.071,30.028 87.536,29.996 86.071,32.066 85.317,29.645 
				82.896,28.892 84.966,27.427 84.933,24.891 86.968,26.408 			"/>
		</g>
	</g>
	<g>
		<path fill="#BEB8B1" d="M48.784,62.86c-1.902-1.895-1.387-5.498,1.148-8.041c2.537-2.546,6.133-3.073,8.037-1.177
			c1.902,1.895,1.389,5.495-1.15,8.04C54.286,64.228,50.687,64.755,48.784,62.86z"/>
	</g>
</g>
</svg>
