<?xml version="1.0" encoding="utf-8"?>
<!-- Generator: Adobe Illustrator 16.0.0, SVG Export Plug-In . SVG Version: 6.00 Build 0)  -->
<!DOCTYPE svg PUBLIC "-//W3C//DTD SVG 1.1//EN" "http://www.w3.org/Graphics/SVG/1.1/DTD/svg11.dtd">
<svg version="1.1" id="Layer_1" xmlns="http://www.w3.org/2000/svg" xmlns:xlink="http://www.w3.org/1999/xlink" x="0px" y="0px"
     width="136.913px" height="136.914px" viewBox="0 0 136.913 136.914" enable-background="new 0 0 136.913 136.914"
     xml:space="preserve">
<g>
	<g>
		<g>
			<circle fill="#B1C635" cx="68.456" cy="68.458" r="63.333"/>
		</g>
	</g>
	<g>
		<g>
			<polygon fill="#EFEFEF" points="90.396,106.833 46.516,106.833 35.547,37.724 101.365,37.724 			"/>
		</g>
		<g>
			<polygon fill="#E0E0E0" points="102.021,44.47 34.891,44.47 32.891,33.937 104.021,33.937 			"/>
		</g>
		<g>
			<g>
				<g>
					<g>
						<g>
							<path fill="#B1C635" d="M54.879,85.735h-0.002c0.199,0.119,0.443,0.203,0.727,0.242l0,0
								C55.32,85.938,55.078,85.854,54.879,85.735z"/>
						</g>
					</g>
					<g>
						<g>
							<path fill="#B1C635" d="M55.604,85.978c-0.242-0.041-0.488-0.125-0.725-0.242C55.078,85.854,55.32,85.938,55.604,85.978z"/>
						</g>
					</g>
					<g>
						<g>
							<path fill="#B1C635" d="M51.52,69.45l2.621,1.525l-3.348,5.799c-0.326,0.566-0.326,1.521,0,2.087l3.137,5.431
								c0.051-0.297,0.168-0.604,0.346-0.916l5.359-9.244l2.613,1.51l-2.266-8.461L51.52,69.45z"/>
						</g>
					</g>
					<g>
						<g>
							<path fill="#B1C635" d="M55.604,85.978c0.051,0.008,0.098,0.015,0.143,0.019v-0.003C55.701,85.99,55.65,85.985,55.604,85.978
								z"/>
						</g>
					</g>
					<g>
						<g>
							<path fill="#B1C635" d="M54.26,84.616c-0.01,0.481,0.209,0.876,0.617,1.119h0.002C54.469,85.492,54.25,85.098,54.26,84.616z"
								/>
						</g>
					</g>
					<g>
						<g>
							<path fill="#B1C635" d="M55.746,85.993c-0.045-0.003-0.096-0.008-0.143-0.016l0,0C55.65,85.985,55.701,85.99,55.746,85.993
								L55.746,85.993z"/>
						</g>
					</g>
					<g>
						<g>
							<path fill="#B1C635" d="M54.771,83.556c-0.217,0.379-0.324,0.738-0.33,1.061c-0.012,0.481,0.209,0.876,0.619,1.119
								c0.236,0.117,0.48,0.201,0.725,0.242c0.047,0.008,0.096,0.013,0.143,0.016l0.506,0.012h9.186v-2.574v-4.493h-8.162
								L54.771,83.556z"/>
						</g>
					</g>
				</g>
				<g>
					<g>
						<g>
							<path fill="#B1C635" d="M68.656,65.876l8.451,2.293l2.293-8.456l-2.635,1.498l-3.332-5.81
								c-0.324-0.566-1.15-1.047-1.805-1.048l-6.268-0.021c0.23,0.195,0.438,0.451,0.615,0.764l5.299,9.277L68.656,65.876z"/>
						</g>
					</g>
					<g>
						<g>
							<path fill="#B1C635" d="M58.68,63.11l5.484,3.188l3.814-6.562l-2.541-4.463c-0.178-0.313-0.393-0.55-0.619-0.688
								c-0.301-0.184-0.615-0.19-0.918-0.022c-0.168,0.112-0.338,0.263-0.469,0.419c-0.021,0.027-0.045,0.061-0.066,0.093
								l-0.256,0.415L58.68,63.11z"/>
						</g>
					</g>
				</g>
				<g>
					<g>
						<g>
							<path fill="#B1C635" d="M86.367,77.435C86.367,77.436,86.367,77.436,86.367,77.435c0.002-0.23-0.049-0.483-0.158-0.749
								c-0.004,0.001,0,0.001,0,0.001C86.318,76.951,86.369,77.204,86.367,77.435z"/>
						</g>
					</g>
					<g>
						<g>
							<path fill="#B1C635" d="M86.209,76.687c0.086,0.229,0.139,0.484,0.158,0.748C86.369,77.204,86.318,76.951,86.209,76.687z"/>
						</g>
					</g>
					<g>
						<g>
							<path fill="#B1C635" d="M67.785,82.435l6.244,6.147l-0.014-3.032l6.697-0.053c0.652-0.006,1.475-0.489,1.799-1.058
								l3.092-5.454c-0.283,0.106-0.605,0.162-0.965,0.164l-10.688,0.066l-0.023-3.021L67.785,82.435z"/>
						</g>
					</g>
					<g>
						<g>
							<path fill="#B1C635" d="M86.209,76.686c-0.02-0.047-0.039-0.091-0.059-0.134l-0.004,0.003
								C86.17,76.599,86.189,76.643,86.209,76.686z"/>
						</g>
					</g>
					<g>
						<g>
							<path fill="#B1C635" d="M85.713,78.536c0.422-0.236,0.65-0.625,0.654-1.101c0,0,0,0,0-0.001
								C86.365,77.911,86.135,78.3,85.713,78.536z"/>
						</g>
					</g>
					<g>
						<g>
							<path fill="#B1C635" d="M86.146,76.555c0.023,0.044,0.043,0.088,0.063,0.132c0,0-0.004,0,0-0.001
								C86.189,76.643,86.17,76.599,86.146,76.555L86.146,76.555z"/>
						</g>
					</g>
					<g>
						<g>
							<path fill="#B1C635" d="M84.635,78.696c0.436-0.004,0.801-0.094,1.078-0.252c0.422-0.236,0.652-0.625,0.654-1.101
								c-0.02-0.264-0.072-0.519-0.158-0.747c-0.02-0.045-0.039-0.088-0.063-0.133l-0.244-0.441l-4.656-7.918l-2.215,1.304
								l-3.875,2.278l4.135,7.035L84.635,78.696z"/>
						</g>
					</g>
				</g>
			</g>
		</g>
	</g>
</g>
</svg>
