<?xml version="1.0" encoding="utf-8"?>
<!-- Generator: Adobe Illustrator 16.0.0, SVG Export Plug-In . SVG Version: 6.00 Build 0)  -->
<!DOCTYPE svg PUBLIC "-//W3C//DTD SVG 1.1//EN" "http://www.w3.org/Graphics/SVG/1.1/DTD/svg11.dtd">
<svg version="1.1" id="Layer_1" xmlns="http://www.w3.org/2000/svg" xmlns:xlink="http://www.w3.org/1999/xlink" x="0px" y="0px"
     width="136.914px" height="136.913px" viewBox="0 0 136.914 136.913" enable-background="new 0 0 136.914 136.913"
     xml:space="preserve">
<g>
	<g>
		<circle fill="#49A0AE" cx="68.457" cy="68.458" r="63.332"/>
	</g>
	<g>
		<g>
			<path fill="#ECECEC" d="M111.152,51.388c-1.67-1.599-6.377-6.764-19.078-7.226v-0.021h-0.715c-0.752-0.018-1.521-0.018-2.313,0
				H52.328c-14.619-0.334-20.309,5.524-22.105,7.246c-2.395,2.292-3.033,21.332-0.932,25.518c2.1,4.188,13.221,9.756,20.211,10.865
				c20.807,3.303,22.43,3.084,42.369,0c6.996-1.082,18.113-6.678,20.213-10.865C114.184,72.72,113.547,53.68,111.152,51.388z"/>
		</g>
		<g>
			<path fill="#D8E4E1" d="M51.873,91.106c0,0,9.389,2.406,18.846,2.406c9.455,0,18.25-2.406,18.25-2.406L70.688,62.43
				L51.873,91.106z"/>
		</g>
		<g>
			<path fill="#CAD8D4" d="M77.932,91.446c0,2.383-4.25,3.096-7.264,3.096l0,0c-3.014,0-7.262-0.713-7.262-3.096l2.941-18.35
				c0-2.383,1.307-4.314,4.32-4.314l0,0c3.014,0,4.32,1.932,4.32,4.314L77.932,91.446z"/>
		</g>
		<g>
			<path fill="#BDD2CE" d="M70.668,94.542L70.668,94.542c-3.014,0-7.262-0.713-7.262-3.096l2.941-18.35
				c0-2.383,1.307-4.314,4.32-4.314l0,0V94.542z"/>
		</g>
		<g>
			<path fill="#377EC0" d="M117.287,58.84c-1.922-1.523-9.559-6.451-23.359-6.892v-0.02h-0.775c-0.818-0.016-1.654-0.017-2.516,0
				H50.738c-15.887-0.318-24.58,5.271-26.65,6.911c-2.758,2.188-0.666,20.347,1.615,24.341c2.283,3.994,14.262,10.268,21.963,10.363
				c4.451,0.055,10.932-7.543,15.959-15.82c0.979-1.32,3.904-4.867,7.094-4.867c3.918,0,7.309,5.355,7.309,5.355l-0.01-0.047
				c4.988,8.104,11.318,15.434,15.689,15.379c7.701-0.096,19.682-6.369,21.963-10.363C117.953,79.187,120.045,61.027,117.287,58.84z
				 M70.412,63.412c0.102-0.337,0.193-0.665,0.275-0.982c0.082,0.317,0.174,0.646,0.275,0.982H70.412z"/>
		</g>
		<g>
			<path fill="#5A5A5A" d="M112.893,61.488c-1.518-1.203-7.432-5.02-18.072-5.542v-0.05h-1.488c-0.676-0.014-1.365-0.015-2.076,0
				H50.119c-0.711-0.015-1.4-0.014-2.076,0h-1.031v0.026c-10.932,0.433-16.99,4.346-18.529,5.565
				c-2.232,1.77-0.539,16.468,1.309,19.7s11.543,8.311,17.777,8.389c4.793,0.059,12.496-10.846,16.467-19.422l-0.029,0.123
				c0,0,2.811-6.844,6.713-6.844l0,0c2.824,0,5.076,3.586,6.104,5.564c3.781,8.719,11.973,20.639,16.984,20.578
				c6.234-0.078,15.93-5.156,17.777-8.389S115.123,63.258,112.893,61.488z"/>
		</g>
		<g>
			<path fill="#D8E4E1" d="M63.709,64.724c-1.256,6.678-10.844,22.547-16.201,22.48c-5.355-0.066-13.688-4.43-15.273-7.207
				c-1.588-2.777-3.041-15.406-1.125-16.927c1.918-1.521,12.012-7.913,31.211-2.976C64.635,60.69,64.199,62.121,63.709,64.724z"/>
		</g>
		<g>
			<path fill="#D8E4E1" d="M77.666,64.724c1.256,6.678,10.844,22.547,16.199,22.48c5.357-0.066,13.688-4.43,15.275-7.207
				c1.586-2.777,3.041-15.406,1.123-16.927c-1.916-1.521-12.01-7.913-31.209-2.976C76.74,60.69,77.176,62.121,77.666,64.724z"/>
		</g>
	</g>
</g>
</svg>
