<?xml version="1.0" encoding="utf-8"?>
<!-- Generator: Adobe Illustrator 16.0.0, SVG Export Plug-In . SVG Version: 6.00 Build 0)  -->
<!DOCTYPE svg PUBLIC "-//W3C//DTD SVG 1.1//EN" "http://www.w3.org/Graphics/SVG/1.1/DTD/svg11.dtd">
<svg version="1.1" id="Layer_1" xmlns="http://www.w3.org/2000/svg" xmlns:xlink="http://www.w3.org/1999/xlink" x="0px" y="0px"
     width="136.913px" height="136.914px" viewBox="0 0 136.913 136.914" enable-background="new 0 0 136.913 136.914"
     xml:space="preserve">
<g>
	<g>
		<path fill="#357180" d="M5.124,68.458c0-34.98,28.355-63.334,63.332-63.334c34.979,0,63.334,28.354,63.334,63.334
			c0,34.976-28.355,63.331-63.334,63.331C33.479,131.789,5.124,103.434,5.124,68.458z"/>
	</g>
	<g>
		<g>
			<path fill="#D2D2D2" d="M49.073,77.071c-0.426-7.665-4.664-16.545-4.664-18.596c0-4.548,1.646-5.083,1.646-9.632
				c0,0-0.273-5.836-4.885-5.884v-0.003c-0.01,0-0.018,0.001-0.027,0.001s-0.018-0.001-0.029-0.001v0.003
				c-4.611,0.048-4.885,5.884-4.885,5.884c0,4.549,1.648,5.084,1.648,9.632c0,2.051-4.236,10.931-4.666,18.596
				c-0.523,9.34,2.744,17.527,2.744,17.527h5.158h0.057h5.158C46.329,94.599,49.597,86.411,49.073,77.071z"/>
			<g>
				<path fill="#DC3735" d="M45.062,54.193h-7.838c0.154,0.496,0.303,1.014,0.418,1.607h7.004
					C44.759,55.207,44.907,54.689,45.062,54.193z"/>
				<path fill="#DC3735" d="M45.159,61.419h-8.031c-0.164,0.495-0.346,1.03-0.541,1.604h9.111
					C45.505,62.449,45.321,61.914,45.159,61.419z"/>
			</g>
		</g>
		<g>
			<path fill="#D2D2D2" d="M108.339,77.071c-0.428-7.665-4.666-16.545-4.666-18.596c0-4.548,1.646-5.083,1.646-9.632
				c0,0-0.273-5.836-4.885-5.884v-0.003c-0.01,0-0.018,0.001-0.029,0.001c-0.008,0-0.016-0.001-0.027-0.001v0.003
				c-4.609,0.048-4.883,5.884-4.883,5.884c0,4.549,1.646,5.084,1.646,9.632c0,2.051-4.238,10.931-4.666,18.596
				c-0.523,9.34,2.746,17.527,2.746,17.527h5.156h0.057h5.158C105.593,94.599,108.86,86.411,108.339,77.071z"/>
			<g>
				<path fill="#DC3735" d="M104.325,54.193h-7.838c0.154,0.496,0.303,1.014,0.418,1.607h7.004
					C104.022,55.207,104.171,54.689,104.325,54.193z"/>
				<path fill="#DC3735" d="M104.423,61.419h-8.031c-0.164,0.495-0.348,1.03-0.541,1.604h9.113
					C104.769,62.449,104.585,61.914,104.423,61.419z"/>
			</g>
		</g>
		<g>
			<path fill="#DBDBDA" d="M63.983,77.99C63.507,69.477,58.8,59.612,58.8,57.334c0-5.052,1.83-5.646,1.83-10.699
				c0,0-0.305-6.483-5.426-6.536v-0.003c-0.01,0-0.02,0.001-0.031,0.001c-0.01,0-0.02-0.001-0.031-0.001v0.003
				c-5.121,0.053-5.426,6.536-5.426,6.536c0,5.053,1.83,5.647,1.83,10.699c0,2.278-4.705,12.143-5.184,20.656
				c-0.578,10.376,3.049,19.471,3.049,19.471h5.73h0.063h5.729C60.933,97.461,64.563,88.366,63.983,77.99z"/>
			<g>
				<path fill="#DC3735" d="M59.524,52.578h-8.703c0.17,0.551,0.334,1.125,0.461,1.783h7.781
					C59.19,53.703,59.354,53.129,59.524,52.578z"/>
				<path fill="#DC3735" d="M59.634,60.604h-8.922c-0.182,0.55-0.383,1.146-0.6,1.783h10.121
					C60.019,61.749,59.815,61.153,59.634,60.604z"/>
			</g>
		</g>
		<g>
			<path fill="#DBDBDA" d="M95.306,77.99c-0.477-8.514-5.184-18.378-5.184-20.656c0-5.052,1.83-5.646,1.83-10.699
				c0,0-0.303-6.483-5.426-6.536v-0.003c-0.01,0-0.02,0.001-0.031,0.001c-0.01,0-0.02-0.001-0.029-0.001v0.003
				c-5.123,0.053-5.428,6.536-5.428,6.536c0,5.053,1.83,5.647,1.83,10.699c0,2.278-4.707,12.143-5.182,20.656
				c-0.582,10.376,3.049,19.471,3.049,19.471h5.73h0.061h5.73C92.257,97.461,95.886,88.366,95.306,77.99z"/>
			<g>
				<path fill="#DC3735" d="M90.849,52.578h-8.705c0.17,0.551,0.334,1.125,0.463,1.783h7.781
					C90.513,53.703,90.677,53.129,90.849,52.578z"/>
				<path fill="#DC3735" d="M90.956,60.604h-8.922c-0.18,0.55-0.383,1.146-0.6,1.783h10.123
					C91.339,61.749,91.138,61.153,90.956,60.604z"/>
			</g>
		</g>
		<g>
			<path fill="#E4E4E4" d="M80.413,78.204c-0.523-9.336-5.686-20.152-5.686-22.65c0-5.54,2.006-6.193,2.006-11.733
				c0,0-0.332-7.109-5.947-7.167v-0.004c-0.012,0-0.023,0.001-0.035,0.001s-0.021-0.001-0.035-0.001v0.004
				c-5.615,0.058-5.947,7.167-5.947,7.167c0,5.54,2.006,6.193,2.006,11.733c0,2.498-5.162,13.314-5.686,22.65
				c-0.635,11.378,3.346,21.351,3.346,21.351h6.281h0.07h6.281C77.067,99.555,81.048,89.582,80.413,78.204z"/>
			<g>
				<path fill="#DC3735" d="M75.522,50.338h-9.543c0.188,0.604,0.365,1.233,0.506,1.956h8.531
					C75.155,51.571,75.335,50.942,75.522,50.338z"/>
				<path fill="#DC3735" d="M75.644,59.138h-9.785c-0.199,0.604-0.42,1.256-0.658,1.955h11.1
					C76.063,60.394,75.841,59.741,75.644,59.138z"/>
			</g>
		</g>
	</g>
</g>
</svg>
