<?xml version="1.0" encoding="utf-8"?>
<!-- Generator: Adobe Illustrator 16.0.0, SVG Export Plug-In . SVG Version: 6.00 Build 0)  -->
<!DOCTYPE svg PUBLIC "-//W3C//DTD SVG 1.1//EN" "http://www.w3.org/Graphics/SVG/1.1/DTD/svg11.dtd">
<svg version="1.1" id="Layer_1" xmlns="http://www.w3.org/2000/svg" xmlns:xlink="http://www.w3.org/1999/xlink" x="0px" y="0px"
	 width="612px" height="792px" viewBox="0 0 612 792" style="enable-background:new 0 0 612 792;" xml:space="preserve">
<g>
	<g>
		<g>
			<polygon style="fill:#8E3529;" points="233.739,609.706 290.962,552.461 348.188,609.706 462.653,495.251 405.415,438.02 
				462.653,380.775 348.188,266.322 290.962,323.565 233.739,266.322 119.286,380.775 176.513,438.02 119.286,495.251 			"/>
			<g>
				<polygon style="fill:#8E3529;" points="290.962,552.461 290.962,323.565 233.739,266.322 119.286,380.775 176.513,438.02 
					119.286,495.251 233.739,609.706 				"/>
			</g>
		</g>
	</g>
	<g>
		<g>
			<polygon style="fill:#518D40;" points="233.735,425.648 290.962,368.405 348.183,425.639 462.653,311.174 405.426,253.962 
				462.653,196.73 348.183,82.276 290.962,139.52 233.735,82.276 119.286,196.73 176.508,253.962 119.286,311.174 			"/>
			<g>
				<polygon style="fill:#518D40;" points="290.962,368.405 290.962,139.52 233.735,82.276 119.286,196.73 176.508,253.962 
					119.286,311.174 233.735,425.648 				"/>
			</g>
		</g>
	</g>
	<g>
		<g>
			<polygon style="fill:#ED9E21;" points="225.289,468.56 225.289,231.326 290.962,231.326 356.624,231.326 356.624,468.56 
				290.962,532.309 			"/>
			<g>
				<polygon style="fill:#ED9E21;" points="290.962,231.326 290.962,231.326 225.289,231.326 225.289,468.56 290.962,532.309 
					290.962,532.309 				"/>
			</g>
		</g>
	</g>
	<g>
		<g>
			<rect x="115.199" y="205.782" style="fill:#C2C4A8;" width="351.515" height="92.457"/>
			<rect x="115.199" y="205.782" style="fill:#C2C4A8;" width="351.515" height="46.229"/>
		</g>
	</g>
	<g>
		<rect x="115.199" y="312.008" style="fill:#8E3529;" width="351.515" height="92.445"/>
		<rect x="115.199" y="312.008" style="fill:#8E3529;" width="351.515" height="46.218"/>
	</g>
	<g>
		<rect x="115.199" y="418.245" style="fill:#EC8558;" width="351.515" height="92.444"/>
		<rect x="115.199" y="418.245" style="fill:#EC8558;" width="351.515" height="46.217"/>
	</g>
</g>
</svg>
